<svg width="388" height="266" viewBox="0 0 388 266" fill="none" xmlns="http://www.w3.org/2000/svg">
<rect x="-1" width="389" height="266" fill="white"/>
<rect x="-1" width="389" height="246" fill="white"/>
<path d="M227.298 228.468C227.298 228.468 223.172 218.312 235.55 210.696L227.298 228.468Z" fill="#E6E6E6"/>
<path d="M222.225 228.284C222.225 228.284 220.966 221.045 211.225 221.107L222.225 228.284Z" fill="#E6E6E6"/>
<path d="M315.284 228.468C315.284 228.468 309.833 215.051 326.186 204.988L315.284 228.468Z" fill="#E6E6E6"/>
<path d="M308.58 228.224C308.58 228.224 306.918 218.661 294.048 218.743L308.58 228.224Z" fill="#E6E6E6"/>
<path d="M215.334 94.096L209.951 91.2366L210.354 91.0225L215.737 93.8821L215.334 94.096Z" fill="#CBCBCB"/>
<path d="M210.639 94.096L210.236 93.8821L215.619 91.0225L216.022 91.2366L210.639 94.096Z" fill="#CBCBCB"/>
<path d="M170.573 71.9318L170.313 72.4387L171.834 73.218L172.093 72.711L170.573 71.9318Z" fill="#CBCBCB"/>
<path d="M202.102 88.7284L199.075 87.1774L199.335 86.6704L202.361 88.2214L202.102 88.7284ZM196.048 85.6264L193.021 84.0753L193.281 83.5683L196.308 85.1194L196.048 85.6264ZM189.994 82.5242L186.968 80.9733L187.227 80.4663L190.254 82.0173L189.994 82.5242ZM183.941 79.4222L180.914 77.8712L181.174 77.3642L184.201 78.9152L183.941 79.4222ZM177.887 76.3202L174.86 74.7692L175.12 74.2622L178.147 75.8132L177.887 76.3202Z" fill="#CBCBCB"/>
<path d="M205.388 89.7723L205.128 90.2793L206.649 91.0586L206.909 90.5516L205.388 89.7723Z" fill="#CBCBCB"/>
<path d="M90.567 110.063C90.567 110.24 90.5612 110.417 90.5497 110.592C90.4851 111.601 90.2302 112.588 89.7985 113.503C89.7951 113.51 89.7912 113.518 89.7879 113.525C89.7678 113.567 89.7471 113.61 89.726 113.651C89.5976 113.91 89.4551 114.161 89.2993 114.404C88.5875 115.52 87.6118 116.443 86.4586 117.092C85.3053 117.741 84.0099 118.096 82.6869 118.126L82.7667 122.712L83.8068 122.165L83.9926 122.518L82.7745 123.159L82.9234 131.678L82.9251 131.791L82.1208 131.97L82.1225 131.856L82.3757 118.126C81.3108 118.111 80.2596 117.884 79.283 117.459C78.3064 117.034 77.424 116.42 76.6869 115.651C76.6362 115.598 76.586 115.544 76.5369 115.491L76.5313 115.485C75.9172 114.815 75.4206 114.046 75.0623 113.211C75.0701 113.22 75.0785 113.229 75.0863 113.238C74.2766 111.344 74.2216 109.213 74.9328 107.28C75.6439 105.347 77.0672 103.76 78.9111 102.843C78.939 102.829 78.9675 102.815 78.9954 102.801C80.8193 101.923 82.9067 101.762 84.8439 102.35C86.7811 102.938 88.4266 104.232 89.4543 105.977C89.5034 106.059 89.5509 106.143 89.5966 106.228C90.235 107.405 90.5686 108.723 90.567 110.063Z" fill="#E5E5E5"/>
<path d="M89.4817 113.529C95.32 113.529 100.053 108.797 100.053 102.958C100.053 97.12 95.32 92.3872 89.4817 92.3872C83.6435 92.3872 78.9106 97.12 78.9106 102.958C78.9106 108.797 83.6435 113.529 89.4817 113.529Z" fill="#E5E5E5"/>
<path opacity="0.2" d="M81.6761 95.8975C80.6901 98.204 80.5563 100.786 81.2987 103.182C82.0412 105.578 83.6114 107.632 85.7288 108.977C87.8463 110.322 90.3729 110.87 92.8574 110.524C95.3418 110.177 97.622 108.959 99.2907 107.086C98.6883 108.495 97.7868 109.756 96.6485 110.782C95.5103 111.809 94.1626 112.575 92.6987 113.029C91.2348 113.482 89.6899 113.612 88.1708 113.409C86.6518 113.207 85.195 112.676 83.9013 111.854C82.6077 111.033 81.5082 109.94 80.6789 108.651C79.8497 107.362 79.3105 105.908 79.0989 104.39C78.8872 102.873 79.0081 101.327 79.4531 99.8604C79.8981 98.3939 80.6566 97.0417 81.6761 95.8975Z" fill="black"/>
<path d="M90.0532 132.407L88.9736 132.104L88.9759 131.988L89.2994 114.404L89.3156 113.528L89.3159 113.502L89.3725 110.43L89.4544 105.977V105.976L89.51 102.958H89.5398L89.5967 106.228L89.6708 110.484L89.7239 113.504V113.526L89.7262 113.651V113.652L89.8287 119.538L89.8394 120.123L90.0513 132.29L90.0532 132.407Z" fill="#3F3D56"/>
<path d="M91.1918 118.82L89.4443 119.74L89.6879 120.203L91.4353 119.283L91.1918 118.82Z" fill="#3F3D56"/>
<path d="M226.514 68.7465C213.171 67.9576 199.788 68.1633 186.476 69.3619C180.06 69.9418 173.542 70.5683 167.245 71.9678C162.172 73.0951 156.285 75.0005 153.124 79.4382C152.463 80.3324 152.016 81.3676 151.821 82.4628C151.626 83.558 151.687 84.6836 151.999 85.7515C152.752 88.2813 154.627 90.3871 156.623 92.0364C161.218 95.8324 166.919 98.0414 172.012 101.057C181.31 106.564 189.82 113.985 195.282 123.413C197.686 127.562 199.972 133.078 197.296 137.65C194.674 142.128 188.821 143.671 184.047 144.399C178.064 145.311 171.902 145.064 165.894 144.553C159.307 143.939 152.757 142.979 146.271 141.679C133.565 139.239 120.974 136.135 108.091 134.724C101.631 133.964 95.1169 133.776 88.6241 134.161C82.7604 134.557 76.8464 135.484 71.3378 137.598C67.093 139.228 62.5682 141.693 60.2754 145.804C58.0651 149.767 58.9272 154.336 61.3339 157.993C64.2296 162.392 68.7451 165.407 73.4397 167.61C78.7849 170.119 84.5021 171.745 90.2266 173.128C93.1299 173.829 96.049 174.463 98.9683 175.094C99.5773 175.226 99.8375 174.29 99.2263 174.158C93.3393 172.886 87.4353 171.61 81.6945 169.768C76.382 168.064 70.9453 165.881 66.5948 162.303C63.0753 159.408 59.729 155.18 59.9367 150.373C60.1461 145.526 64.2123 142.143 68.1976 140.06C73.1782 137.457 78.8369 136.189 84.3817 135.526C90.7306 134.819 97.1334 134.732 103.499 135.266C116.352 136.244 128.918 139.172 141.519 141.726C153.761 144.207 166.386 146.504 178.932 145.868C183.905 145.615 189.233 144.903 193.623 142.393C195.634 141.244 197.446 139.623 198.468 137.514C199.389 135.507 199.68 133.269 199.303 131.094C198.591 126.315 195.753 121.884 192.921 118.078C189.817 113.95 186.216 110.22 182.199 106.972C177.791 103.424 173.039 100.328 168.013 97.7301C165.347 96.3268 162.644 94.9774 160.104 93.3521C157.669 91.7936 155.266 89.9185 153.779 87.3886C152.493 85.2005 152.257 82.7032 153.597 80.4839C154.952 78.2393 157.286 76.6739 159.589 75.5299C165.136 72.7736 171.585 72.0359 177.654 71.2799C190.686 69.6622 203.819 69.0074 216.947 69.3207C220.138 69.3958 223.327 69.5279 226.514 69.717C227.138 69.7537 227.135 68.783 226.514 68.7464V68.7465Z" fill="black"/>
<path d="M218.049 37.6345L220.065 36.0226C218.499 35.8498 217.856 36.7037 217.592 37.3796C216.369 36.8717 215.038 37.5373 215.038 37.5373L219.07 39.0012C218.867 38.4579 218.512 37.9838 218.049 37.6345Z" fill="#3F3D56"/>
<path d="M208.268 42.7375L210.284 41.1256C208.718 40.9529 208.075 41.8067 207.812 42.4826C206.588 41.9747 205.257 42.6403 205.257 42.6403L209.289 44.1043C209.086 43.5609 208.732 43.0868 208.268 42.7375Z" fill="#3F3D56"/>
<path d="M218.049 50.8176L220.065 49.2057C218.499 49.0329 217.856 49.8868 217.592 50.5627C216.369 50.0548 215.038 50.7204 215.038 50.7204L219.07 52.1843C218.867 51.641 218.512 51.1669 218.049 50.8176Z" fill="#3F3D56"/>
<path d="M187.836 53.2056C191.189 53.2056 193.908 50.487 193.908 47.1334C193.908 43.7799 191.189 41.0613 187.836 41.0613C184.482 41.0613 181.764 43.7799 181.764 47.1334C181.764 50.487 184.482 53.2056 187.836 53.2056Z" fill="#FF6583"/>
<path d="M206.877 65.8447H177.088C177.051 65.8452 177.014 65.8422 176.977 65.8359L191.066 41.4339C191.152 41.2819 191.277 41.1555 191.427 41.0675C191.578 40.9795 191.75 40.9331 191.924 40.9331C192.099 40.9331 192.27 40.9795 192.421 41.0675C192.572 41.1555 192.697 41.2819 192.783 41.4339L202.238 57.809L202.69 58.5924L206.877 65.8447Z" fill="#FB8C00"/>
<path d="M223.462 65.8449H197.698L202.69 58.5932L203.049 58.0706L209.555 48.6203C209.67 48.4758 209.814 48.357 209.978 48.2718C210.142 48.1866 210.322 48.1369 210.506 48.1259C210.691 48.1149 210.875 48.1428 211.048 48.2079C211.221 48.273 211.379 48.3737 211.51 48.5036C211.544 48.5405 211.575 48.5795 211.604 48.6203L223.462 65.8449Z" fill="#FB8C00"/>
<path d="M180.962 121.811C183.786 123.223 185.505 125.086 185.505 127.131C185.505 131.535 177.536 135.105 167.706 135.105C163.432 135.105 159.511 134.429 156.443 133.304C159.702 134.933 164.432 135.959 169.699 135.959C179.529 135.959 187.498 132.389 187.498 127.985C187.498 125.496 184.951 123.274 180.962 121.811Z" fill="#F1F1F1"/>
<path d="M187.243 124.836C190.429 126.429 192.369 128.532 192.369 130.839C192.369 135.808 183.377 139.836 172.285 139.836C167.462 139.836 163.038 139.074 159.576 137.805C163.253 139.643 168.591 140.8 174.534 140.8C185.626 140.8 194.618 136.772 194.618 131.803C194.618 128.994 191.744 126.486 187.243 124.836Z" fill="#F1F1F1"/>
<path d="M178.559 123.144C180.548 124.138 181.759 125.451 181.759 126.891C181.759 129.994 176.145 132.509 169.219 132.509C166.521 132.544 163.837 132.115 161.284 131.241C163.58 132.388 166.913 133.111 170.624 133.111C177.549 133.111 183.164 130.596 183.164 127.493C183.164 125.739 181.369 124.174 178.559 123.144Z" fill="#F1F1F1"/>
<path d="M150.609 122.574C150.609 122.574 151.046 128.964 163.576 128.964C176.107 128.964 179.848 122.574 179.848 122.574H150.609Z" fill="#3F3D56"/>
<path d="M168.395 105.811C166.586 104.436 164.315 103.815 162.059 104.077C164.075 104.564 165.856 105.744 167.089 107.413C168.322 109.081 168.927 111.13 168.8 113.201C168.672 115.271 167.82 117.231 166.391 118.735C164.963 120.24 163.051 121.193 160.99 121.428C162.961 121.904 165.036 121.686 166.866 120.812C168.696 119.938 170.17 118.461 171.039 116.628C171.907 114.796 172.119 112.72 171.637 110.75C171.156 108.78 170.011 107.036 168.395 105.811Z" fill="#3F3D56"/>
<path d="M164.288 102.924H163.434V123.26H164.288V102.924Z" fill="#3F3D56"/>
<path d="M220.436 87.8142L220.431 87.8063L220.42 87.3096L223.096 83.4236L220.423 86.9378L220.413 87.0428L220.322 83.0708L222.634 79.0419L220.315 82.373L220.339 74.1441L220.339 74.1167L220.339 74.1436L220.185 80.6291L218.078 77.9947L220.178 81.1879L220.132 84.7407L218.193 81.2733L220.125 85.263L220.099 87.2386L220.029 92.7118L220.023 93.1208C220.202 93.1222 220.379 93.1192 220.554 93.1119L220.432 87.8548L220.436 87.8142Z" fill="#CBCBCB"/>
<path d="M207.62 89.5227L207.616 89.5148L207.604 89.0181L210.281 85.1321L207.607 88.6463L207.598 88.7513L207.506 84.7793L209.818 80.7504L207.5 84.0815L207.524 75.8526L207.524 75.8252L207.523 75.8521L207.37 82.3376L205.263 79.7032L207.363 82.8964L207.317 86.4492L205.378 82.9818L207.31 86.9715L207.284 88.9471L207.213 94.4203L207.208 94.8293C207.387 94.8307 207.563 94.8277 207.738 94.8204L207.617 89.5632L207.62 89.5227Z" fill="#CBCBCB"/>
<path d="M213.886 84.112L213.881 84.1042L213.87 83.6074L216.546 79.7214L213.873 83.2356L213.863 83.3406L213.772 79.3686L216.084 75.3397L213.765 78.6709L213.79 70.4419L213.789 70.4146L213.789 70.4415L213.635 76.927L211.528 74.2926L213.628 77.4857L213.582 81.0386L211.644 77.5711L213.575 81.5609L213.55 83.5364L213.479 89.0097L213.474 89.4187C213.652 89.42 213.829 89.417 214.004 89.4097L213.883 84.1526L213.886 84.112Z" fill="#CBCBCB"/>
<path d="M108.044 178.677C109.931 178.677 111.461 177.147 111.461 175.259C111.461 173.372 109.931 171.842 108.044 171.842C106.156 171.842 104.626 173.372 104.626 175.259C104.626 177.147 106.156 178.677 108.044 178.677Z" fill="#FB8C00"/>
<path d="M288.452 222.341L285.289 223.517L279.249 211.873L283.919 210.138L288.452 222.341Z" fill="#FFB7B7"/>
<path d="M290.399 225.108L280.197 228.899L280.149 228.769C279.758 227.716 279.801 226.551 280.269 225.53C280.737 224.509 281.592 223.715 282.645 223.324L282.645 223.323L288.876 221.009L290.399 225.108Z" fill="#2F2E41"/>
<path d="M257.317 225.627L253.942 225.627L252.336 212.608L257.318 212.609L257.317 225.627Z" fill="#FFB7B7"/>
<path d="M257.903 228.899L247.02 228.898V228.76C247.02 227.637 247.466 226.56 248.261 225.765C249.055 224.971 250.132 224.525 251.256 224.525H251.256L257.903 224.525L257.903 228.899Z" fill="#2F2E41"/>
<path d="M272.769 135.34L271.668 133.137L262.308 137.817L262.583 139.744L260.794 142.084C260.794 142.084 257.766 143.736 258.316 149.242L258.867 154.473L259.555 161.218L254.737 177.873L252.26 199.897L250.47 217.654L259.142 217.241L267.126 188.334L281.166 219.443L290.801 216.965L277.587 186.132L275.935 173.193C275.935 173.193 277.037 166.311 271.806 161.631L272.632 159.153V156.1L275.385 141.534L272.769 135.34Z" fill="#2F2E41"/>
<path opacity="0.2" d="M273.027 166.817L266.97 188.291L267.282 188.378L273.338 166.905L273.027 166.817Z" fill="black"/>
<path d="M272.494 161.218H259.005V162.594H272.494V161.218Z" fill="#3F3D56"/>
<path d="M259.005 163.42C259.309 163.42 259.555 162.804 259.555 162.043C259.555 161.283 259.309 160.667 259.005 160.667C258.701 160.667 258.454 161.283 258.454 162.043C258.454 162.804 258.701 163.42 259.005 163.42Z" fill="#3F3D56"/>
<path d="M268.607 131.779C272.164 129.835 273.471 125.377 271.527 121.821C269.583 118.265 265.124 116.958 261.568 118.902C258.012 120.846 256.705 125.304 258.649 128.86C260.593 132.416 265.051 133.723 268.607 131.779Z" fill="#FFB7B7"/>
<path d="M276.317 122.721C279.902 122.721 282.809 119.814 282.809 116.229C282.809 112.644 279.902 109.737 276.317 109.737C272.732 109.737 269.825 112.644 269.825 116.229C269.825 119.814 272.732 122.721 276.317 122.721Z" fill="#2F2E41"/>
<path d="M284.555 115.533C284.812 116.394 284.886 117.297 284.776 118.188C284.665 119.079 284.37 119.937 283.911 120.708C283.452 121.479 282.838 122.146 282.108 122.668C281.377 123.19 280.547 123.554 279.669 123.739C278.79 123.924 277.883 123.924 277.005 123.741C276.127 123.557 275.296 123.193 274.565 122.672C273.834 122.152 273.219 121.485 272.759 120.714C272.299 119.944 272.004 119.086 271.892 118.196C272.357 119.757 273.392 121.087 274.792 121.921C276.192 122.755 277.855 123.031 279.449 122.696C281.044 122.361 282.454 121.438 283.4 120.111C284.346 118.784 284.759 117.15 284.555 115.533Z" fill="#2F2E41"/>
<path d="M258.909 123.303C258.718 124.981 259.086 126.675 259.956 128.123C260.826 129.57 262.149 130.69 263.721 131.31C265.292 131.929 267.023 132.013 268.647 131.548C270.271 131.083 271.696 130.096 272.701 128.739C273.707 127.383 274.237 125.732 274.21 124.044C274.182 122.355 273.598 120.723 272.549 119.399C271.499 118.076 270.043 117.136 268.405 116.725C266.767 116.313 265.039 116.454 263.489 117.124C262.207 116.09 260.617 116.41 259.325 117.502C257.864 118.735 257.43 119.583 256.297 121.612C257.411 121.768 257.794 123.147 258.909 123.303Z" fill="#2F2E41"/>
<path d="M285.883 145.371C285.801 147.546 285.638 151.827 285.638 152.045C285.638 152.275 282.393 158.995 280.991 161.887V161.888C280.891 162.092 280.801 162.277 280.722 162.439C280.614 162.664 280.443 162.852 280.231 162.983C280.019 163.113 279.773 163.18 279.524 163.176L273.397 163.066C273.061 163.06 272.739 162.924 272.5 162.687C272.261 162.45 272.123 162.129 272.114 161.793L271.431 134.838C271.429 134.749 271.444 134.661 271.477 134.578C271.509 134.495 271.558 134.42 271.62 134.356C271.682 134.292 271.756 134.242 271.838 134.207C271.92 134.172 272.008 134.155 272.097 134.155H279.998C280.332 134.155 280.659 134.249 280.941 134.426C281.224 134.604 281.451 134.857 281.596 135.158L285.388 143.003C285.744 143.74 285.914 144.553 285.883 145.371V145.371Z" fill="#FB8C00"/>
<path d="M272.008 159.943C270.436 158.99 269.023 157.796 267.821 156.405C265.03 153.265 263.332 149.305 262.983 145.118C262.671 141.535 263.382 138.873 265.096 137.203C267.273 135.081 270.238 135.39 270.363 135.404L270.496 135.419L272.504 137.118L271.936 137.79L270.139 136.269C269.589 136.242 267.343 136.236 265.702 137.84C264.192 139.317 263.572 141.74 263.859 145.041C264.192 149.028 265.804 152.8 268.456 155.795C269.6 157.118 270.941 158.257 272.432 159.172L272.008 159.943Z" fill="#FB8C00"/>
<path d="M283.408 149.702L272.703 151.901L272.762 152.188L283.467 149.989L283.408 149.702Z" fill="#3F3D56"/>
<path d="M276.353 134.148L276.06 134.16L276.755 151.194L277.048 151.183L276.353 134.148Z" fill="#3F3D56"/>
<path d="M285.882 145.371C285.8 147.546 285.637 151.827 285.637 152.045C285.637 152.276 282.392 158.995 280.99 161.887L283.603 146.713C283.705 146.13 283.959 145.583 284.34 145.13C284.722 144.677 285.217 144.333 285.775 144.134C285.863 144.54 285.899 144.956 285.882 145.371Z" fill="#3F3D56"/>
<path d="M269.827 177.17C270.058 176.872 270.222 176.527 270.305 176.159C270.389 175.791 270.39 175.409 270.31 175.04C270.23 174.671 270.07 174.325 269.842 174.024C269.613 173.724 269.322 173.477 268.988 173.302L269.519 167.427L266.027 166.233L265.394 174.541C265.136 175.122 265.101 175.777 265.294 176.382C265.487 176.987 265.896 177.501 266.442 177.825C266.989 178.149 267.635 178.261 268.259 178.141C268.883 178.02 269.441 177.675 269.827 177.17Z" fill="#FFB7B7"/>
<path d="M270.284 171.486L264.097 171.261L264.358 141.424C264.354 140.58 264.615 139.756 265.105 139.068C265.594 138.38 266.288 137.863 267.087 137.591C267.834 137.343 268.641 137.342 269.388 137.589C270.236 137.876 270.963 138.437 271.457 139.183C271.95 139.93 272.181 140.819 272.113 141.712L270.284 171.486Z" fill="#CBCBCB"/>
<path d="M324.559 229H201.294C201.208 229 201.126 228.966 201.065 228.905C201.005 228.845 200.971 228.762 200.971 228.677C200.971 228.591 201.005 228.508 201.065 228.448C201.126 228.387 201.208 228.353 201.294 228.353H324.559C324.645 228.353 324.727 228.387 324.788 228.448C324.848 228.508 324.882 228.591 324.882 228.677C324.882 228.762 324.848 228.845 324.788 228.905C324.727 228.966 324.645 229 324.559 229Z" fill="#CBCBCB"/>
</svg>
