<svg width="388" height="246" viewBox="0 0 388 246" fill="none" xmlns="http://www.w3.org/2000/svg">
<rect x="-1" width="389" height="246" fill="white"/>
<path d="M123.157 155.628C122.975 155.321 122.188 155.649 122.044 155.371C121.9 155.094 122.631 154.671 123.048 153.706C123.124 153.532 123.598 152.435 123.247 152.096C122.581 151.455 119.533 154.102 118.467 153.236C118.233 153.046 118.069 152.666 117.361 152.05C117.079 151.805 116.908 151.694 116.743 151.735C116.509 151.794 116.491 152.107 116.24 152.723C115.864 153.646 115.641 153.59 115.422 154.327C115.259 154.874 115.296 155.192 115.105 155.254C114.834 155.342 114.584 154.762 114.241 154.814C113.89 154.867 113.678 155.542 113.611 156.048C113.486 156.997 113.834 157.624 114.027 158.282C114.237 158.998 114.362 160.086 113.877 161.627L109.078 175.148C110.138 172.373 113.205 164.768 114.494 161.942C114.866 161.126 115.277 160.298 116.121 159.972C116.933 159.657 118.048 159.845 119.471 159.502C119.637 159.462 120.098 159.345 120.156 159.074C120.204 158.85 119.932 158.725 119.974 158.515C120.03 158.233 120.563 158.23 121.218 157.905C121.68 157.676 121.968 157.404 122.215 157.169C122.29 157.099 123.399 156.036 123.157 155.628H123.157Z" fill="#F2F2F2"/>
<path d="M104.277 162.745C104.074 162.746 104.008 163.227 103.83 163.218C103.652 163.209 103.656 162.728 103.302 162.244C103.239 162.157 102.837 161.608 102.57 161.683C102.063 161.824 102.483 164.084 101.75 164.358C101.589 164.418 101.355 164.388 100.848 164.558C100.647 164.626 100.543 164.677 100.516 164.77C100.477 164.902 100.625 165.001 100.855 165.302C101.2 165.753 101.108 165.847 101.407 166.167C101.628 166.405 101.795 166.478 101.77 166.59C101.735 166.748 101.378 166.703 101.305 166.887C101.23 167.074 101.5 167.373 101.729 167.552C102.159 167.887 102.567 167.897 102.945 167.992C103.357 168.096 103.927 168.349 104.544 169.031L109.795 175.288C108.739 173.967 105.892 170.267 104.876 168.819C104.583 168.401 104.296 167.961 104.379 167.452C104.459 166.963 104.873 166.47 105.115 165.673C105.143 165.58 105.219 165.32 105.102 165.213C105.006 165.125 104.867 165.222 104.776 165.141C104.654 165.032 104.806 164.769 104.835 164.354C104.856 164.061 104.805 163.842 104.762 163.652C104.749 163.595 104.547 162.744 104.277 162.745V162.745Z" fill="#F2F2F2"/>
<path d="M108.326 163.655L108.204 162.563L108.26 162.48C108.519 162.097 108.65 161.724 108.652 161.369C108.652 161.312 108.65 161.256 108.647 161.198C108.636 160.971 108.623 160.688 108.771 160.358C108.854 160.174 109.086 159.748 109.436 159.8C109.53 159.814 109.601 159.857 109.655 159.907C109.663 159.895 109.671 159.882 109.68 159.868C109.789 159.702 109.875 159.631 109.958 159.563C110.022 159.51 110.087 159.456 110.191 159.327C110.236 159.271 110.271 159.221 110.301 159.179C110.392 159.053 110.51 158.903 110.718 158.906C110.94 158.916 111.057 159.1 111.134 159.222C111.272 159.439 111.334 159.596 111.376 159.7C111.391 159.738 111.408 159.78 111.417 159.794C111.488 159.899 112.071 159.8 112.291 159.765C112.784 159.682 113.211 159.611 113.386 159.922C113.512 160.145 113.419 160.439 113.1 160.82C113.001 160.939 112.895 161.029 112.801 161.099C112.879 161.146 112.948 161.217 112.977 161.329C113.043 161.593 112.816 161.858 112.301 162.118C112.173 162.183 112.001 162.269 111.76 162.311C111.646 162.33 111.544 162.335 111.456 162.338C111.454 162.388 111.443 162.443 111.412 162.5C111.321 162.666 111.133 162.745 110.849 162.726C110.537 162.709 110.28 162.65 110.054 162.598C109.856 162.552 109.685 162.514 109.551 162.523C109.303 162.543 109.112 162.741 108.887 162.999L108.326 163.655Z" fill="#F2F2F2"/>
<path d="M108.894 157.154L107.869 157.549L107.775 157.516C107.339 157.363 106.944 157.331 106.601 157.419C106.546 157.433 106.492 157.45 106.437 157.467C106.22 157.535 105.949 157.62 105.592 157.561C105.394 157.527 104.923 157.41 104.885 157.059C104.874 156.965 104.898 156.885 104.933 156.82C104.919 156.815 104.904 156.81 104.889 156.806C104.7 156.742 104.61 156.677 104.522 156.614C104.455 156.566 104.386 156.516 104.235 156.449C104.169 156.419 104.112 156.397 104.065 156.379C103.92 156.324 103.745 156.248 103.694 156.045C103.648 155.828 103.796 155.668 103.895 155.563C104.07 155.374 104.205 155.274 104.295 155.208C104.328 155.183 104.365 155.156 104.376 155.144C104.46 155.048 104.216 154.51 104.126 154.306C103.921 153.85 103.744 153.455 104.001 153.206C104.184 153.028 104.492 153.044 104.942 153.256C105.082 153.322 105.196 153.401 105.288 153.474C105.313 153.387 105.364 153.302 105.465 153.246C105.704 153.115 106.018 153.267 106.4 153.7C106.495 153.807 106.622 153.951 106.724 154.174C106.771 154.279 106.802 154.377 106.827 154.461C106.876 154.45 106.932 154.447 106.994 154.463C107.178 154.508 107.302 154.67 107.356 154.949C107.419 155.255 107.427 155.519 107.434 155.752C107.44 155.954 107.446 156.129 107.489 156.256C107.571 156.492 107.812 156.626 108.118 156.778L108.894 157.154L108.894 157.154Z" fill="#F2F2F2"/>
<path d="M108.326 153.938L108.204 152.846L108.26 152.763C108.519 152.38 108.65 152.007 108.652 151.652C108.652 151.596 108.65 151.539 108.647 151.482C108.636 151.254 108.623 150.971 108.771 150.641C108.854 150.457 109.086 150.031 109.436 150.084C109.53 150.097 109.601 150.14 109.655 150.191C109.663 150.178 109.671 150.165 109.68 150.152C109.789 149.986 109.875 149.914 109.958 149.846C110.022 149.793 110.087 149.739 110.191 149.61C110.236 149.554 110.271 149.504 110.301 149.463C110.392 149.337 110.51 149.186 110.718 149.189C110.94 149.2 111.057 149.384 111.134 149.505C111.272 149.722 111.334 149.879 111.376 149.983C111.391 150.021 111.408 150.064 111.417 150.077C111.488 150.182 112.071 150.084 112.291 150.048C112.784 149.966 113.211 149.894 113.386 150.205C113.512 150.428 113.419 150.722 113.1 151.103C113.001 151.222 112.895 151.312 112.801 151.383C112.879 151.429 112.948 151.5 112.977 151.612C113.043 151.877 112.816 152.142 112.301 152.401C112.173 152.466 112.001 152.552 111.76 152.594C111.646 152.614 111.544 152.618 111.456 152.621C111.454 152.671 111.443 152.726 111.412 152.783C111.321 152.949 111.133 153.028 110.849 153.009C110.537 152.993 110.28 152.933 110.054 152.881C109.856 152.835 109.685 152.797 109.551 152.806C109.303 152.826 109.112 153.025 108.887 153.282L108.326 153.938Z" fill="#F2F2F2"/>
<path d="M109.444 175.13L109.215 174.987L109.159 174.722L109.215 174.987L108.948 175.017C108.944 174.992 108.929 174.935 108.907 174.846C108.788 174.358 108.424 172.873 108.12 170.533C107.908 168.9 107.788 167.221 107.764 165.542C107.739 163.86 107.819 162.587 107.882 161.564C107.931 160.792 107.989 160.057 108.047 159.341C108.199 157.429 108.344 155.622 108.236 153.622C108.213 153.175 108.163 152.246 107.62 151.257C107.305 150.683 106.871 150.174 106.33 149.744L106.666 149.321C107.263 149.797 107.743 150.361 108.093 150.998C108.695 152.094 108.75 153.107 108.776 153.593C108.885 155.629 108.739 157.453 108.585 159.384C108.528 160.097 108.469 160.829 108.421 161.598C108.358 162.611 108.279 163.873 108.304 165.533C108.328 167.192 108.446 168.851 108.655 170.463C108.955 172.774 109.314 174.237 109.432 174.718C109.495 174.974 109.508 175.028 109.444 175.13H109.444Z" fill="#F2F2F2"/>
<path d="M105.341 150.602C105.318 150.602 105.296 150.601 105.273 150.6C104.814 150.575 104.388 150.3 104.008 149.782C103.83 149.539 103.739 149.261 103.557 148.707C103.528 148.621 103.391 148.188 103.308 147.592C103.254 147.202 103.26 147.039 103.338 146.895C103.423 146.735 103.562 146.623 103.718 146.548C103.711 146.496 103.717 146.443 103.739 146.389C103.831 146.164 104.076 146.193 104.208 146.207C104.275 146.216 104.358 146.227 104.449 146.222C104.59 146.215 104.667 146.173 104.782 146.11C104.892 146.049 105.03 145.974 105.234 145.932C105.635 145.848 105.972 145.962 106.083 146C106.667 146.194 106.955 146.648 107.288 147.174C107.354 147.279 107.582 147.663 107.733 148.189C107.841 148.569 107.826 148.737 107.793 148.863C107.727 149.121 107.57 149.268 107.172 149.594C106.756 149.935 106.547 150.106 106.368 150.21C105.951 150.451 105.689 150.602 105.341 150.602Z" fill="#F2F2F2"/>
<path d="M276.925 155.973C276.743 155.666 275.956 155.995 275.811 155.716C275.667 155.439 276.398 155.017 276.816 154.051C276.891 153.877 277.366 152.78 277.014 152.442C276.348 151.8 273.301 154.448 272.234 153.581C272 153.391 271.837 153.012 271.128 152.395C270.846 152.15 270.676 152.039 270.511 152.081C270.277 152.139 270.258 152.452 270.007 153.068C269.631 153.992 269.409 153.936 269.189 154.673C269.027 155.22 269.064 155.538 268.872 155.6C268.601 155.687 268.352 155.107 268.008 155.159C267.658 155.212 267.446 155.888 267.379 156.394C267.253 157.343 267.602 157.969 267.795 158.628C268.005 159.343 268.129 160.432 267.645 161.972L262.846 175.493C263.905 172.719 266.973 165.113 268.262 162.287C268.634 161.471 269.045 160.644 269.888 160.317C270.701 160.003 271.816 160.19 273.238 159.848C273.404 159.808 273.865 159.691 273.923 159.419C273.971 159.195 273.7 159.07 273.742 158.86C273.798 158.579 274.331 158.575 274.986 158.25C275.448 158.021 275.736 157.749 275.983 157.515C276.058 157.444 277.167 156.381 276.925 155.973Z" fill="#F2F2F2"/>
<path d="M258.044 163.091C257.841 163.092 257.776 163.573 257.597 163.563C257.42 163.554 257.423 163.073 257.07 162.59C257.006 162.503 256.605 161.953 256.337 162.028C255.83 162.17 256.25 164.429 255.517 164.703C255.356 164.763 255.123 164.734 254.616 164.904C254.414 164.971 254.311 165.023 254.284 165.116C254.245 165.247 254.393 165.347 254.623 165.648C254.968 166.099 254.876 166.192 255.174 166.512C255.396 166.75 255.563 166.824 255.538 166.935C255.503 167.094 255.146 167.049 255.072 167.232C254.997 167.42 255.268 167.719 255.497 167.897C255.926 168.233 256.334 168.243 256.713 168.338C257.125 168.441 257.695 168.694 258.311 169.377L263.563 175.633C262.507 174.313 259.659 170.613 258.644 169.165C258.351 168.747 258.063 168.306 258.146 167.798C258.226 167.308 258.64 166.815 258.883 166.018C258.911 165.925 258.986 165.665 258.87 165.558C258.774 165.47 258.634 165.567 258.543 165.486C258.421 165.378 258.573 165.115 258.603 164.7C258.624 164.407 258.573 164.187 258.529 163.998C258.516 163.941 258.315 163.09 258.044 163.091V163.091Z" fill="#F2F2F2"/>
<path d="M262.094 164L261.972 162.908L262.028 162.825C262.286 162.443 262.418 162.069 262.42 161.714C262.42 161.658 262.417 161.601 262.414 161.544C262.404 161.316 262.391 161.033 262.538 160.703C262.621 160.519 262.854 160.093 263.203 160.146C263.297 160.159 263.368 160.202 263.422 160.253C263.43 160.24 263.439 160.228 263.447 160.214C263.556 160.048 263.642 159.977 263.725 159.908C263.789 159.855 263.855 159.801 263.958 159.672C264.004 159.616 264.039 159.567 264.069 159.525C264.159 159.399 264.277 159.249 264.485 159.251C264.708 159.262 264.824 159.446 264.902 159.568C265.04 159.785 265.102 159.941 265.143 160.045C265.158 160.083 265.176 160.126 265.184 160.139C265.256 160.244 265.839 160.146 266.058 160.11C266.551 160.028 266.978 159.957 267.154 160.268C267.28 160.49 267.186 160.784 266.868 161.165C266.768 161.284 266.662 161.374 266.569 161.445C266.646 161.491 266.716 161.562 266.744 161.674C266.811 161.939 266.583 162.204 266.068 162.463C265.94 162.528 265.768 162.615 265.527 162.656C265.414 162.676 265.311 162.681 265.224 162.683C265.222 162.734 265.21 162.789 265.179 162.845C265.089 163.011 264.901 163.09 264.617 163.071C264.305 163.055 264.048 162.995 263.821 162.943C263.623 162.898 263.453 162.859 263.319 162.868C263.071 162.888 262.879 163.087 262.655 163.345L262.094 164Z" fill="#F2F2F2"/>
<path d="M262.662 157.5L261.637 157.895L261.543 157.862C261.107 157.709 260.712 157.676 260.368 157.765C260.314 157.779 260.26 157.795 260.205 157.813C259.987 157.881 259.717 157.965 259.36 157.906C259.161 157.873 258.69 157.756 258.652 157.404C258.641 157.31 258.665 157.23 258.7 157.165C258.686 157.161 258.672 157.156 258.656 157.151C258.468 157.088 258.377 157.023 258.29 156.96C258.223 156.911 258.154 156.861 258.003 156.794C257.937 156.764 257.88 156.743 257.832 156.725C257.687 156.669 257.512 156.593 257.462 156.391C257.416 156.173 257.564 156.014 257.662 155.908C257.837 155.72 257.973 155.619 258.063 155.553C258.096 155.529 258.133 155.502 258.143 155.49C258.227 155.394 257.984 154.855 257.894 154.652C257.689 154.196 257.512 153.801 257.768 153.552C257.951 153.374 258.26 153.389 258.709 153.601C258.849 153.667 258.963 153.747 259.055 153.82C259.08 153.733 259.132 153.647 259.233 153.592C259.472 153.46 259.786 153.613 260.167 154.045C260.263 154.152 260.39 154.297 260.491 154.52C260.539 154.625 260.569 154.722 260.594 154.806C260.644 154.795 260.7 154.793 260.762 154.808C260.946 154.854 261.07 155.016 261.123 155.295C261.187 155.601 261.194 155.864 261.201 156.097C261.208 156.3 261.214 156.475 261.256 156.602C261.339 156.837 261.58 156.972 261.886 157.124L262.662 157.5L262.662 157.5Z" fill="#F2F2F2"/>
<path d="M262.094 154.283L261.972 153.191L262.028 153.109C262.286 152.726 262.418 152.352 262.42 151.997C262.42 151.941 262.417 151.885 262.414 151.827C262.404 151.599 262.391 151.316 262.538 150.986C262.621 150.802 262.854 150.376 263.203 150.429C263.297 150.442 263.368 150.485 263.422 150.536C263.43 150.523 263.439 150.511 263.447 150.497C263.556 150.331 263.642 150.26 263.725 150.191C263.789 150.139 263.855 150.084 263.958 149.956C264.004 149.899 264.039 149.85 264.069 149.808C264.159 149.682 264.277 149.532 264.485 149.534C264.708 149.545 264.824 149.729 264.902 149.851C265.04 150.068 265.102 150.225 265.143 150.328C265.158 150.366 265.176 150.409 265.184 150.422C265.256 150.528 265.839 150.429 266.058 150.393C266.551 150.311 266.978 150.24 267.154 150.551C267.28 150.773 267.186 151.067 266.868 151.449C266.768 151.567 266.662 151.657 266.569 151.728C266.646 151.774 266.716 151.846 266.744 151.957C266.811 152.222 266.583 152.487 266.068 152.747C265.94 152.811 265.768 152.898 265.527 152.939C265.414 152.959 265.311 152.964 265.224 152.966C265.222 153.017 265.21 153.072 265.179 153.128C265.089 153.294 264.901 153.373 264.617 153.354C264.305 153.338 264.048 153.278 263.821 153.226C263.623 153.181 263.453 153.142 263.319 153.151C263.071 153.171 262.879 153.37 262.655 153.628L262.094 154.283Z" fill="#F2F2F2"/>
<path d="M263.211 175.476L262.982 175.332L262.927 175.068L262.982 175.332L262.716 175.363C262.711 175.338 262.697 175.281 262.675 175.192C262.556 174.704 262.192 173.218 261.888 170.879C261.676 169.246 261.556 167.567 261.531 165.888C261.507 164.206 261.586 162.933 261.65 161.909C261.698 161.138 261.757 160.403 261.814 159.687C261.967 157.774 262.111 155.968 262.004 153.968C261.98 153.521 261.93 152.592 261.387 151.603C261.072 151.029 260.639 150.52 260.098 150.09L260.434 149.667C261.031 150.142 261.511 150.707 261.861 151.343C262.463 152.44 262.517 153.453 262.543 153.939C262.652 155.975 262.507 157.799 262.352 159.73C262.295 160.443 262.237 161.175 262.189 161.943C262.125 162.957 262.047 164.219 262.071 165.879C262.095 167.538 262.214 169.197 262.423 170.809C262.723 173.119 263.082 174.583 263.2 175.063C263.262 175.32 263.275 175.374 263.211 175.476Z" fill="#F2F2F2"/>
<path d="M259.108 150.947C259.086 150.947 259.064 150.947 259.041 150.945C258.581 150.92 258.156 150.645 257.775 150.128C257.597 149.884 257.506 149.606 257.324 149.052C257.296 148.967 257.159 148.533 257.076 147.937C257.021 147.548 257.028 147.385 257.105 147.241C257.191 147.081 257.329 146.969 257.486 146.893C257.479 146.842 257.484 146.788 257.507 146.734C257.599 146.509 257.843 146.539 257.976 146.553C258.042 146.561 258.126 146.572 258.216 146.568C258.358 146.561 258.434 146.519 258.55 146.455C258.66 146.395 258.797 146.319 259.001 146.278C259.403 146.194 259.739 146.308 259.85 146.345C260.434 146.54 260.722 146.994 261.055 147.519C261.122 147.625 261.35 148.008 261.5 148.534C261.609 148.914 261.593 149.083 261.561 149.208C261.494 149.466 261.338 149.614 260.939 149.939C260.523 150.28 260.315 150.451 260.135 150.555C259.718 150.796 259.456 150.947 259.108 150.947Z" fill="#F2F2F2"/>
<path d="M188.684 93.4159C201.661 93.4159 212.181 82.896 212.181 69.9189C212.181 56.9419 201.661 46.4219 188.684 46.4219C175.707 46.4219 165.187 56.9419 165.187 69.9189C165.187 82.896 175.707 93.4159 188.684 93.4159Z" fill="#FF0000"/>
<path d="M279.466 174.987C279.466 175.147 279.336 175.277 279.176 175.277H78V174.696H279.176C279.336 174.696 279.466 174.826 279.466 174.987V174.987Z" fill="#E6E6E6"/>
<path d="M249.154 174.965C249.154 188.132 250.536 197.77 236.196 198.807C220.797 199.92 223.238 188.132 223.238 174.965C223.238 161.797 221.165 148.703 236.196 151.122C243.262 152.259 249.154 161.797 249.154 174.965Z" fill="#3F3D56"/>
<path d="M227.384 191.551C228.529 191.551 229.457 184.125 229.457 174.965C229.457 165.804 228.529 158.378 227.384 158.378C226.239 158.378 225.311 165.804 225.311 174.965C225.311 184.125 226.239 191.551 227.384 191.551Z" fill="#E6E6E6"/>
<path d="M145.365 153.76C145.365 165.38 146.585 173.885 133.93 174.8C120.341 175.783 122.495 165.38 122.495 153.76C122.495 142.139 120.665 130.584 133.93 132.719C140.165 133.722 145.365 142.139 145.365 153.76Z" fill="#3F3D56"/>
<path d="M126.154 168.396C127.164 168.396 127.983 161.843 127.983 153.76C127.983 145.676 127.164 139.123 126.154 139.123C125.143 139.123 124.324 145.676 124.324 153.76C124.324 161.843 125.143 168.396 126.154 168.396Z" fill="#E6E6E6"/>
<path d="M165.013 174.792C165.013 187.96 166.395 197.598 152.055 198.634C136.657 199.747 139.097 187.96 139.097 174.792C139.097 161.624 137.024 148.53 152.055 150.949C159.121 152.086 165.013 161.624 165.013 174.792Z" fill="#3F3D56"/>
<path d="M143.244 191.378C144.389 191.378 145.317 183.952 145.317 174.792C145.317 165.631 144.389 158.206 143.244 158.206C142.099 158.206 141.171 165.631 141.171 174.792C141.171 183.952 142.099 191.378 143.244 191.378Z" fill="#E6E6E6"/>
<path d="M124.066 125.897V134.071L121.82 137.818L122.511 150.949L123.071 151.295L122.684 137.991C126.621 136.526 127.908 139.225 127.522 144.557L126.831 153.541L137.888 160.452L139.27 146.284L144.453 143.865L150.155 167.881H245.68C249.618 167.881 252.765 164.604 252.605 160.67L251.4 130.908L248.147 127.655L245.134 92.8016C244.382 84.1099 237.012 77.4944 228.29 77.6824L168.534 78.9702C165.292 79.0401 162.089 79.6928 159.078 80.897L144.626 86.6779L135.298 96.0062L133.914 118.468L130.387 118.161C127.85 117.941 125.536 119.617 124.956 122.097L124.066 125.897H124.066Z" fill="#E6E6E6"/>
<path d="M154.993 158.206C156.901 158.206 158.448 156.659 158.448 154.75C158.448 152.842 156.901 151.295 154.993 151.295C153.084 151.295 151.537 152.842 151.537 154.75C151.537 156.659 153.084 158.206 154.993 158.206Z" fill="#3F3D56"/>
<path d="M162.94 158.206C164.848 158.206 166.395 156.659 166.395 154.75C166.395 152.842 164.848 151.295 162.94 151.295C161.031 151.295 159.484 152.842 159.484 154.75C159.484 156.659 161.031 158.206 162.94 158.206Z" fill="#3F3D56"/>
<path d="M240.342 158.206C242.251 158.206 243.798 156.659 243.798 154.75C243.798 152.842 242.251 151.295 240.342 151.295C238.434 151.295 236.887 152.842 236.887 154.75C236.887 156.659 238.434 158.206 240.342 158.206Z" fill="#3F3D56"/>
<path d="M248.289 158.206C250.198 158.206 251.745 156.659 251.745 154.75C251.745 152.842 250.198 151.295 248.289 151.295C246.381 151.295 244.834 152.842 244.834 154.75C244.834 156.659 246.381 158.206 248.289 158.206Z" fill="#3F3D56"/>
<path d="M242.897 122.293H161.662C161.041 122.293 160.462 122.046 160.034 121.597C159.605 121.147 159.385 120.558 159.415 119.938L160.602 94.8425C160.658 93.656 161.632 92.7146 162.82 92.6994L239.525 91.712C240.658 91.7012 241.64 92.5411 241.785 93.6753L245.128 119.758C245.21 120.399 245.013 121.045 244.586 121.53C244.159 122.015 243.543 122.293 242.897 122.293H242.897Z" fill="white"/>
<path d="M150.32 121.06H145.049C144.424 121.06 143.822 120.796 143.397 120.337C142.973 119.878 142.758 119.257 142.807 118.633L144.324 99.3793C144.407 98.3221 145.198 97.4788 146.248 97.329L151.695 96.5508C152.377 96.454 153.056 96.6689 153.557 97.142C154.058 97.6155 154.312 98.2806 154.254 98.9673L152.562 118.999C152.462 120.174 151.499 121.06 150.32 121.06V121.06Z" fill="white"/>
<path d="M138.199 120.57C138.144 120.57 138.089 120.568 138.034 120.565L137.416 120.52C136.804 120.476 136.25 120.194 135.855 119.726C135.46 119.257 135.277 118.663 135.338 118.053L137.04 101.026C137.141 100.018 137.909 99.1981 138.909 99.0314C139.59 98.917 140.274 99.1182 140.786 99.5811C141.299 100.043 141.567 100.704 141.523 101.393L140.44 118.463C140.401 119.066 140.13 119.617 139.674 120.015C139.261 120.376 138.742 120.57 138.199 120.57L138.199 120.57Z" fill="white"/>
<path d="M129.628 155.308L128.731 135.745C128.731 135.745 126.658 132.981 125.276 133.672C123.894 134.363 121.841 138.206 121.841 138.206C121.841 138.206 125.847 137.944 125.734 142.2C125.621 146.457 126.421 153.344 126.421 153.344L129.628 155.308Z" fill="#CCCCCC"/>
<path d="M137.973 160.419L138.407 145.824L142.802 140.633C142.802 140.633 148.677 139.364 148.552 146.02C148.428 152.677 150.328 168.054 150.328 168.054L146.033 165.356C146.033 165.356 144.972 148.876 141.862 147.148C138.752 145.42 139.789 146.803 139.789 146.803L137.973 160.419H137.973Z" fill="#CCCCCC"/>
<path d="M133.395 123.006L129.989 121.059H130.361C130.892 121.059 131.323 120.629 131.323 120.098V111.655C131.323 111.124 130.892 110.693 130.361 110.693H126.756C126.225 110.693 125.794 111.124 125.794 111.655V120.098C125.794 120.629 126.225 121.059 126.756 121.059H128.596L133.052 123.605L133.395 123.005V123.006Z" fill="#3F3D56"/>
<path d="M137.996 135.656L135.339 134.892C134.697 134.707 134.027 135.078 133.843 135.72C133.658 136.362 134.029 137.032 134.671 137.216L137.327 137.98C137.969 138.165 138.639 137.794 138.824 137.152C139.008 136.51 138.638 135.84 137.996 135.656Z" fill="#3F3D56"/>
<path d="M246.226 111.125L234.866 110.635C234.199 110.606 233.635 111.123 233.606 111.791C233.577 112.458 234.095 113.022 234.762 113.051L246.122 113.542C246.789 113.57 247.353 113.053 247.382 112.385C247.411 111.718 246.893 111.154 246.226 111.125Z" fill="#3F3D56"/>
<path d="M256.938 133.931L245.578 133.441C244.911 133.412 244.347 133.929 244.318 134.597C244.289 135.264 244.807 135.828 245.474 135.857L256.834 136.347C257.501 136.376 258.065 135.859 258.094 135.191C258.123 134.524 257.605 133.96 256.938 133.931Z" fill="#3F3D56"/>
<path d="M210.626 160.279C225.129 160.279 236.887 148.521 236.887 134.017C236.887 119.514 225.129 107.756 210.626 107.756C196.122 107.756 184.364 119.514 184.364 134.017C184.364 148.521 196.122 160.279 210.626 160.279Z" fill="#3F3D56"/>
<path d="M210.626 149.567C219.213 149.567 226.175 142.605 226.175 134.018C226.175 125.43 219.213 118.468 210.626 118.468C202.038 118.468 195.076 125.43 195.076 134.018C195.076 142.605 202.038 149.567 210.626 149.567Z" fill="#E6E6E6"/>
<path d="M245.419 81.8633C245.551 83.3962 246.449 84.5706 247.425 84.4864C248.4 84.4021 249.084 83.0912 248.951 81.5577C248.907 80.9444 248.716 80.3507 248.395 79.8262L247.753 73.3381L244.715 73.7043L245.67 80.0616C245.444 80.6335 245.358 81.2513 245.419 81.8633L245.419 81.8633Z" fill="#FFB6B6"/>
<path d="M236.625 44.305C236.625 44.305 239.977 43.3607 241.266 44.9595C242.555 46.5583 247.361 62.2587 247.361 62.2587L248.854 79.1563L244.095 77.7162L242.242 64.3901L239.133 57.4792L236.625 44.305Z" fill="#FB8C00"/>
<path d="M235.532 34.1404H225.314V43.829H235.532V34.1404Z" fill="#2F2E41"/>
<path d="M230.315 39.0765C233.066 39.0765 235.296 36.8462 235.296 34.0949C235.296 31.3436 233.066 29.1133 230.315 29.1133C227.563 29.1133 225.333 31.3436 225.333 34.0949C225.333 36.8462 227.563 39.0765 230.315 39.0765Z" fill="#FFB6B6"/>
<path d="M227.956 26.0371C224.773 26.5299 224.924 27.713 223.905 28.3271C222.109 29.4092 221.4 32.5337 222.349 34.5955C222.602 35.1464 223.136 35.8979 222.877 36.7094C222.678 37.3323 222.104 37.6998 221.996 37.7663C221.114 38.311 221.69 37.663 221.292 38.1186C220.852 38.6215 221.533 39.3319 221.116 40.2325C220.745 41.0309 219.982 40.9635 219.882 41.4656C219.712 42.3301 221.672 44.0685 223.758 43.9318C225.615 43.8101 226.995 42.2398 227.457 40.761C227.767 39.7704 227.9 38.0664 227.105 37.2379C226.993 37.1217 226.688 36.8402 226.4 36.3571C226.172 35.9747 225.872 35.4714 226.048 35.124C226.235 34.7538 226.767 34.9487 227.105 34.5955C227.564 34.1166 227.019 33.3074 227.105 32.4816C227.251 31.0833 229.232 29.4015 231.333 29.6631C233.715 29.9599 234.589 32.5508 234.68 32.834C234.867 33.4208 234.863 33.9885 234.856 35.124C234.845 36.7535 234.838 37.7748 234.327 38.8233C233.592 40.3313 232.656 40.1684 232.39 41.2894C231.974 43.0374 233.928 44.7928 234.151 44.9887C235.808 46.4408 238.309 46.8774 238.731 46.2218C239.111 45.631 237.443 44.712 237.498 42.8748C237.546 41.2828 238.834 40.7974 238.555 39.704C238.247 38.5005 236.606 38.775 235.913 37.414C235.265 36.1436 236.458 35.4388 236.265 32.834C236.224 32.2829 236.051 30.7015 235.032 29.1347C234.583 28.4444 234.126 27.7424 233.27 27.3731C232.312 26.9597 229.641 25.7765 227.956 26.0371V26.0371Z" fill="#2F2E41"/>
<path d="M225.843 30.4411C225.972 31.5319 227.61 32.0665 228.309 32.2026C228.605 32.2603 229.606 32.4552 230.599 32.0265C230.966 31.868 231.1 31.7247 231.48 31.6742C231.994 31.6058 232.253 31.8013 233.065 32.0265C233.969 32.2769 234.42 32.4022 234.651 32.2026C235.027 31.8765 234.738 30.8095 234.298 30.0888C233.486 28.7562 231.998 28.3435 231.304 28.1511C230.511 27.9312 228.902 27.4849 227.428 28.3272C227.231 28.4398 225.712 29.3328 225.843 30.4411V30.4411Z" fill="#2F2E41"/>
<path d="M250.092 128.453L252.634 128.513L254.052 117.09L250.299 117.002L250.092 128.453Z" fill="#FFB6B6"/>
<path d="M258.815 133.758C258.815 134.187 258.51 134.536 258.134 134.536H253.087C253.087 134.536 252.59 132.539 250.565 131.68L250.426 134.536H247.822L248.138 129.944C248.138 129.944 247.441 127.488 248.888 126.232C250.334 124.976 249.162 125.151 249.162 125.151L249.731 122.309L253.666 122.772L253.695 127.233L255.604 131.661L258.404 133.044C258.653 133.167 258.815 133.448 258.815 133.758L258.815 133.758H258.815Z" fill="#2F2E41"/>
<path d="M238.531 106.08L241.017 105.545L239.729 94.1069L236.06 94.8965L238.531 106.08Z" fill="#FFB6B6"/>
<path d="M248.251 109.202C248.351 109.619 248.136 110.029 247.771 110.117L242.863 111.295C242.863 111.295 241.914 109.47 239.745 109.107L240.275 111.916L237.744 112.524L236.979 107.986C236.979 107.986 235.728 105.76 236.841 104.201C237.955 102.642 236.856 103.086 236.856 103.086L236.746 100.19L240.68 99.7212L241.749 104.052L244.639 107.912L247.685 108.604C247.956 108.665 248.179 108.9 248.251 109.202H248.251V109.202Z" fill="#2F2E41"/>
<path d="M233.777 39.6838L227.557 40.0294L225.829 43.4848L219.264 46.9403L220.3 63.9794L217.932 72.5497L218.227 74.9294L241.379 74.2383L239.996 48.668L240.342 44.5215L235.85 43.1393L233.777 39.6838Z" fill="#FB8C00"/>
<path d="M218.4 71.6467C218.4 71.6467 213.217 80.805 218.4 82.1001C220.706 82.6762 223.149 83.0644 225.15 83.3179C227.546 83.6214 229.752 81.9766 230.149 79.5942L235.678 98.5991L241.206 97.217L242.243 87.3241L248.961 94.0418L248.117 121.06L254.337 120.714L260.902 91.3427C260.902 91.3427 261.248 89.2694 256.065 86.5051C250.882 83.7407 241.552 74.7566 241.552 74.7566L225.657 69.9189L218.4 71.6467Z" fill="#2F2E41"/>
<path d="M229.285 77.6936L220.301 71.8194L231.358 60.0708C231.358 60.0708 237.578 57.652 239.306 66.9817C241.033 76.3114 242.07 84.6045 242.07 84.6045L229.285 77.6936Z" fill="#2F2E41"/>
<path d="M210.748 60.1566L211.142 57.4793C211.429 55.5281 210.135 53.8252 208.379 53.4061V52.2961C208.379 51.3419 207.606 50.5684 206.652 50.5684C205.698 50.5684 204.924 51.3419 204.924 52.2961V53.7767L198.359 55.1693V53.3327C198.359 52.3785 197.585 51.605 196.631 51.605C195.677 51.605 194.903 52.3785 194.903 53.3327V55.0783L194.251 54.908C192.301 54.3995 190.762 56.6359 191.974 58.2446C191.99 58.2654 192.005 58.2862 192.022 58.3071C193.64 60.3878 194.102 62.2373 194.102 62.2373L192.946 68.4795L194.263 81.4573C194.433 83.13 195.872 84.3833 197.552 84.3211L210.335 83.8476C212.014 83.7854 213.358 82.4318 213.404 80.7525C213.566 74.7709 213.585 61.7524 210.748 60.1566V60.1566Z" fill="#3F3D56"/>
<path d="M199.303 82.5809C199.124 82.5809 198.973 82.4427 198.959 82.2612L198.266 73.0135C198.251 72.8232 198.394 72.6573 198.584 72.6431C198.773 72.6283 198.941 72.7715 198.955 72.9619L199.648 82.2096C199.663 82.3999 199.52 82.5657 199.33 82.5799C199.321 82.5806 199.312 82.5809 199.303 82.5809Z" fill="#FFB6B6"/>
<path d="M194.102 62.5828C193.933 62.5828 193.786 62.4592 193.761 62.2874C193.733 62.0986 193.863 61.9231 194.052 61.8955L210.752 59.448C210.941 59.4206 211.116 59.5509 211.144 59.7397C211.172 59.9285 211.041 60.104 210.852 60.1316L194.152 62.5791C194.135 62.5817 194.119 62.5828 194.102 62.5828Z" fill="#FFB6B6"/>
<path d="M289.235 123.336L289.393 110.988L284.653 109.685L284.797 123.338L283.706 133.427L283.735 133.438C283.277 133.898 282.907 134.631 282.749 135.499C282.46 137.081 282.989 138.503 283.928 138.674C284.868 138.845 285.864 137.701 286.152 136.118C286.27 135.469 286.249 134.848 286.12 134.328L286.162 134.343L289.235 123.336Z" fill="#A0616A"/>
<path d="M280.614 94.3106C280.614 94.3106 282.765 92.6657 284.283 95.0698C285.802 97.4739 289.977 109.621 289.977 109.621C289.977 109.621 291.185 115.189 290.898 116.011C290.61 116.833 290.23 124.072 290.23 124.072L284.298 122.996L284.441 116.011L278.788 106.987L280.614 94.3106V94.3106Z" fill="#CCCCCC"/>
<path d="M240.882 89.8262L249.196 98.957L253.549 96.6739L244.123 86.7951L238.032 78.6783L238.004 78.6899C238.025 78.0419 237.795 77.2525 237.318 76.5109C236.448 75.1576 235.091 74.4794 234.288 74.9959C233.484 75.5124 233.538 77.0282 234.408 78.3815C234.765 78.937 235.205 79.3763 235.654 79.6683L235.612 79.6856L240.882 89.8262H240.882Z" fill="#A0616A"/>
<path d="M267.471 105.15C267.471 105.15 267.022 107.821 264.271 107.1C261.52 106.38 250.177 100.355 250.177 100.355C250.177 100.355 245.493 97.1112 245.142 96.314C244.79 95.5168 240.126 89.9682 240.126 89.9682L245.196 86.7043L249.859 91.9064L260.151 94.6406L267.471 105.15V105.15Z" fill="#CCCCCC"/>
<path d="M269.047 87.3304C272.693 87.3304 275.649 84.3743 275.649 80.7278C275.649 77.0813 272.693 74.1252 269.047 74.1252C265.4 74.1252 262.444 77.0813 262.444 80.7278C262.444 84.3743 265.4 87.3304 269.047 87.3304Z" fill="#A0616A"/>
<path d="M280.629 196.394L276.531 196.393L274.582 180.587L280.63 180.587L280.629 196.394Z" fill="#A0616A"/>
<path d="M266.589 196.301C266.462 196.516 266.395 197.209 266.395 197.459C266.395 198.227 267.017 198.85 267.785 198.85H280.476C281 198.85 281.425 198.425 281.425 197.901V197.373C281.425 197.373 282.053 195.785 280.76 193.827C280.76 193.827 279.154 195.36 276.753 192.96L276.045 191.677L270.921 195.425L268.081 195.774C267.46 195.851 266.909 195.762 266.589 196.301H266.589Z" fill="#2F2E41"/>
<path d="M268.881 196.394L264.783 196.393L262.834 180.587L268.882 180.587L268.881 196.394Z" fill="#A0616A"/>
<path d="M254.841 196.301C254.714 196.516 254.646 197.209 254.646 197.459C254.646 198.227 255.269 198.85 256.037 198.85H268.728C269.252 198.85 269.677 198.425 269.677 197.901V197.373C269.677 197.373 270.305 195.785 269.012 193.827C269.012 193.827 267.406 195.36 265.005 192.96L264.297 191.677L259.173 195.425L256.333 195.774C255.712 195.851 255.161 195.762 254.841 196.301H254.841Z" fill="#2F2E41"/>
<path d="M283.536 127.798L256.929 129.18L262.803 189.305L268.677 188.959L270.75 152.677L271.614 139.719L275.138 187.965L281.117 187.922L283.536 127.798Z" fill="#2F2E41"/>
<path d="M275.654 89.0965L265.576 88.751L258.829 95.4605V117.441L256.194 131.253C256.194 131.253 273.916 129.525 277.391 132.981C280.866 136.436 287.121 134.017 287.121 134.017L283.993 115.743L282.603 94.6252L275.654 89.0965Z" fill="#CCCCCC"/>
<path d="M271.954 87.1961L266.337 85.8691L265.47 82.4637C265.47 82.4637 265.449 80.8584 264.691 80.6794C263.933 80.5003 262.597 79.3844 262.597 79.3844L263.892 77.2898C263.892 77.2898 260.771 76.9526 261.708 76.3737C262.645 75.7949 262.78 76.0557 262.913 74.6581C263.188 71.7664 272.037 72.1885 272.724 73.7751C272.724 73.7751 273.861 74.0436 274.439 74.9806C275.018 75.9175 275.308 76.3859 275.687 76.4754C276.066 76.565 276.265 77.4124 276.265 77.4124C276.265 77.4124 277.602 78.5283 277.134 78.8177C276.665 79.1072 276.307 80.6229 276.307 80.6229C276.307 80.6229 277.554 82.1178 274.764 85.4596L273.278 87.8508L271.954 87.1961V87.1961Z" fill="#2F2E41"/>
<path d="M279.166 96.9066L279.56 94.2293C279.847 92.2781 278.553 90.5752 276.797 90.1561V89.0461C276.797 88.0919 276.024 87.3184 275.07 87.3184C274.116 87.3184 273.342 88.0919 273.342 89.0461V90.5267L266.777 91.9193V90.0827C266.777 89.1285 266.003 88.355 265.049 88.355C264.095 88.355 263.321 89.1285 263.321 90.0827V91.8283L262.669 91.658C260.719 91.1495 259.18 93.3859 260.392 94.9946C260.408 95.0154 260.423 95.0362 260.44 95.0571C262.058 97.1378 262.52 98.9873 262.52 98.9873L261.364 105.229L262.681 118.207C262.851 119.88 264.29 121.133 265.97 121.071L278.753 120.598C280.432 120.535 281.776 119.182 281.822 117.503C281.984 111.521 282.003 98.5024 279.166 96.9066V96.9066Z" fill="#3F3D56"/>
<path d="M267.721 119.331C267.542 119.331 267.391 119.193 267.377 119.011L266.684 109.763C266.669 109.573 266.812 109.407 267.002 109.393C267.191 109.378 267.358 109.522 267.373 109.712L268.066 118.96C268.081 119.15 267.938 119.316 267.748 119.33C267.739 119.331 267.73 119.331 267.721 119.331Z" fill="#FFB6B6"/>
<path d="M262.52 99.3328C262.351 99.3328 262.204 99.2092 262.179 99.0374C262.151 98.8486 262.281 98.6731 262.47 98.6455L279.17 96.198C279.359 96.1706 279.534 96.3009 279.562 96.4897C279.59 96.6785 279.459 96.854 279.27 96.8816L262.57 99.3291C262.553 99.3317 262.537 99.3328 262.52 99.3328Z" fill="#FFB6B6"/>
<path d="M263.282 119.884L256.756 104.128L258.484 104.819L265.434 118.779L263.282 119.884Z" fill="#3F3D56"/>
<path d="M304 198.829C304 198.989 303.87 199.119 303.709 199.119H102.533V198.539H303.709C303.87 198.539 304 198.669 304 198.829V198.829Z" fill="#E6E6E6"/>
<path d="M232.692 75.6445C233.812 76.6988 235.265 76.9752 235.936 76.2618C236.606 75.5485 236.242 74.1159 235.12 73.0614C234.678 72.634 234.14 72.3187 233.551 72.1419L228.747 67.7349L226.727 70.0337L231.678 74.1342C231.89 74.7114 232.238 75.2293 232.692 75.6445Z" fill="#FFB6B6"/>
<path d="M228.58 52.8116C228.58 52.8116 222.722 45.5141 220.474 46.0763C217.709 46.7674 218.4 49.5317 215.541 56.9251C214.825 58.7767 214.073 60.5712 215.518 61.9323L219.503 65.6852L227.998 72.8477L231.415 69.2702L224.626 60.5152L228.58 52.8116L228.58 52.8116Z" fill="#FB8C00"/>
</svg>
