<svg width="291" height="215" viewBox="0 0 291 215" fill="none" xmlns="http://www.w3.org/2000/svg">
<path d="M80.351 136C72.5995 154.08 74.086 176.037 80.351 200H123.838C129.276 176.01 132.029 153.332 123.838 136H80.351Z" fill="#E4E4E4"/>
<path d="M62.8107 136C48.6468 153.431 52.5984 175.853 62.8107 200H80.3506C74.0252 177.188 72.9911 155.613 80.3506 136H62.8107Z" fill="#CACACA"/>
<path d="M115.798 137.484H109.221V144.061H115.798V137.484Z" fill="white"/>
<path d="M105.201 137.484H98.623V144.061H105.201V137.484Z" fill="white"/>
<path d="M94.6032 137.484H88.0254V144.061H94.6032V137.484Z" fill="white"/>
<path d="M115.616 152.466H109.038V159.044H115.616V152.466Z" fill="white"/>
<path d="M105.018 152.466H98.4404V159.044H105.018V152.466Z" fill="white"/>
<path d="M94.4205 152.466H87.8428V159.044H94.4205V152.466Z" fill="white"/>
<path d="M115.433 167.449H108.855V174.027H115.433V167.449Z" fill="white"/>
<path d="M104.836 167.449H98.2578V174.027H104.836V167.449Z" fill="white"/>
<path d="M94.2379 167.449H87.6602V174.027H94.2379V167.449Z" fill="white"/>
<path d="M115.251 182.432H108.673V189.009H115.251V182.432Z" fill="white"/>
<path d="M104.653 182.432H98.0752V189.009H104.653V182.432Z" fill="white"/>
<path d="M94.0553 182.432H87.4775V189.009H94.0553V182.432Z" fill="white"/>
<path d="M115.068 197.414H108.489V200H115.068V197.414Z" fill="white"/>
<path d="M104.47 197.414H97.8926V200H104.47V197.414Z" fill="white"/>
<path d="M93.8718 197.414H87.2949V200H93.8718V197.414Z" fill="white"/>
<path d="M45 169.994V195.044C44.9997 196.166 45.3806 197.256 46.0802 198.133C46.7798 199.011 47.7567 199.625 48.8509 199.875C49.1152 199.936 49.3841 199.974 49.6547 199.989C49.753 199.998 49.8557 200 49.9562 200H69.0229C73.026 188.277 80.3857 137.966 50.2423 142.334L45 169.994Z" fill="#E4E4E4"/>
<path d="M60.4352 182.432H53.8574V189.009H60.4352V182.432Z" fill="white"/>
<path d="M49.8382 182.432H45V189.009H49.8382V182.432Z" fill="white"/>
<path d="M60.2527 197.414H53.6758V200H60.2527V197.414Z" fill="white"/>
<path d="M45.6025 197.414C45.9399 198.03 46.4036 198.568 46.9634 198.992C47.5232 199.416 48.1663 199.717 48.8506 199.876C49.1149 199.936 49.3838 199.974 49.6544 199.989V197.414H45.6025Z" fill="white"/>
<path d="M144.295 214.353C153.576 214.353 161.099 213.063 161.099 211.472C161.099 209.881 153.576 208.591 144.295 208.591C135.015 208.591 127.491 209.881 127.491 211.472C127.491 213.063 135.015 214.353 144.295 214.353Z" fill="#FB8C00"/>
<path d="M239.52 212.643H175.184C175.057 212.643 174.935 212.593 174.845 212.503C174.755 212.413 174.704 212.291 174.704 212.163C174.704 212.036 174.755 211.914 174.845 211.824C174.935 211.734 175.057 211.683 175.184 211.683H239.52C239.647 211.683 239.769 211.734 239.859 211.824C239.949 211.914 240 212.036 240 212.163C240 212.291 239.949 212.413 239.859 212.503C239.769 212.593 239.647 212.643 239.52 212.643Z" fill="#3F3D56"/>
<path d="M131.805 86.5001C131.806 81.2695 133.6 76.1972 136.887 72.1287C140.175 68.0603 144.757 65.2415 149.871 64.1424C146.537 63.4268 143.085 63.4661 139.767 64.2573C136.45 65.0485 133.352 66.5716 130.7 68.7152C128.047 70.8587 125.908 73.5683 124.438 76.6456C122.969 79.7229 122.206 83.0899 122.206 86.5001C122.206 89.9103 122.969 93.2774 124.438 96.3547C125.908 99.432 128.047 102.142 130.7 104.285C133.352 106.429 136.45 107.952 139.767 108.743C143.085 109.534 146.537 109.573 149.871 108.858C144.757 107.759 140.175 104.94 136.887 100.871C133.6 96.803 131.806 91.7307 131.805 86.5001Z" fill="#FB8C00"/>
<path d="M145.594 109.941C140.977 109.941 136.463 108.572 132.623 106.007C128.784 103.441 125.791 99.7951 124.024 95.529C122.257 91.2629 121.795 86.5686 122.696 82.0397C123.596 77.5108 125.82 73.3507 129.085 70.0856C132.35 66.8204 136.51 64.5968 141.039 63.6959C145.568 62.7951 150.262 63.2574 154.529 65.0245C158.795 66.7916 162.441 69.7841 165.006 73.6235C167.572 77.4629 168.941 81.9768 168.941 86.5944C168.934 92.7842 166.472 98.7185 162.095 103.095C157.718 107.472 151.784 109.934 145.594 109.941ZM145.594 64.2076C141.167 64.2075 136.838 65.5204 133.157 67.9802C129.475 70.4401 126.606 73.9364 124.912 78.027C123.217 82.1176 122.774 86.6189 123.637 90.9615C124.501 95.3041 126.633 99.2931 129.764 102.424C132.895 105.555 136.884 107.687 141.226 108.551C145.569 109.415 150.07 108.971 154.161 107.277C158.252 105.583 161.748 102.713 164.208 99.0319C166.668 95.3504 167.981 91.0221 167.981 86.5944C167.974 80.6592 165.613 74.9689 161.417 70.7721C157.22 66.5752 151.53 64.2144 145.594 64.2076V64.2076Z" fill="#3F3D56"/>
<path d="M106.92 86.4998C106.92 74.0244 111.483 61.9799 119.748 52.6352C128.013 43.2905 139.41 37.2906 151.792 35.7657C144.607 34.8849 137.317 35.5396 130.405 37.6865C123.492 39.8333 117.113 43.4234 111.692 48.2193C106.27 53.0152 101.928 58.9075 98.9535 65.5067C95.9789 72.1058 94.4393 79.2613 94.4365 86.4998C94.4365 109.428 128.156 174.085 140.82 197.56C141.28 198.415 141.962 199.128 142.795 199.626C143.628 200.124 144.58 200.386 145.551 200.386C146.521 200.386 147.473 200.124 148.306 199.626C149.139 199.128 149.821 198.415 150.281 197.56C150.755 196.682 151.262 195.739 151.792 194.749C138.159 169.297 106.92 108.57 106.92 86.4998Z" fill="#FB8C00"/>
<path d="M145.594 200.961C144.535 200.969 143.495 200.687 142.586 200.144C141.677 199.601 140.935 198.819 140.441 197.883C126.477 171.999 94 109.34 94 86.5943C94 72.9107 99.4358 59.7874 109.112 50.1116C118.787 40.4358 131.911 35 145.594 35C159.278 35 172.401 40.4358 182.077 50.1116C191.753 59.7874 197.189 72.9107 197.189 86.5943C197.189 109.342 164.711 171.999 150.747 197.883C150.253 198.819 149.511 199.601 148.602 200.144C147.693 200.687 146.652 200.969 145.594 200.961ZM145.594 35.9602C132.17 35.9754 119.3 41.3149 109.807 50.8073C100.315 60.2998 94.9754 73.17 94.9602 86.5943C94.9602 109.121 127.357 171.607 141.286 197.427C141.705 198.205 142.326 198.855 143.085 199.308C143.843 199.761 144.711 200 145.594 200C146.478 200 147.345 199.761 148.103 199.308C148.862 198.855 149.483 198.205 149.902 197.427C163.831 171.608 196.228 109.123 196.228 86.5943C196.213 73.17 190.874 60.2998 181.381 50.8073C171.889 41.3149 159.019 35.9754 145.594 35.9602Z" fill="#3F3D56"/>
<rect x="0.5" y="0.5" width="290" height="212" stroke="#C4C4C4" stroke-dasharray="10 10"/>
</svg>
