<svg width="139" height="21" viewBox="0 0 139 21" fill="none" xmlns="http://www.w3.org/2000/svg">
<path fill-rule="evenodd" clip-rule="evenodd" d="M7.74301 0.0416034C6.72296 0.137984 6.28356 0.286678 4.53666 1.12859C3.46605 1.64451 1.35793 3.64016 1.35793 4.13778C1.35793 4.34085 1.24065 4.50707 1.09732 4.50707C0.953977 4.50707 0.8367 4.739 0.8367 5.02247C0.8367 5.30594 0.731672 5.53787 0.603449 5.53787C0.340488 5.53787 0.0285316 7.20649 0.00116702 8.75915C-0.0228096 10.1283 0.327458 11.9804 0.610486 11.9804C0.734799 11.9804 0.8367 12.2124 0.8367 12.4958C0.8367 12.7793 0.953977 13.0112 1.09732 13.0112C1.24065 13.0112 1.35793 13.1574 1.35793 13.3359C1.35793 13.7825 3.4181 15.846 3.86375 15.846C4.06234 15.846 4.2247 15.9537 4.2247 16.0851C4.2247 16.2168 4.88249 16.5678 5.68623 16.8652C7.95176 17.7032 13.4565 17.5277 14.506 16.584C14.6423 16.4616 14.9144 16.3614 15.1109 16.3614C15.5862 16.3614 16.213 15.7217 16.213 15.2365C16.213 14.7036 13.3249 9.1457 13.0478 9.1457C12.9253 9.1457 12.825 9.26167 12.825 9.4034C12.825 9.55468 11.9222 9.66111 10.6377 9.66111C8.34842 9.66111 8.13393 9.55055 8.13393 8.37208C8.13393 7.73324 9.31634 7.49899 11.4192 7.72164C13.1557 7.90564 13.8675 7.61933 13.8675 6.73748C13.8675 6.52642 13.9553 6.31536 14.0629 6.26794C14.3731 6.13162 16.213 2.43926 16.213 1.95324C16.213 1.52004 14.6183 0.641534 13.832 0.641534C13.6222 0.641534 13.3389 0.539226 13.2029 0.413983C12.9136 0.148292 9.25744 -0.101164 7.74301 0.0416034ZM36.178 0.533814C35.8968 1.25873 35.9997 16.358 36.2895 16.8938C36.5342 17.3455 36.8629 17.3922 39.8078 17.3922H43.0564V8.75915V0.126129H39.6963C36.8728 0.126129 36.3109 0.191328 36.178 0.533814ZM52.2772 0.721679C51.9734 1.03195 51.395 1.51772 50.9921 1.80119C50.5892 2.08467 50.0169 2.55162 49.7203 2.83896C49.4235 3.1263 48.7683 3.61181 48.2643 3.91796C47.7602 4.22437 47.0654 4.77198 46.7204 5.13534C46.3753 5.49844 45.9951 5.79558 45.8755 5.79558C45.5411 5.79558 44.0989 7.23046 44.0989 7.5629C44.0989 7.73994 44.5664 7.85719 45.2716 7.85719H46.4444V10.284C46.4444 12.8739 46.988 14.7255 47.9951 15.5656C48.2648 15.7906 48.7005 16.1506 48.9635 16.3652C50.3414 17.4904 53.6833 17.6916 55.6311 16.7667L56.6084 16.3026V13.7702C56.6084 12.3598 56.4929 11.1671 56.3478 11.0785C56.2044 10.9908 56.0872 11.0285 56.0872 11.162C56.0872 11.4658 54.8988 11.7042 54.2368 11.5331C53.8107 11.4228 53.7416 11.1573 53.7416 9.63095V7.85719H54.8623C55.4786 7.85719 56.1237 7.71803 56.2957 7.54795C56.4705 7.37503 56.6084 6.54575 56.6084 5.66672C56.6084 4.7877 56.4705 3.95842 56.2957 3.7855C56.1237 3.61542 55.4786 3.47626 54.8623 3.47626H53.7416V1.80119C53.7416 0.37172 53.6746 0.128449 53.2856 0.141849C53.0346 0.150611 52.5808 0.411406 52.2772 0.721679ZM91.0096 3.98032V7.83451L92.8991 7.91028L94.7886 7.98604L94.8342 12.2381C94.8594 14.5768 94.8886 16.6964 94.8993 16.9481C94.9173 17.3685 95.2264 17.4004 98.6326 17.3347L102.346 17.2633L102.418 12.5603L102.488 7.85719H104.437H106.386V3.99166V0.126129H98.6978H91.0096V3.98032ZM17.6743 3.88394C17.3555 4.70524 17.5012 14.0232 17.8419 14.609C18.3529 15.4875 19.6604 16.7167 20.4603 17.07C22.0972 17.7934 24.6744 17.2945 25.9209 16.0129C26.6014 15.3133 26.6376 15.3043 26.6376 15.8356C26.6376 16.1433 26.7591 16.6196 26.9074 16.8938C27.151 17.3437 27.4792 17.3922 30.2862 17.3922C33.0933 17.3922 33.4214 17.3437 33.6651 16.8938C33.8293 16.5905 33.9349 14.0101 33.9349 10.3038C33.9349 5.3683 33.8642 4.14267 33.5624 3.84451C33.281 3.56619 32.4241 3.47626 30.0491 3.47626C26.31 3.47626 26.6608 2.96936 26.5704 8.50145L26.5073 12.367L25.6225 12.4505C25.0904 12.5007 24.6504 12.3982 24.5188 12.1928C24.3984 12.0052 24.2983 10.1062 24.296 7.97316C24.2934 5.30491 24.1946 3.99836 23.9793 3.7855C23.7735 3.58191 22.6708 3.47626 20.7495 3.47626C18.33 3.47626 17.8054 3.54584 17.6743 3.88394ZM58.1992 3.83034C57.8471 4.25014 57.9297 13.1001 58.298 14.4059C59.1729 17.5079 64.1225 18.4428 66.616 15.9774C66.9757 15.6215 67.334 15.3306 67.4122 15.3306C67.4904 15.3306 67.5542 15.7944 67.5542 16.3614V17.3922H70.53C72.1666 17.3922 73.6912 17.3218 73.918 17.2357C74.2789 17.0989 74.3302 16.2694 74.3302 10.587C74.3302 5.88113 74.2442 4.0097 74.0175 3.7855C73.5862 3.359 67.7771 3.359 67.3458 3.7855C67.1281 4.00068 67.033 5.37191 67.033 8.29529V12.4958H66.2327C64.8149 12.4958 64.7081 12.1752 64.6291 7.68891L64.5572 3.60511L61.5335 3.53295C59.1572 3.476 58.4431 3.53965 58.1992 3.83034ZM76.9971 3.69144C76.7415 3.85199 76.6826 5.40696 76.7365 10.5811L76.8061 17.2633H80.1941H83.5821L83.7463 13.7843C83.8367 11.8709 83.997 10.0443 84.1025 9.72553C84.3402 9.00706 85.0371 8.97588 85.5367 9.66111C85.8377 10.0742 86.2114 10.1765 87.4186 10.1765C88.2489 10.1765 88.9247 10.0608 88.9247 9.91881C88.9247 9.77707 89.0576 9.66111 89.22 9.66111C89.712 9.66111 90.4673 8.6169 90.6422 7.6951C90.9851 5.88783 90.4175 4.72946 88.7329 3.79838C87.5062 3.12063 85.5406 3.63655 84.5352 4.90058C83.9944 5.58039 83.7124 5.49278 83.7124 4.64442C83.7124 3.6332 83.2389 3.476 80.2071 3.48012C78.6231 3.48244 77.1788 3.57753 76.9971 3.69144ZM111.207 3.73396C110.921 3.85585 110.393 3.96486 110.035 3.9762C109.676 3.98754 108.855 4.25787 108.21 4.57664L107.037 5.15622L106.961 7.15083C106.919 8.24813 106.978 9.1439 107.092 9.14184C107.205 9.13978 107.767 8.97072 108.341 8.76662C109.896 8.2123 112.452 8.25483 112.991 8.84393C113.228 9.10318 113.423 9.3931 113.423 9.48819C113.423 9.58328 112.67 9.66111 111.75 9.66111C109.811 9.66111 107.994 10.3193 107.388 11.2413C107.167 11.5769 106.845 12.2788 106.672 12.8012C106.219 14.1668 107.056 16.0593 108.456 16.8376C109.608 17.478 111.634 17.5687 112.628 17.0242C113.169 16.7278 113.352 16.7306 113.833 17.042C114.261 17.3195 115.155 17.3914 117.495 17.3362L120.589 17.2633L120.661 12.6345C120.741 7.4057 120.554 6.55219 119.022 5.16395C118.535 4.72328 117.482 4.16303 116.681 3.91925C115.16 3.4559 112.105 3.35256 111.207 3.73396ZM123.117 3.7855C122.888 4.01279 122.805 6.22619 122.805 12.1397C122.805 16.5644 122.876 20.3681 122.963 20.5923C123.096 20.9348 123.658 21 126.481 21H129.841V18.9108C129.841 17.019 129.884 16.8399 130.297 17.0159C130.548 17.1226 131.457 17.2613 132.317 17.3236C134.964 17.5159 137.569 15.9532 138.591 13.5596C139.318 11.8601 139.025 7.34488 138.113 6.18213C137.264 5.10055 136.844 4.75523 135.649 4.15685C134.016 3.33942 132.565 3.2835 131.105 3.98135C130.055 4.48284 130.047 4.48284 129.914 3.98135C129.791 3.51465 129.54 3.47626 126.605 3.47626C124.483 3.47626 123.326 3.57882 123.117 3.7855ZM131.814 9.51396C132.019 9.71626 132.187 10.3541 132.187 10.9313V11.9804H131.014H129.841V10.9388C129.841 9.35521 130.889 8.5986 131.814 9.51396ZM113.372 13.2045C113.452 14.2967 113.45 14.2997 112.554 14.2997C111.801 14.2997 111.627 14.1897 111.483 13.6246C111.278 12.8169 111.973 11.9699 112.771 12.0541C113.187 12.0982 113.308 12.3304 113.372 13.2045Z" fill="#FB8C00"/>
</svg>
