<svg width="70" height="92" viewBox="0 0 70 92" fill="none" xmlns="http://www.w3.org/2000/svg">
<path d="M18.8647 69.2566L14.8746 66.7335C14.6913 64.5183 14.6341 62.2947 14.7031 60.0731L16.7729 60.598L14.73 59.3062C14.8428 56.56 15.0927 54.7485 15.0927 54.7485C15.0927 54.7485 23.1601 59.9501 28.3052 67.0007L27.4278 72.9636L29.5202 68.7935C30.0554 69.644 30.5362 70.527 30.9597 71.4374C35.1989 80.6302 35.6108 89.4567 31.8798 91.152C28.1487 92.8473 21.6876 86.7694 17.4484 77.5766C16.1343 74.7267 15.4089 71.45 15.033 68.2849L18.8647 69.2566Z" fill="#128807"/>
<path d="M10.5947 78.2368L5.94809 78.1239C4.66068 76.3177 3.47491 74.4395 2.39641 72.4982L4.4057 71.8842L2.02664 71.8264C0.716589 69.4125 0 67.73 0 67.73C0 67.73 9.44603 68.0441 17.3803 71.447L19.6931 77.0137L19.3194 72.3604C20.2046 72.8148 21.0607 73.3251 21.8827 73.8883C30.151 79.5949 35.0131 86.9553 32.7424 90.3282C30.4718 93.701 21.9284 91.8092 13.6601 86.1026C11.0969 84.3335 8.81041 81.8954 6.87498 79.3734L10.5947 78.2368Z" fill="#2CB320"/>
<path d="M69.9878 21.8626H69.484V8.01477C69.484 6.96226 69.2774 5.92005 68.876 4.94766C68.4746 3.97526 67.8862 3.09172 67.1445 2.34748C66.4028 1.60324 65.5223 1.01287 64.5532 0.610091C63.5841 0.20731 62.5454 8.51113e-07 61.4965 0H32.2576C31.2086 -2.26957e-06 30.17 0.2073 29.2009 0.610077C28.2318 1.01286 27.3512 1.60322 26.6095 2.34746C25.8678 3.0917 25.2795 3.97523 24.878 4.94763C24.4766 5.92002 24.27 6.96223 24.27 8.01475V83.9852C24.27 86.1109 25.1116 88.1495 26.6095 89.6525C28.1075 91.1556 30.1391 92 32.2576 92H61.4965C63.6149 92 65.6466 91.1556 67.1445 89.6525C68.6425 88.1495 69.484 86.1109 69.484 83.9853V31.7198H69.9878V21.8626Z" fill="#3F3D56"/>
<path d="M61.7808 2.25782H57.974C58.1491 2.6879 58.2159 3.15453 58.1686 3.61659C58.1213 4.07865 57.9613 4.52196 57.7028 4.90747C57.4442 5.29298 57.0951 5.60886 56.686 5.82729C56.2769 6.04571 55.8205 6.15997 55.357 6.16001H38.6499C38.1864 6.15997 37.73 6.04571 37.3209 5.82729C36.9118 5.60886 36.5626 5.29298 36.3041 4.90747C36.0455 4.52196 35.8856 4.07864 35.8383 3.61658C35.791 3.15452 35.8578 2.6879 36.0328 2.25781H32.4774C30.8994 2.25781 29.3862 2.88593 28.2704 4.00399C27.1547 5.12205 26.5278 6.63846 26.5278 8.21963V83.7806C26.5278 84.5636 26.6817 85.3388 26.9807 86.0621C27.2797 86.7855 27.7179 87.4427 28.2704 87.9963C28.8229 88.5499 29.4787 88.989 30.2006 89.2886C30.9224 89.5883 31.696 89.7425 32.4773 89.7425H61.7808C62.5621 89.7425 63.3357 89.5883 64.0575 89.2886C64.7794 88.989 65.4352 88.5499 65.9877 87.9963C66.5402 87.4427 66.9784 86.7855 67.2774 86.0621C67.5764 85.3388 67.7303 84.5636 67.7303 83.7806V8.21964C67.7303 7.43672 67.5764 6.66147 67.2774 5.93815C66.9784 5.21483 66.5402 4.5576 65.9877 4.004C65.4352 3.45039 64.7794 3.01125 64.0575 2.71164C63.3357 2.41203 62.5621 2.25782 61.7808 2.25782V2.25782Z" fill="white"/>
<path d="M42.5793 29.8592L43.3806 32.6871L53.6197 32.503L53.53 27.3216C53.459 23.2204 50.6142 19.6831 46.5889 19.7555C42.5636 19.8278 40.0042 23.295 40.0752 27.3963L40.6599 32.736L42.3294 32.706L42.5793 29.8592Z" fill="#2F2E41"/>
<path d="M46.8469 31.6073C49.3406 31.6073 51.3622 29.4594 51.3622 26.8098C51.3622 24.1601 49.3406 22.0122 46.8469 22.0122C44.3531 22.0122 42.3315 24.1601 42.3315 26.8098C42.3315 29.4594 44.3531 31.6073 46.8469 31.6073Z" fill="#FFB6B6"/>
<path d="M56.4417 34.0114L56.3341 36.0637C54.054 38.4994 50.9437 39.9332 47.6563 40.064C44.3688 40.1948 41.1599 39.0124 38.7032 36.7651C38.5934 36.6658 38.4858 36.5621 38.3804 36.4561C39.0391 35.784 40.8574 34.1241 42.8754 33.9708L51.9753 33.3822C51.9753 33.3822 55.4228 32.9672 56.4417 34.0114Z" fill="#E4E4E4"/>
<path d="M51.924 23.8029C51.9179 23.4438 51.808 23.0946 51.608 22.7993C51.5868 22.7689 51.5656 22.7407 51.5444 22.7125C51.3744 22.4908 51.1565 22.3122 50.9078 22.1908C50.659 22.0693 50.3862 22.0083 50.1106 22.0124L46.8125 22.0731L43.5166 22.1316C43.0444 22.1413 42.5952 22.3417 42.2673 22.689C41.9394 23.0364 41.7594 23.5023 41.7668 23.9849L42.5516 25.5998L43.0033 26.5275L43.0776 26.4842C45.9302 24.8455 47.0967 24.8238 50.8721 26.3476L50.9484 26.378L51.2475 25.5955L51.9261 23.8202L51.924 23.8029Z" fill="#2F2E41"/>
<path d="M57.0061 35.3831C55.9768 36.5823 54.7137 37.5985 53.2802 38.3806L53.0552 34.7066L56.1941 34.4297C56.1941 34.4297 56.57 34.4297 57.0061 35.3831Z" fill="#E4E4E4"/>
<path d="M47.1291 40.0736C44.0185 40.0771 41.0154 38.9352 38.6929 36.8659C38.5832 36.7695 38.4748 36.6678 38.3688 36.5639C37.1185 35.383 36.1238 33.9582 35.4463 32.3775C34.7688 30.7968 34.4228 29.0939 34.4298 27.3742C34.4298 24.0061 35.7677 20.776 38.1493 18.3944C40.5309 16.0128 43.761 14.6748 47.1291 14.6748C50.4971 14.6748 53.7273 16.0128 56.1088 18.3944C58.4904 20.776 59.8284 24.0061 59.8284 27.3742C59.8389 30.204 58.8938 32.9545 57.146 35.1801C55.959 36.7045 54.4396 37.9377 52.7037 38.7858C50.9678 39.6338 49.0611 40.0743 47.1291 40.0736V40.0736ZM47.1291 15.1053C43.8763 15.109 40.7578 16.4028 38.4578 18.7028C36.1578 21.0029 34.864 24.1214 34.8603 27.3742C34.8536 29.0361 35.1881 30.6817 35.843 32.2091C36.4979 33.7365 37.4593 35.1133 38.6677 36.2541C38.7706 36.3548 38.8733 36.4512 38.978 36.5434C40.2331 37.6562 41.7028 38.5002 43.2965 39.0233C44.8902 39.5465 46.5742 39.7376 48.2446 39.5851C49.915 39.4325 51.5365 38.9395 53.009 38.1363C54.4816 37.3331 55.7741 36.2369 56.8068 34.9151C58.4952 32.765 59.4082 30.1079 59.3979 27.3742C59.3942 24.1214 58.1004 21.0029 55.8004 18.7028C53.5003 16.4028 50.3818 15.109 47.1291 15.1053Z" fill="#3F3D56"/>
<path d="M58.6814 58.135H36.1412C35.9164 58.135 35.6939 58.0912 35.4862 58.0061C35.2786 57.921 35.0899 57.7963 34.931 57.6391C34.772 57.4819 34.646 57.2952 34.56 57.0898C34.474 56.8843 34.4297 56.6641 34.4297 56.4418C34.4297 56.2194 34.474 55.9992 34.56 55.7938C34.646 55.5884 34.772 55.4017 34.931 55.2445C35.0899 55.0872 35.2786 54.9625 35.4862 54.8774C35.6939 54.7923 35.9164 54.7485 36.1412 54.7485H58.6814C58.9061 54.7485 59.1287 54.7923 59.3364 54.8774C59.544 54.9625 59.7327 55.0872 59.8916 55.2445C60.0505 55.4017 60.1766 55.5884 60.2626 55.7938C60.3486 55.9992 60.3929 56.2194 60.3929 56.4418C60.3929 56.6641 60.3486 56.8843 60.2626 57.0898C60.1766 57.2952 60.0505 57.4819 59.8916 57.6391C59.7327 57.7963 59.544 57.921 59.3364 58.0061C59.1287 58.0912 58.9061 58.135 58.6814 58.135Z" fill="#F9A826"/>
<path d="M58.6814 63.2146H36.1412C35.6873 63.2146 35.2519 63.0362 34.931 62.7187C34.61 62.4011 34.4297 61.9705 34.4297 61.5214C34.4297 61.0723 34.61 60.6416 34.931 60.3241C35.2519 60.0065 35.6873 59.8281 36.1412 59.8281H58.6814C59.1353 59.8281 59.5706 60.0065 59.8916 60.3241C60.2126 60.6416 60.3929 61.0723 60.3929 61.5214C60.3929 61.9705 60.2126 62.4011 59.8916 62.7187C59.5706 63.0362 59.1353 63.2146 58.6814 63.2146Z" fill="#F9A826"/>
<path d="M53.0729 52.491H41.7494C41.305 52.491 40.8788 52.3126 40.5645 51.9951C40.2503 51.6775 40.0737 51.2468 40.0737 50.7977C40.0737 50.3487 40.2503 49.918 40.5645 49.6004C40.8788 49.2829 41.305 49.1045 41.7494 49.1045H53.0729C53.5173 49.1045 53.9435 49.2829 54.2578 49.6004C54.572 49.918 54.7486 50.3487 54.7486 50.7977C54.7486 51.2468 54.572 51.6775 54.2578 51.9951C53.9435 52.3126 53.5173 52.491 53.0729 52.491V52.491Z" fill="#F9A826"/>
</svg>
