<svg width="168" height="98" viewBox="0 0 168 98" fill="none" xmlns="http://www.w3.org/2000/svg">
<path d="M49.7119 97.6084H15.1319C10.9155 97.6084 7.48517 94.178 7.48517 89.9615V15.6468C7.48517 11.4303 10.9155 8 15.1319 8H49.7119C53.9283 8 57.3586 11.4303 57.3586 15.6468V89.9615C57.3586 94.178 53.9283 97.6084 49.7119 97.6084Z" fill="#3F3D56"/>
<path d="M57.3582 35.335C57.1798 35.335 57.0348 35.48 57.0348 35.6585V46.0103C57.0348 46.1887 57.1798 46.3338 57.3582 46.3338C57.5367 46.3338 57.6817 46.1887 57.6817 46.0103V35.6585C57.6817 35.48 57.5367 35.335 57.3582 35.335Z" fill="#3F3D56"/>
<path d="M56.6306 15.6471V89.9605C56.6306 93.6306 53.7742 96.6327 50.1623 96.8656H50.1607C50.1074 96.8688 50.054 96.872 49.999 96.8737C49.9035 96.8785 49.8081 96.8801 49.7111 96.8801C49.7111 96.8801 49.3552 96.8542 48.705 96.8057C48.0483 96.7572 47.0924 96.6844 45.9003 96.589C45.5428 96.5615 45.166 96.5307 44.768 96.4984C43.9755 96.4337 43.1053 96.3625 42.172 96.2817C41.8 96.2509 41.415 96.217 41.022 96.183C39.0131 96.0099 36.7632 95.8077 34.3903 95.5781C33.9892 95.5408 33.5848 95.502 33.1772 95.4616C33.0705 95.4503 32.9621 95.4406 32.8537 95.4292C31.1618 95.2626 8.21293 90.8275 8.21293 89.9605V15.6471C8.21293 11.825 11.3104 8.72754 15.1325 8.72754H19.2635C19.9235 8.72754 20.454 9.2419 20.5106 9.90021C20.5155 9.94389 20.5203 9.98755 20.5284 10.0312C20.6481 10.6928 21.2547 11.1538 21.9275 11.1538H42.916C43.5889 11.1538 44.1955 10.6928 44.3152 10.0312C44.3232 9.98755 44.3281 9.94389 44.333 9.90021C44.3896 9.2419 44.9201 8.72754 45.58 8.72754H49.7111C53.5332 8.72754 56.6306 11.825 56.6306 15.6471H56.6306Z" fill="white"/>
<path d="M7.32349 27.5713C7.14508 27.5713 7 27.7164 7 27.8948V30.4827C7 30.6612 7.14508 30.8062 7.32349 30.8062C7.50191 30.8062 7.64699 30.6612 7.64699 30.4827V27.8948C7.64699 27.7164 7.50191 27.5713 7.32349 27.5713Z" fill="#3F3D56"/>
<path d="M7.32349 35.335C7.14508 35.335 7 35.48 7 35.6585V40.6726C7 40.8511 7.14508 40.9961 7.32349 40.9961C7.50191 40.9961 7.64699 40.851 7.64699 40.6726V35.6585C7.64699 35.48 7.50191 35.335 7.32349 35.335Z" fill="#3F3D56"/>
<path d="M7.32349 42.4521C7.14508 42.4521 7 42.5972 7 42.7756V47.7898C7 47.9682 7.14508 48.1133 7.32349 48.1133C7.50191 48.1133 7.64699 47.9682 7.64699 47.7898V42.7756C7.64699 42.5972 7.50191 42.4521 7.32349 42.4521Z" fill="#3F3D56"/>
<path d="M19.1514 9.86035H12.9648C12.9313 9.86035 12.904 9.88757 12.904 9.92115V10.6083C12.904 10.6419 12.9313 10.6691 12.9648 10.6691H19.1514C19.185 10.6691 19.2122 10.6419 19.2122 10.6083V9.92115C19.2122 9.88757 19.185 9.86035 19.1514 9.86035Z" fill="#E6E6E6"/>
<path d="M46.6036 10.669C46.961 10.669 47.2506 10.3793 47.2506 10.022C47.2506 9.66467 46.961 9.375 46.6036 9.375C46.2463 9.375 45.9567 9.66467 45.9567 10.022C45.9567 10.3793 46.2463 10.669 46.6036 10.669Z" fill="#E6E6E6"/>
<path d="M48.3815 10.669C48.7388 10.669 49.0285 10.3793 49.0285 10.022C49.0285 9.66467 48.7388 9.375 48.3815 9.375C48.0242 9.375 47.7345 9.66467 47.7345 10.022C47.7345 10.3793 48.0242 10.669 48.3815 10.669Z" fill="#E6E6E6"/>
<path d="M50.1605 10.669C50.5178 10.669 50.8075 10.3793 50.8075 10.022C50.8075 9.66467 50.5178 9.375 50.1605 9.375C49.8032 9.375 49.5135 9.66467 49.5135 10.022C49.5135 10.3793 49.8032 10.669 50.1605 10.669Z" fill="#E6E6E6"/>
<path d="M41.2435 94.0543L42.6996 94.1405L43.7255 88.5654L41.5764 88.4381L41.2435 94.0543Z" fill="#FFB6B6"/>
<path d="M46.2341 94.3174C46.2749 94.3964 46.2842 94.6443 46.279 94.733C46.2628 95.006 46.0284 95.2141 45.7554 95.1979L41.2459 94.9304C41.0597 94.9193 40.9177 94.7595 40.9288 94.5733L40.9399 94.3855C40.9399 94.3855 40.7503 93.8081 41.2508 93.1399C41.2508 93.1399 41.7894 93.7183 42.6929 92.916L42.9715 92.4753L44.7132 93.9148L45.7151 94.0989C45.9343 94.1391 46.1319 94.1194 46.2341 94.3174Z" fill="#2F2E41"/>
<path d="M47.8654 94.4469L49.3215 94.5331L50.3474 88.958L48.1982 88.8307L47.8654 94.4469Z" fill="#FFB6B6"/>
<path d="M52.856 94.7099C52.8968 94.789 52.9061 95.0368 52.9008 95.1256C52.8847 95.3986 52.6503 95.6067 52.3773 95.5905L47.8678 95.323C47.6816 95.3119 47.5396 95.152 47.5506 94.9658L47.5618 94.7781C47.5618 94.7781 47.3722 94.2006 47.8727 93.5325C47.8727 93.5325 48.4112 94.1109 49.3148 93.3086L49.5934 92.8679L51.3351 94.3074L52.337 94.4914C52.5562 94.5317 52.7538 94.5119 52.856 94.7099Z" fill="#2F2E41"/>
<path d="M40.9865 58.8534L51.1039 59.7248L51.9927 62.2179L52.3188 78.0997L50.4124 91.951L47.257 91.7638L48.0361 78.6303L46.1311 70.4115L43.9511 91.161L40.6695 91.3731L40.1828 76.973L39.7762 63.2557L40.9865 58.8534Z" fill="#2F2E41"/>
<path d="M45.6617 40.9629L49.1666 41.3064L49.4757 42.9517C49.4757 42.9517 53.7272 44.4241 53.3608 46.0292C52.9944 47.6344 51.2185 54.7147 51.2185 54.7147C51.2185 54.7147 52.4322 59.3963 51.4544 59.8806C50.4766 60.3649 40.7624 59.2463 40.7624 59.2463C40.7624 59.2463 40.0901 57.1728 40.5114 56.9266C40.9328 56.6804 40.0808 43.6145 40.3671 43.3604C40.6533 43.1062 45.1922 42.0197 45.1922 42.0197L45.6617 40.9629Z" fill="#FB8C00"/>
<path d="M37.9676 54.0635L37.5852 55.9388L40.1569 62.8702L41.6912 62.1478L40.4466 55.7019L40.3206 53.254L37.9676 54.0635Z" fill="#FFB6B6"/>
<path d="M41.4366 43.5591C41.4366 43.5591 39.9905 42.7955 38.7653 45.1632C37.5402 47.5309 37.4978 52.8158 37.4978 52.8158C37.4978 52.8158 37.0684 53.1971 37.3226 53.4833C37.5768 53.7696 38.1281 53.1642 37.5636 53.993C37.2665 54.429 36.4639 54.2459 37.2665 54.429C38.0692 54.6122 37.8075 54.2178 37.5207 54.7153C37.3696 54.9775 36.8291 54.9454 37.3616 55.1126C37.894 55.2797 40.6271 55.2091 40.6271 55.2091C40.6271 55.2091 41.5821 54.8206 41.0577 54.5184C40.5333 54.2161 40.2662 54.1469 40.5429 54.0544C40.8195 53.9619 41.4951 54.002 41.1138 53.5727C40.7325 53.1433 40.4623 53.1273 40.7325 53.1433C41.0027 53.1593 41.3455 52.5263 41.3455 52.5263L41.4366 43.5591Z" fill="#FB8C00"/>
<path d="M40.258 64.0145C39.9872 63.0096 40.2515 62.0646 40.8482 61.9039C41.4449 61.7431 42.1482 62.4274 42.4189 63.4324C42.6897 64.4373 42.4254 65.3823 41.8287 65.543C41.232 65.7038 40.5288 65.0194 40.258 64.0145Z" fill="#FFB6B6"/>
<path d="M56.8297 54.5415L57.8108 56.1849L64.3817 59.5742L65.0287 58.0066L59.7655 54.082L58.023 52.358L56.8297 54.5415Z" fill="#FFB6B6"/>
<path d="M52.3163 44.4409C52.3163 44.4409 50.7331 44.8509 51.4233 47.4259C52.1134 50.0009 55.6433 53.9347 55.6433 53.9347C55.6433 53.9347 55.5829 54.5057 55.9636 54.546C56.3443 54.5862 56.3438 53.7675 56.4851 54.7603C56.5594 55.2826 55.8429 55.688 56.5594 55.2826C57.276 54.8772 56.8168 54.7621 56.9401 55.3229C57.0051 55.6184 56.5842 55.9589 57.0902 55.7237C57.5963 55.4885 59.5683 53.595 59.5683 53.595C59.5683 53.595 60.0122 52.6645 59.421 52.7944C58.8298 52.9244 58.5858 53.0532 58.728 52.7984C58.8701 52.5437 59.3963 52.1182 58.8252 52.0578C58.2542 51.9974 58.0437 52.1676 58.2542 51.9974C58.4646 51.8272 58.2913 51.1286 58.2913 51.1286L52.3163 44.4409Z" fill="#FB8C00"/>
<path d="M65.2272 60.3503C64.3499 59.7901 63.9084 58.9138 64.2411 58.393C64.5737 57.8722 65.5545 57.9041 66.4317 58.4642C67.3089 59.0244 67.7504 59.9007 67.4178 60.4215C67.0852 60.9423 66.1044 60.9104 65.2272 60.3503Z" fill="#FFB6B6"/>
<path d="M47.3036 40.3981C45.5115 40.2918 44.145 38.753 44.2513 36.9611C44.3576 35.1692 45.8965 33.8028 47.6885 33.9091C49.4806 34.0154 50.8471 35.5542 50.7408 37.3461C50.6345 39.138 49.0956 40.5044 47.3036 40.3981Z" fill="#FFB6B6"/>
<path d="M50.2433 34.6968C50.106 34.2188 49.6648 33.9076 49.1677 33.8892C49.1466 33.8884 49.1256 33.8869 49.1049 33.8849C48.8555 33.8598 48.6206 33.7602 48.3784 33.6956C47.9271 33.5751 47.4435 33.5778 46.9936 33.7032C46.8537 33.7422 46.713 33.7933 46.568 33.7848C46.4231 33.7762 46.2699 33.6873 46.2429 33.5447C46.227 33.6714 46.211 33.7982 46.1951 33.9249C46.1541 33.8192 46.113 33.7134 46.0719 33.6076L45.9531 34.0127L45.6709 33.6515C45.689 33.8044 45.5917 33.9516 45.4665 34.0413C45.3413 34.1309 45.1907 34.1757 45.0457 34.2276C44.4199 34.4515 43.8196 34.878 43.6058 35.5073C43.4707 35.9048 43.5034 36.3371 43.5376 36.7556C43.5679 37.1255 43.602 37.5084 43.7829 37.8325C43.8988 38.0403 44.0731 38.2197 44.1376 38.4487C44.1978 38.6622 44.1561 38.9 44.2477 39.102C44.3397 39.3049 44.5471 39.4289 44.7521 39.5161C44.9571 39.6033 45.1766 39.6693 45.3492 39.8101C45.5219 39.9509 45.709 40.3381 46.1032 40.3413L46.2441 40.1105C46.3809 40.012 45.893 40.0676 45.898 39.8991C45.9029 39.7306 46.4951 39.6614 46.4207 39.5101C46.3067 39.2781 46.146 39.0726 46.0151 38.8496C45.8622 38.5888 45.7476 38.2878 45.8236 37.9851C45.8532 37.8674 45.9156 37.7582 46.0057 37.6767C46.2653 37.4418 46.5317 37.5676 46.7948 37.619C46.9762 37.6545 47.1962 37.639 47.3005 37.4865C47.4225 37.3081 47.3127 37.0653 47.3406 36.851C47.3702 36.6238 47.5541 36.447 47.7499 36.3281C47.9457 36.2093 48.1649 36.1272 48.3433 35.9834C48.5216 35.8396 48.4901 35.9178 48.4292 35.697C49.6312 36.7151 49.542 35.0751 50.3745 35.3288C50.3468 35.1152 50.3027 34.9038 50.2433 34.6968L50.2433 34.6968Z" fill="#2F2E41"/>
<path d="M155.746 36.0357C158.904 36.0357 161.463 33.4761 161.463 30.3186C161.463 27.1612 158.904 24.6016 155.746 24.6016C152.589 24.6016 150.029 27.1612 150.029 30.3186C150.029 33.4761 152.589 36.0357 155.746 36.0357Z" fill="#FB8C00"/>
<path d="M134.319 45.3802L129.84 36.5851L134.333 44.2819L134.374 41.1339L131.296 34.7761L134.385 40.3015L134.459 34.64L131.112 29.5517L134.47 33.7497L134.714 23.415L134.715 23.3721L134.715 23.4157L134.677 36.5286L138.371 31.2204L134.687 37.6405L134.833 43.9699L134.848 43.8026L139.108 38.2026L134.843 44.395L134.862 45.1867L134.869 45.1991L134.864 45.2638L135.057 53.6411C134.778 53.6527 134.496 53.6575 134.212 53.6553L134.22 53.0036L130.334 46.5888L134.228 52.3805L134.319 45.3802Z" fill="#3F3D56"/>
<path d="M113.451 50.4056L108.971 41.6105L113.464 49.3073L113.505 46.1593L110.427 39.8015L113.517 45.3269L113.59 39.6654L110.243 34.5771L113.601 38.7751L113.845 28.4404L113.847 28.3975L113.847 28.4411L113.808 41.554L117.502 36.2458L113.819 42.6659L113.964 48.9953L113.98 48.828L118.24 43.228L113.975 49.4204L113.993 50.212L114 50.2245L113.995 50.2892L114.188 58.6665C113.909 58.6781 113.628 58.6829 113.343 58.6807L113.352 58.029L109.465 51.6142L113.359 57.4059L113.451 50.4056Z" fill="#CBCBCB"/>
<path d="M152.28 44.0081L147.801 35.213L152.294 42.9099L152.335 39.7618L149.257 33.404L152.346 38.9295L152.42 33.268L149.073 28.1797L152.43 32.3776L152.675 22.0429L152.676 22L152.676 22.0436L152.638 35.1565L156.332 29.8483L152.648 36.2684L152.794 42.5978L152.809 42.4305L157.069 36.8306L152.804 43.023L152.823 43.8146L152.83 43.8271L152.825 43.8917L153.018 52.269C152.739 52.2807 152.457 52.2854 152.173 52.2832L152.181 51.6315L148.295 45.2167L152.189 51.0084L152.28 44.0081Z" fill="#3F3D56"/>
<path d="M75.1714 74.2305C77.7806 72.3071 80.5169 70.5624 83.3614 69.0081C91.3172 64.6181 101.101 60.8643 112.224 57.9564C112.988 57.7559 113.759 57.5599 114.536 57.3685C116.186 56.96 117.864 56.5711 119.569 56.2017C119.99 56.1109 120.412 56.0204 120.836 55.9303C123.209 55.4314 125.629 54.9707 128.097 54.5484C128.146 54.5394 128.196 54.5315 128.246 54.5236C128.826 54.4234 129.408 54.3265 129.992 54.233C141.671 52.3353 154.328 51.2913 167.551 51.2755C167.66 51.2744 167.771 51.2744 167.88 51.2744V96.9996H61C61 88.7094 66.1559 80.935 75.1714 74.2305Z" fill="#F1F1F1"/>
<path d="M96.4082 79.4467C100.963 76.0601 106.794 73.0272 113.623 70.4695C114.381 70.1845 115.151 69.9064 115.934 69.6349C116.043 69.5966 116.153 69.5584 116.264 69.5201C117.26 69.1777 118.276 68.8443 119.311 68.52C121.06 67.9734 122.859 67.4568 124.707 66.9703C126.03 66.6208 127.376 66.2878 128.746 65.9713C129.186 65.8684 129.628 65.7686 130.071 65.6717C131.08 65.4472 132.101 65.2325 133.134 65.0275C143.692 62.9237 155.466 61.749 167.88 61.749V97.0002H85.4825C85.4825 90.6089 89.4581 84.615 96.4082 79.4467Z" fill="white"/>
<path d="M117.873 84.7179C127.824 77.3174 146.493 72.335 167.88 72.335V96.9996H110.228C110.228 92.5284 113.01 88.3343 117.873 84.7179Z" fill="#F1F1F1"/>
<path opacity="0.2" d="M75.1714 74.2305L96.4078 79.4461L117.873 84.718L167.88 96.9996H61C61 88.7094 66.1559 80.935 75.1714 74.2305Z" fill="black"/>
<path d="M79.17 92.8375L77.7043 92.8372L77.0068 87.1836H79.1703L79.17 92.8375Z" fill="#FFB7B7"/>
<path d="M79.5438 94.258L74.8174 94.2578V94.198C74.8174 93.7101 75.0113 93.2422 75.3562 92.8972C75.7012 92.5522 76.1691 92.3584 76.657 92.3584H76.6572L79.5439 92.3585L79.5438 94.258Z" fill="#2F2E41"/>
<path d="M92.1207 91.7574L90.7049 92.1376L88.5654 86.8577L90.655 86.2969L92.1207 91.7574Z" fill="#FFB7B7"/>
<path d="M92.8493 93.0328L88.2844 94.258L88.2689 94.2003C88.1425 93.7291 88.2084 93.2269 88.4521 92.8043C88.6959 92.3816 89.0975 92.0731 89.5687 91.9466L89.5688 91.9466L92.3569 91.1982L92.8493 93.0328Z" fill="#2F2E41"/>
<path d="M73.0665 66.6163C72.2193 67.7056 74.882 76.7828 75.003 76.9038C75.124 77.0249 74.882 77.751 74.882 77.751C74.8814 77.8821 74.9239 78.0096 75.003 78.1141C75.124 78.2351 75.003 78.3562 75.003 78.5982C75.003 78.8403 75.003 78.8403 75.2451 79.3244C75.39 79.6681 75.4321 80.0465 75.3661 80.4137L76.9395 89.6119C76.8231 89.662 76.7255 89.7473 76.6603 89.8559C76.5952 89.9645 76.5658 90.0909 76.5764 90.2171C76.5764 90.7012 78.997 90.9433 79.8442 90.8222C80.6914 90.7012 79.239 79.9295 79.239 79.9295C79.239 79.9295 79.239 77.1459 79.4811 76.9038C79.7232 76.6617 79.4811 76.6618 79.4811 76.1776C79.4811 75.6935 79.118 74.9673 79.239 74.6042C79.3601 74.2412 79.4811 69.0369 79.4811 69.0369C79.4811 69.0369 82.2648 74.2412 82.2648 74.9673C82.2648 75.6935 83.112 76.9038 83.112 76.9038L88.6793 88.2612C88.6793 88.2612 88.3163 88.9874 88.6793 89.5925C89.0424 90.1977 90.6158 89.7136 92.1892 89.1084C93.7626 88.5033 91.584 87.535 91.584 87.535L88.1952 77.872C88.2032 77.5061 88.2437 77.1415 88.3162 76.7828C88.4373 76.1776 87.9531 76.4197 87.5901 76.1776C87.227 75.9356 87.348 75.9356 87.5901 75.4514C87.8321 74.9673 87.227 73.878 87.227 73.878L85.6536 64.9219C85.6536 64.9219 73.9137 65.527 73.0665 66.6163Z" fill="#2F2E41"/>
<path d="M76.9661 44.7994C78.704 44.7994 80.1129 43.3905 80.1129 41.6526C80.1129 39.9147 78.704 38.5059 76.9661 38.5059C75.2282 38.5059 73.8193 39.9147 73.8193 41.6526C73.8193 43.3905 75.2282 44.7994 76.9661 44.7994Z" fill="#FFB8B8"/>
<path d="M75.7937 45.7595C75.7937 45.7595 71.5007 47.7266 71.1377 48.6948C70.7746 49.6631 73.4275 58.629 73.4275 58.629C73.4275 58.629 73.5885 62.3988 73.1044 63.8512C72.6203 65.3035 72.7013 65.5276 72.7013 65.5276V66.6169C72.7013 67.2221 76.5743 66.7379 78.5108 66.1328C80.4472 65.5276 85.4095 65.6487 85.8936 65.5276C86.3777 65.4066 85.084 63.8512 85.084 63.8512C86.7784 63.7301 85.084 60.1839 85.084 60.1839C85.084 60.1839 84.9108 48.7045 84.4267 47.1312C83.9426 45.5578 79.4609 45.2705 79.4609 45.2705L77.1794 46.0419L75.7937 45.7595Z" fill="#FF6584"/>
<path d="M80.7795 40.825C80.9414 40.0376 80.7875 39.2181 80.351 38.5431C80.0917 38.147 79.7527 37.8092 79.3557 37.5513C78.9586 37.2934 78.5122 37.121 78.0449 37.0451C77.1203 36.913 76.1774 37.0727 75.3479 37.5019C74.8457 37.7483 74.3023 38.0788 73.7765 37.8984L73.931 38.1755L73.5398 38.1801L73.6827 38.5043L73.3093 38.5576L73.5981 38.7309C73.2121 39.4184 72.9519 40.1694 72.8298 40.9484C72.7563 41.2563 72.7804 41.5796 72.8988 41.8732C73.0402 42.1494 73.4048 42.3107 73.6383 42.1203C73.7847 42.0007 73.8345 41.7911 73.9373 41.627C74.04 41.4629 74.276 41.3485 74.3984 41.4961L74.7141 40.865L74.9668 41.0708C75.5753 40.5353 76.2776 40.117 77.0383 39.837C77.1307 39.7887 77.2329 39.7622 77.3372 39.7593C77.4414 39.7565 77.5449 39.7775 77.6398 39.8206C77.9218 40.0013 77.881 40.4638 78.0763 40.7478C78.394 41.2095 79.1764 41.0178 79.4773 41.4924C79.5656 41.6811 79.6254 41.8818 79.6546 42.0881C79.7083 42.2897 79.838 42.5015 80.0323 42.5146C80.4422 42.0918 80.5988 41.5056 80.7795 40.825Z" fill="#2F2E41"/>
<path d="M88.3741 65.8138C88.2134 65.705 88.0785 65.5623 87.9789 65.3957C87.8793 65.2292 87.8175 65.0428 87.7977 64.8497C87.778 64.6566 87.8008 64.4616 87.8645 64.2783C87.9283 64.095 88.0315 63.9279 88.1669 63.7888L86.0508 59.5723L88.4853 59.8605L90.1215 63.8204C90.3402 64.0633 90.4621 64.3779 90.4643 64.7046C90.4664 65.0314 90.3486 65.3476 90.1333 65.5933C89.9179 65.839 89.6198 65.9972 89.2956 66.0378C88.9714 66.0785 88.6435 65.9988 88.3741 65.8138L88.3741 65.8138Z" fill="#FFB8B8"/>
<path d="M86.6313 62.7876L84.1644 54.8021L81.3489 48.6971C81.2301 48.4394 81.1713 48.158 81.1772 47.8743C81.183 47.5905 81.2532 47.3118 81.3825 47.0592C81.5118 46.8066 81.6968 46.5866 81.9236 46.416C82.1504 46.2453 82.4129 46.1284 82.6915 46.0741C83.133 45.9902 83.5901 46.067 83.9799 46.2906C84.3698 46.5142 84.6669 46.8699 84.8175 47.2934L89.952 61.9483C89.9799 62.0279 89.9905 62.1125 89.9831 62.1966C89.9757 62.2806 89.9505 62.3621 89.9092 62.4356C89.8679 62.5092 89.8114 62.5731 89.7435 62.6231C89.6755 62.6731 89.5977 62.7081 89.5152 62.7257L87.3229 63.1932C87.2813 63.202 87.2389 63.2065 87.1965 63.2066C87.0698 63.2066 86.9465 63.1658 86.8447 63.0904C86.7429 63.0149 86.6681 62.9088 86.6313 62.7876Z" fill="#FF6584"/>
<path d="M71.3863 68.5717C71.5194 68.4305 71.6199 68.2617 71.6807 68.0775C71.7416 67.8932 71.7613 67.6978 71.7384 67.505C71.7156 67.3123 71.6508 67.1269 71.5486 66.962C71.4463 66.797 71.3092 66.6564 71.1467 66.5502L72.292 61.9736L69.979 62.7861L69.246 67.0075C69.0857 67.2922 69.0353 67.6258 69.1045 67.9452C69.1737 68.2645 69.3576 68.5474 69.6214 68.7402C69.8852 68.933 70.2106 69.0224 70.5358 68.9913C70.8611 68.9602 71.1637 68.8109 71.3863 68.5717V68.5717Z" fill="#FFB8B8"/>
<path d="M71.9677 65.7697C71.9262 65.7789 71.8839 65.7838 71.8414 65.7842L69.5999 65.8062C69.5156 65.8071 69.432 65.7899 69.3548 65.7559C69.2776 65.7219 69.2085 65.6719 69.1521 65.6091C69.0957 65.5464 69.0534 65.4723 69.0278 65.3919C69.0023 65.3115 68.9942 65.2266 69.0041 65.1428L70.8178 49.7208C70.8724 49.2747 71.0847 48.8627 71.4164 48.5595C71.7481 48.2562 72.1774 48.0816 72.6266 48.0671C72.9103 48.0593 73.1921 48.1161 73.4506 48.2332C73.7091 48.3503 73.9377 48.5246 74.119 48.7429C74.3003 48.9612 74.4296 49.2179 74.4972 49.4935C74.5648 49.7692 74.5688 50.0566 74.5091 50.334L73.0932 56.9062L72.4278 65.2375C72.4183 65.3638 72.3685 65.4837 72.2856 65.5796C72.2028 65.6754 72.0913 65.742 71.9677 65.7697Z" fill="#FF6584"/>
<g filter="url(#filter0_d_1414_1615)">
<rect x="11" y="11" width="42" height="19" fill="white"/>
</g>
<path d="M19.3 22.6H22.6C22.7558 22.6 22.8866 22.5472 22.9922 22.4416C23.0974 22.3364 23.15 22.2058 23.15 22.05V20.95L24.25 22.05V18.75L23.15 19.85V18.75C23.15 18.5942 23.0974 18.4635 22.9922 18.3579C22.8866 18.2526 22.7558 18.2 22.6 18.2H19.3C19.1442 18.2 19.0135 18.2526 18.9079 18.3579C18.8026 18.4635 18.75 18.5942 18.75 18.75V22.05C18.75 22.2058 18.8026 22.3364 18.9079 22.4416C19.0135 22.5472 19.1442 22.6 19.3 22.6ZM16 27V17.1C16 16.7975 16.1078 16.5384 16.3234 16.3228C16.5386 16.1076 16.7975 16 17.1 16H25.9C26.2025 16 26.4616 16.1076 26.6772 16.3228C26.8924 16.5384 27 16.7975 27 17.1V23.7C27 24.0025 26.8924 24.2615 26.6772 24.4771C26.4616 24.6924 26.2025 24.8 25.9 24.8H18.2L16 27ZM17.1 24.3462L17.7463 23.7H25.9V17.1H17.1V24.3462Z" fill="#FB8C00"/>
<path d="M28.15 21.225C28.15 20.875 28.22 20.5633 28.36 20.29C28.5033 20.0167 28.7067 19.805 28.97 19.655C29.2333 19.5017 29.5433 19.425 29.9 19.425C30.2067 19.425 30.48 19.4833 30.72 19.6C30.9633 19.7133 31.16 19.875 31.31 20.085C31.4633 20.295 31.565 20.54 31.615 20.82H30.445C30.3917 20.7033 30.315 20.6133 30.215 20.55C30.1183 20.4833 30.0067 20.45 29.88 20.45C29.6933 20.45 29.545 20.52 29.435 20.66C29.3283 20.8 29.275 20.9883 29.275 21.225C29.275 21.4617 29.3283 21.65 29.435 21.79C29.545 21.93 29.6933 22 29.88 22C30.0067 22 30.1183 21.9683 30.215 21.905C30.315 21.8383 30.3917 21.7467 30.445 21.63H31.615C31.565 21.91 31.4633 22.155 31.31 22.365C31.16 22.575 30.9633 22.7383 30.72 22.855C30.48 22.9683 30.2067 23.025 29.9 23.025C29.5433 23.025 29.2333 22.95 28.97 22.8C28.7067 22.6467 28.5033 22.4333 28.36 22.16C28.22 21.8867 28.15 21.575 28.15 21.225ZM33.3546 23.035C33.0713 23.035 32.8163 22.9767 32.5896 22.86C32.363 22.7433 32.1846 22.5767 32.0546 22.36C31.928 22.14 31.8646 21.8833 31.8646 21.59C31.8646 21.2967 31.928 21.0417 32.0546 20.825C32.1846 20.605 32.363 20.4367 32.5896 20.32C32.8163 20.2033 33.0713 20.145 33.3546 20.145C33.638 20.145 33.893 20.2033 34.1196 20.32C34.3463 20.4367 34.523 20.605 34.6496 20.825C34.7796 21.0417 34.8446 21.2967 34.8446 21.59C34.8446 21.8833 34.7796 22.14 34.6496 22.36C34.523 22.5767 34.3463 22.7433 34.1196 22.86C33.893 22.9767 33.638 23.035 33.3546 23.035ZM33.3546 22.075C33.458 22.075 33.5446 22.035 33.6146 21.955C33.6846 21.8717 33.7196 21.75 33.7196 21.59C33.7196 21.43 33.6846 21.31 33.6146 21.23C33.5446 21.1467 33.458 21.105 33.3546 21.105C33.2513 21.105 33.1646 21.1467 33.0946 21.23C33.0246 21.31 32.9896 21.43 32.9896 21.59C32.9896 21.75 33.023 21.8717 33.0896 21.955C33.1596 22.035 33.248 22.075 33.3546 22.075ZM37.1684 20.16C37.4917 20.16 37.7434 20.2683 37.9234 20.485C38.1067 20.7017 38.1984 20.995 38.1984 21.365V23H37.0934V21.505C37.0934 21.3717 37.0567 21.2667 36.9834 21.19C36.9134 21.11 36.8184 21.07 36.6984 21.07C36.575 21.07 36.4784 21.11 36.4084 21.19C36.3384 21.2667 36.3034 21.3717 36.3034 21.505V23H35.1934V20.18H36.3034V20.61C36.39 20.4767 36.505 20.3683 36.6484 20.285C36.795 20.2017 36.9684 20.16 37.1684 20.16ZM40.6547 20.16C40.978 20.16 41.2297 20.2683 41.4097 20.485C41.593 20.7017 41.6847 20.995 41.6847 21.365V23H40.5797V21.505C40.5797 21.3717 40.543 21.2667 40.4697 21.19C40.3997 21.11 40.3047 21.07 40.1847 21.07C40.0614 21.07 39.9647 21.11 39.8947 21.19C39.8247 21.2667 39.7897 21.3717 39.7897 21.505V23H38.6797V20.18H39.7897V20.61C39.8764 20.4767 39.9914 20.3683 40.1347 20.285C40.2814 20.2017 40.4547 20.16 40.6547 20.16ZM44.896 21.565C44.896 21.6417 44.891 21.715 44.881 21.785H43.096C43.1127 22.0283 43.2143 22.15 43.401 22.15C43.521 22.15 43.6077 22.095 43.661 21.985H44.836C44.796 22.185 44.711 22.365 44.581 22.525C44.4543 22.6817 44.2927 22.8067 44.096 22.9C43.9027 22.99 43.6893 23.035 43.456 23.035C43.176 23.035 42.926 22.9767 42.706 22.86C42.4893 22.7433 42.3193 22.5767 42.196 22.36C42.076 22.14 42.016 21.8833 42.016 21.59C42.016 21.2967 42.076 21.0417 42.196 20.825C42.3193 20.605 42.4893 20.4367 42.706 20.32C42.926 20.2033 43.176 20.145 43.456 20.145C43.736 20.145 43.9843 20.2033 44.201 20.32C44.421 20.4333 44.591 20.5967 44.711 20.81C44.8343 21.0233 44.896 21.275 44.896 21.565ZM43.771 21.3C43.771 21.2067 43.741 21.1367 43.681 21.09C43.621 21.04 43.546 21.015 43.456 21.015C43.2593 21.015 43.1443 21.11 43.111 21.3H43.771ZM45.0971 21.59C45.0971 21.2967 45.1571 21.0417 45.2771 20.825C45.4004 20.605 45.5704 20.4367 45.7871 20.32C46.0071 20.2033 46.2571 20.145 46.5371 20.145C46.9037 20.145 47.2121 20.2483 47.4621 20.455C47.7154 20.6617 47.8754 20.9483 47.9421 21.315H46.7671C46.7237 21.1683 46.6387 21.095 46.5121 21.095C46.4221 21.095 46.3504 21.1367 46.2971 21.22C46.2471 21.3033 46.2221 21.4267 46.2221 21.59C46.2221 21.7533 46.2471 21.8767 46.2971 21.96C46.3504 22.0433 46.4221 22.085 46.5121 22.085C46.6387 22.085 46.7237 22.0117 46.7671 21.865H47.9421C47.8754 22.2317 47.7154 22.5183 47.4621 22.725C47.2121 22.9317 46.9037 23.035 46.5371 23.035C46.2571 23.035 46.0071 22.9767 45.7871 22.86C45.5704 22.7433 45.4004 22.5767 45.2771 22.36C45.1571 22.14 45.0971 21.8833 45.0971 21.59ZM50.0489 22.055V23H49.6289C48.8556 23 48.4689 22.615 48.4689 21.845V21.105H48.1189V20.18H48.4689V19.5H49.5789V20.18H50.0389V21.105H49.5789V21.865C49.5789 21.9317 49.5939 21.98 49.6239 22.01C49.6573 22.04 49.7106 22.055 49.7839 22.055H50.0489Z" fill="#FB8C00"/>
<defs>
<filter id="filter0_d_1414_1615" x="0" y="0" width="72" height="49" filterUnits="userSpaceOnUse" color-interpolation-filters="sRGB">
<feFlood flood-opacity="0" result="BackgroundImageFix"/>
<feColorMatrix in="SourceAlpha" type="matrix" values="0 0 0 0 0 0 0 0 0 0 0 0 0 0 0 0 0 0 127 0" result="hardAlpha"/>
<feOffset dx="4" dy="4"/>
<feGaussianBlur stdDeviation="7.5"/>
<feComposite in2="hardAlpha" operator="out"/>
<feColorMatrix type="matrix" values="0 0 0 0 0 0 0 0 0 0 0 0 0 0 0 0 0 0 0.25 0"/>
<feBlend mode="normal" in2="BackgroundImageFix" result="effect1_dropShadow_1414_1615"/>
<feBlend mode="normal" in="SourceGraphic" in2="effect1_dropShadow_1414_1615" result="shape"/>
</filter>
</defs>
</svg>
