<svg width="388" height="266" viewBox="0 0 388 266" fill="none" xmlns="http://www.w3.org/2000/svg">
<rect x="-1" width="389" height="266" fill="white"/>
<path d="M123.157 175.628C122.975 175.321 122.188 175.649 122.044 175.371C121.9 175.094 122.631 174.671 123.048 173.706C123.124 173.532 123.598 172.435 123.247 172.096C122.581 171.455 119.533 174.102 118.467 173.236C118.233 173.046 118.069 172.666 117.361 172.05C117.079 171.805 116.908 171.694 116.743 171.735C116.509 171.794 116.491 172.107 116.24 172.723C115.864 173.646 115.641 173.59 115.422 174.327C115.259 174.874 115.296 175.192 115.105 175.254C114.834 175.342 114.584 174.762 114.241 174.814C113.89 174.867 113.678 175.542 113.611 176.048C113.486 176.997 113.834 177.624 114.027 178.282C114.237 178.998 114.362 180.086 113.877 181.627L109.078 195.148C110.138 192.373 113.205 184.768 114.494 181.942C114.866 181.126 115.277 180.298 116.121 179.972C116.933 179.657 118.048 179.845 119.471 179.502C119.637 179.462 120.098 179.345 120.156 179.074C120.204 178.85 119.932 178.725 119.974 178.515C120.03 178.233 120.563 178.23 121.218 177.905C121.68 177.676 121.968 177.404 122.215 177.169C122.29 177.099 123.399 176.036 123.157 175.628H123.157Z" fill="#F2F2F2"/>
<path d="M104.277 182.745C104.074 182.746 104.008 183.227 103.83 183.218C103.652 183.209 103.656 182.728 103.302 182.244C103.239 182.157 102.837 181.608 102.57 181.683C102.063 181.824 102.483 184.084 101.75 184.358C101.589 184.418 101.355 184.388 100.848 184.558C100.647 184.626 100.543 184.677 100.516 184.77C100.477 184.902 100.625 185.001 100.855 185.302C101.2 185.753 101.108 185.847 101.407 186.167C101.628 186.405 101.795 186.478 101.77 186.59C101.735 186.748 101.378 186.703 101.305 186.887C101.23 187.074 101.5 187.373 101.729 187.552C102.159 187.887 102.567 187.897 102.945 187.992C103.357 188.096 103.927 188.349 104.544 189.031L109.795 195.288C108.739 193.967 105.892 190.267 104.876 188.819C104.583 188.401 104.296 187.961 104.379 187.452C104.459 186.963 104.873 186.47 105.115 185.673C105.143 185.58 105.219 185.32 105.102 185.213C105.006 185.125 104.867 185.222 104.776 185.141C104.654 185.032 104.806 184.769 104.835 184.354C104.856 184.061 104.805 183.842 104.762 183.652C104.749 183.595 104.547 182.744 104.277 182.745V182.745Z" fill="#F2F2F2"/>
<path d="M108.326 183.655L108.204 182.563L108.26 182.48C108.519 182.097 108.65 181.724 108.652 181.369C108.652 181.312 108.65 181.256 108.647 181.198C108.636 180.971 108.623 180.688 108.771 180.358C108.854 180.174 109.086 179.748 109.436 179.8C109.53 179.814 109.601 179.857 109.655 179.907C109.663 179.895 109.671 179.882 109.68 179.868C109.789 179.702 109.875 179.631 109.958 179.563C110.022 179.51 110.087 179.456 110.191 179.327C110.236 179.271 110.271 179.221 110.301 179.179C110.392 179.053 110.51 178.903 110.718 178.906C110.94 178.916 111.057 179.1 111.134 179.222C111.272 179.439 111.334 179.596 111.376 179.7C111.391 179.738 111.408 179.78 111.417 179.794C111.488 179.899 112.071 179.8 112.291 179.765C112.784 179.682 113.211 179.611 113.386 179.922C113.512 180.145 113.419 180.439 113.1 180.82C113.001 180.939 112.895 181.029 112.801 181.099C112.879 181.146 112.948 181.217 112.977 181.329C113.043 181.593 112.816 181.858 112.301 182.118C112.173 182.183 112.001 182.269 111.76 182.311C111.646 182.33 111.544 182.335 111.456 182.338C111.454 182.388 111.443 182.443 111.412 182.5C111.321 182.666 111.133 182.745 110.849 182.726C110.537 182.709 110.28 182.65 110.054 182.598C109.856 182.552 109.685 182.514 109.551 182.523C109.303 182.543 109.112 182.741 108.887 182.999L108.326 183.655Z" fill="#F2F2F2"/>
<path d="M108.894 177.154L107.869 177.549L107.775 177.516C107.339 177.363 106.944 177.331 106.6 177.419C106.546 177.433 106.492 177.45 106.437 177.467C106.219 177.535 105.949 177.62 105.592 177.561C105.393 177.527 104.922 177.41 104.884 177.059C104.873 176.965 104.897 176.885 104.932 176.82C104.918 176.815 104.904 176.81 104.888 176.806C104.7 176.742 104.609 176.677 104.522 176.614C104.455 176.566 104.386 176.516 104.235 176.449C104.169 176.419 104.112 176.397 104.064 176.379C103.919 176.324 103.744 176.248 103.694 176.045C103.648 175.828 103.796 175.668 103.894 175.563C104.069 175.374 104.205 175.274 104.295 175.208C104.328 175.183 104.365 175.156 104.375 175.144C104.459 175.048 104.216 174.51 104.125 174.306C103.921 173.85 103.744 173.455 104 173.206C104.183 173.028 104.492 173.044 104.941 173.256C105.081 173.322 105.195 173.401 105.287 173.474C105.312 173.387 105.364 173.302 105.464 173.246C105.704 173.115 106.018 173.267 106.399 173.7C106.494 173.807 106.622 173.951 106.723 174.174C106.771 174.279 106.801 174.377 106.826 174.461C106.876 174.45 106.932 174.447 106.994 174.463C107.178 174.508 107.302 174.67 107.355 174.949C107.419 175.255 107.426 175.519 107.433 175.752C107.44 175.954 107.446 176.129 107.488 176.256C107.571 176.492 107.811 176.626 108.118 176.778L108.894 177.154L108.894 177.154Z" fill="#F2F2F2"/>
<path d="M108.326 173.938L108.204 172.846L108.26 172.763C108.519 172.38 108.65 172.007 108.652 171.652C108.652 171.596 108.65 171.539 108.647 171.482C108.636 171.254 108.623 170.971 108.771 170.641C108.854 170.457 109.086 170.031 109.436 170.084C109.53 170.097 109.601 170.14 109.655 170.191C109.663 170.178 109.671 170.165 109.68 170.152C109.789 169.986 109.875 169.914 109.958 169.846C110.022 169.793 110.087 169.739 110.191 169.61C110.236 169.554 110.271 169.504 110.301 169.463C110.392 169.337 110.51 169.186 110.718 169.189C110.94 169.2 111.057 169.384 111.134 169.505C111.272 169.722 111.334 169.879 111.376 169.983C111.391 170.021 111.408 170.064 111.417 170.077C111.488 170.182 112.071 170.084 112.291 170.048C112.784 169.966 113.211 169.894 113.386 170.205C113.512 170.428 113.419 170.722 113.1 171.103C113.001 171.222 112.895 171.312 112.801 171.383C112.879 171.429 112.948 171.5 112.977 171.612C113.043 171.877 112.816 172.142 112.301 172.401C112.173 172.466 112.001 172.552 111.76 172.594C111.646 172.614 111.544 172.618 111.456 172.621C111.454 172.671 111.443 172.726 111.412 172.783C111.321 172.949 111.133 173.028 110.849 173.009C110.537 172.993 110.28 172.933 110.054 172.881C109.856 172.835 109.685 172.797 109.551 172.806C109.303 172.826 109.112 173.025 108.887 173.282L108.326 173.938Z" fill="#F2F2F2"/>
<path d="M109.444 195.13L109.215 194.987L109.159 194.722L109.215 194.987L108.948 195.017C108.944 194.992 108.929 194.935 108.907 194.846C108.788 194.358 108.424 192.873 108.12 190.533C107.908 188.9 107.788 187.221 107.764 185.542C107.739 183.86 107.819 182.587 107.882 181.564C107.931 180.792 107.989 180.057 108.047 179.341C108.199 177.429 108.344 175.622 108.236 173.622C108.213 173.175 108.163 172.246 107.62 171.257C107.305 170.683 106.871 170.174 106.33 169.744L106.666 169.321C107.263 169.797 107.743 170.361 108.093 170.998C108.695 172.094 108.75 173.107 108.776 173.593C108.885 175.629 108.739 177.453 108.585 179.384C108.528 180.097 108.469 180.829 108.421 181.598C108.358 182.611 108.279 183.873 108.304 185.533C108.328 187.192 108.446 188.851 108.655 190.463C108.955 192.774 109.314 194.237 109.432 194.718C109.495 194.974 109.508 195.028 109.444 195.13H109.444Z" fill="#F2F2F2"/>
<path d="M105.34 170.602C105.318 170.602 105.296 170.601 105.273 170.6C104.813 170.575 104.387 170.3 104.007 169.782C103.829 169.539 103.738 169.261 103.556 168.707C103.528 168.621 103.391 168.188 103.308 167.592C103.253 167.202 103.26 167.039 103.337 166.895C103.423 166.735 103.561 166.623 103.717 166.548C103.711 166.496 103.716 166.443 103.739 166.389C103.831 166.164 104.075 166.193 104.207 166.207C104.274 166.216 104.358 166.227 104.448 166.222C104.59 166.215 104.666 166.173 104.782 166.11C104.892 166.049 105.029 165.974 105.233 165.932C105.635 165.848 105.971 165.962 106.082 166C106.666 166.194 106.954 166.648 107.287 167.174C107.354 167.279 107.582 167.663 107.732 168.189C107.841 168.569 107.825 168.737 107.793 168.863C107.726 169.121 107.569 169.268 107.171 169.594C106.755 169.935 106.547 170.106 106.367 170.21C105.95 170.451 105.688 170.602 105.34 170.602Z" fill="#F2F2F2"/>
<path d="M276.925 175.973C276.743 175.666 275.956 175.995 275.811 175.716C275.667 175.439 276.398 175.017 276.816 174.051C276.891 173.877 277.366 172.78 277.014 172.442C276.348 171.8 273.301 174.448 272.234 173.581C272 173.391 271.837 173.012 271.128 172.395C270.846 172.15 270.676 172.039 270.511 172.081C270.277 172.139 270.258 172.452 270.007 173.068C269.631 173.992 269.409 173.936 269.189 174.673C269.027 175.22 269.064 175.538 268.872 175.6C268.601 175.687 268.352 175.107 268.008 175.159C267.658 175.212 267.446 175.888 267.379 176.394C267.253 177.343 267.602 177.969 267.795 178.628C268.005 179.343 268.129 180.432 267.645 181.972L262.846 195.493C263.905 192.719 266.973 185.113 268.262 182.287C268.634 181.471 269.045 180.644 269.888 180.317C270.701 180.003 271.816 180.19 273.238 179.848C273.404 179.808 273.865 179.691 273.923 179.419C273.971 179.195 273.7 179.07 273.742 178.86C273.798 178.579 274.331 178.575 274.986 178.25C275.448 178.021 275.736 177.749 275.983 177.515C276.058 177.444 277.167 176.381 276.925 175.973Z" fill="#F2F2F2"/>
<path d="M258.044 183.091C257.841 183.092 257.776 183.573 257.597 183.563C257.42 183.554 257.423 183.073 257.07 182.59C257.006 182.503 256.605 181.953 256.337 182.028C255.83 182.17 256.25 184.429 255.517 184.703C255.356 184.763 255.123 184.734 254.616 184.904C254.414 184.971 254.311 185.023 254.284 185.116C254.245 185.247 254.393 185.347 254.623 185.648C254.968 186.099 254.876 186.192 255.174 186.512C255.396 186.75 255.563 186.824 255.538 186.935C255.503 187.094 255.146 187.049 255.072 187.232C254.997 187.42 255.268 187.719 255.497 187.897C255.926 188.233 256.334 188.243 256.713 188.338C257.125 188.441 257.695 188.694 258.311 189.377L263.563 195.633C262.507 194.313 259.659 190.613 258.644 189.165C258.351 188.747 258.063 188.306 258.146 187.798C258.226 187.308 258.64 186.815 258.883 186.018C258.911 185.925 258.986 185.665 258.87 185.558C258.774 185.47 258.634 185.567 258.543 185.486C258.421 185.378 258.573 185.115 258.603 184.7C258.624 184.407 258.573 184.187 258.529 183.998C258.516 183.941 258.315 183.09 258.044 183.091V183.091Z" fill="#F2F2F2"/>
<path d="M262.094 184L261.972 182.908L262.028 182.825C262.287 182.443 262.418 182.069 262.42 181.714C262.42 181.658 262.418 181.601 262.415 181.544C262.404 181.316 262.391 181.033 262.539 180.703C262.622 180.519 262.854 180.093 263.204 180.146C263.298 180.159 263.369 180.202 263.423 180.253C263.431 180.24 263.439 180.228 263.448 180.214C263.557 180.048 263.643 179.977 263.726 179.908C263.79 179.855 263.855 179.801 263.959 179.672C264.004 179.616 264.039 179.567 264.069 179.525C264.16 179.399 264.278 179.249 264.486 179.251C264.708 179.262 264.825 179.446 264.902 179.568C265.04 179.785 265.103 179.941 265.144 180.045C265.159 180.083 265.176 180.126 265.185 180.139C265.256 180.244 265.839 180.146 266.059 180.11C266.552 180.028 266.979 179.957 267.155 180.268C267.281 180.49 267.187 180.784 266.868 181.165C266.769 181.284 266.663 181.374 266.569 181.445C266.647 181.491 266.716 181.562 266.745 181.674C266.811 181.939 266.584 182.204 266.069 182.463C265.941 182.528 265.769 182.615 265.528 182.656C265.414 182.676 265.312 182.681 265.224 182.683C265.222 182.734 265.211 182.789 265.18 182.845C265.089 183.011 264.901 183.09 264.618 183.071C264.305 183.055 264.048 182.995 263.822 182.943C263.624 182.898 263.453 182.859 263.319 182.868C263.071 182.888 262.88 183.087 262.655 183.345L262.094 184Z" fill="#F2F2F2"/>
<path d="M262.661 177.5L261.636 177.895L261.542 177.862C261.106 177.709 260.711 177.676 260.368 177.765C260.313 177.779 260.259 177.795 260.204 177.813C259.987 177.881 259.716 177.965 259.36 177.906C259.161 177.873 258.69 177.756 258.652 177.404C258.641 177.31 258.665 177.23 258.7 177.165C258.686 177.161 258.671 177.156 258.656 177.151C258.468 177.088 258.377 177.023 258.29 176.96C258.222 176.911 258.153 176.861 258.002 176.794C257.936 176.764 257.88 176.743 257.832 176.725C257.687 176.669 257.512 176.593 257.461 176.391C257.415 176.173 257.564 176.014 257.662 175.908C257.837 175.72 257.972 175.619 258.062 175.553C258.095 175.529 258.132 175.502 258.143 175.49C258.227 175.394 257.983 174.855 257.893 174.652C257.688 174.196 257.511 173.801 257.768 173.552C257.951 173.374 258.259 173.389 258.709 173.601C258.849 173.667 258.963 173.747 259.055 173.82C259.08 173.733 259.131 173.647 259.232 173.592C259.471 173.46 259.785 173.613 260.167 174.045C260.262 174.152 260.389 174.297 260.491 174.52C260.538 174.625 260.569 174.722 260.594 174.806C260.643 174.795 260.699 174.793 260.762 174.808C260.945 174.854 261.069 175.016 261.123 175.295C261.186 175.601 261.194 175.864 261.201 176.097C261.207 176.3 261.213 176.475 261.256 176.602C261.338 176.837 261.579 176.972 261.885 177.124L262.661 177.5L262.661 177.5Z" fill="#F2F2F2"/>
<path d="M262.094 174.283L261.972 173.191L262.028 173.109C262.287 172.726 262.418 172.352 262.42 171.997C262.42 171.941 262.418 171.885 262.415 171.827C262.404 171.599 262.391 171.316 262.539 170.986C262.622 170.802 262.854 170.376 263.204 170.429C263.298 170.442 263.369 170.485 263.423 170.536C263.431 170.523 263.439 170.511 263.448 170.497C263.557 170.331 263.643 170.26 263.726 170.191C263.79 170.139 263.855 170.084 263.959 169.956C264.004 169.899 264.039 169.85 264.069 169.808C264.16 169.682 264.278 169.532 264.486 169.534C264.708 169.545 264.825 169.729 264.902 169.851C265.04 170.068 265.103 170.225 265.144 170.328C265.159 170.366 265.176 170.409 265.185 170.422C265.256 170.528 265.839 170.429 266.059 170.393C266.552 170.311 266.979 170.24 267.155 170.551C267.281 170.773 267.187 171.067 266.868 171.449C266.769 171.567 266.663 171.657 266.569 171.728C266.647 171.774 266.716 171.846 266.745 171.957C266.811 172.222 266.584 172.487 266.069 172.747C265.941 172.811 265.769 172.898 265.528 172.939C265.414 172.959 265.312 172.964 265.224 172.966C265.222 173.017 265.211 173.072 265.18 173.128C265.089 173.294 264.901 173.373 264.618 173.354C264.305 173.338 264.048 173.278 263.822 173.226C263.624 173.181 263.453 173.142 263.319 173.151C263.071 173.171 262.88 173.37 262.655 173.628L262.094 174.283Z" fill="#F2F2F2"/>
<path d="M263.211 195.476L262.982 195.332L262.927 195.068L262.982 195.332L262.716 195.363C262.711 195.338 262.697 195.281 262.675 195.192C262.556 194.704 262.192 193.218 261.888 190.879C261.676 189.246 261.556 187.567 261.531 185.888C261.507 184.206 261.586 182.933 261.65 181.909C261.698 181.138 261.757 180.403 261.814 179.687C261.967 177.774 262.111 175.968 262.004 173.968C261.98 173.521 261.93 172.592 261.387 171.603C261.072 171.029 260.639 170.52 260.098 170.09L260.434 169.667C261.031 170.142 261.511 170.707 261.861 171.343C262.463 172.44 262.517 173.453 262.543 173.939C262.652 175.975 262.507 177.799 262.352 179.73C262.295 180.443 262.237 181.175 262.189 181.943C262.125 182.957 262.047 184.219 262.071 185.879C262.095 187.538 262.214 189.197 262.423 190.809C262.723 193.119 263.082 194.583 263.2 195.063C263.262 195.32 263.275 195.374 263.211 195.476Z" fill="#F2F2F2"/>
<path d="M259.108 170.947C259.086 170.947 259.063 170.947 259.04 170.945C258.581 170.92 258.155 170.645 257.775 170.128C257.597 169.884 257.506 169.606 257.324 169.052C257.296 168.967 257.158 168.533 257.075 167.937C257.021 167.548 257.027 167.385 257.105 167.241C257.19 167.081 257.329 166.969 257.485 166.893C257.478 166.842 257.484 166.788 257.506 166.734C257.598 166.509 257.843 166.539 257.975 166.553C258.042 166.561 258.126 166.572 258.216 166.568C258.357 166.561 258.434 166.519 258.549 166.455C258.66 166.395 258.797 166.319 259.001 166.278C259.402 166.194 259.739 166.308 259.85 166.345C260.434 166.54 260.722 166.994 261.055 167.519C261.121 167.625 261.349 168.008 261.5 168.534C261.608 168.914 261.593 169.083 261.56 169.208C261.494 169.466 261.337 169.614 260.939 169.939C260.523 170.28 260.314 170.451 260.135 170.555C259.718 170.796 259.456 170.947 259.108 170.947Z" fill="#F2F2F2"/>
<path d="M188.683 113.416C201.66 113.416 212.18 102.896 212.18 89.9189C212.18 76.9419 201.66 66.4219 188.683 66.4219C175.706 66.4219 165.186 76.9419 165.186 89.9189C165.186 102.896 175.706 113.416 188.683 113.416Z" fill="#FF0000"/>
<path d="M279.466 194.987C279.466 195.147 279.336 195.277 279.176 195.277H78V194.696H279.176C279.336 194.696 279.466 194.826 279.466 194.987V194.987Z" fill="#E6E6E6"/>
<path d="M249.153 194.965C249.153 208.132 250.536 217.77 236.196 218.807C220.797 219.92 223.238 208.132 223.238 194.965C223.238 181.797 221.164 168.703 236.196 171.122C243.261 172.259 249.153 181.797 249.153 194.965Z" fill="#3F3D56"/>
<path d="M227.384 211.551C228.529 211.551 229.458 204.125 229.458 194.965C229.458 185.804 228.529 178.378 227.384 178.378C226.239 178.378 225.311 185.804 225.311 194.965C225.311 204.125 226.239 211.551 227.384 211.551Z" fill="#E6E6E6"/>
<path d="M145.365 173.76C145.365 185.38 146.585 193.885 133.93 194.8C120.341 195.783 122.495 185.38 122.495 173.76C122.495 162.139 120.665 150.584 133.93 152.719C140.165 153.722 145.365 162.139 145.365 173.76Z" fill="#3F3D56"/>
<path d="M126.154 188.396C127.164 188.396 127.983 181.843 127.983 173.76C127.983 165.676 127.164 159.123 126.154 159.123C125.143 159.123 124.324 165.676 124.324 173.76C124.324 181.843 125.143 188.396 126.154 188.396Z" fill="#E6E6E6"/>
<path d="M165.013 194.792C165.013 207.96 166.395 217.598 152.055 218.634C136.657 219.747 139.097 207.96 139.097 194.792C139.097 181.624 137.024 168.53 152.055 170.949C159.121 172.086 165.013 181.624 165.013 194.792Z" fill="#3F3D56"/>
<path d="M143.244 211.378C144.389 211.378 145.317 203.952 145.317 194.792C145.317 185.631 144.389 178.206 143.244 178.206C142.099 178.206 141.171 185.631 141.171 194.792C141.171 203.952 142.099 211.378 143.244 211.378Z" fill="#E6E6E6"/>
<path d="M124.066 145.897V154.071L121.82 157.818L122.511 170.949L123.071 171.295L122.684 157.991C126.621 156.526 127.908 159.225 127.522 164.557L126.831 173.541L137.888 180.452L139.27 166.284L144.453 163.865L150.155 187.881H245.68C249.618 187.881 252.765 184.604 252.605 180.67L251.4 150.908L248.147 147.655L245.134 112.802C244.382 104.11 237.012 97.4944 228.29 97.6824L168.534 98.9702C165.292 99.0401 162.089 99.6928 159.078 100.897L144.626 106.678L135.298 116.006L133.914 138.468L130.387 138.161C127.85 137.941 125.536 139.617 124.956 142.097L124.066 145.897H124.066Z" fill="#E6E6E6"/>
<path d="M154.993 178.206C156.901 178.206 158.448 176.659 158.448 174.75C158.448 172.842 156.901 171.295 154.993 171.295C153.084 171.295 151.537 172.842 151.537 174.75C151.537 176.659 153.084 178.206 154.993 178.206Z" fill="#3F3D56"/>
<path d="M162.94 178.206C164.849 178.206 166.396 176.659 166.396 174.75C166.396 172.842 164.849 171.295 162.94 171.295C161.032 171.295 159.485 172.842 159.485 174.75C159.485 176.659 161.032 178.206 162.94 178.206Z" fill="#3F3D56"/>
<path d="M240.342 178.206C242.251 178.206 243.798 176.659 243.798 174.75C243.798 172.842 242.251 171.295 240.342 171.295C238.434 171.295 236.887 172.842 236.887 174.75C236.887 176.659 238.434 178.206 240.342 178.206Z" fill="#3F3D56"/>
<path d="M248.289 178.206C250.198 178.206 251.745 176.659 251.745 174.75C251.745 172.842 250.198 171.295 248.289 171.295C246.381 171.295 244.834 172.842 244.834 174.75C244.834 176.659 246.381 178.206 248.289 178.206Z" fill="#3F3D56"/>
<path d="M242.898 142.293H161.662C161.041 142.293 160.463 142.046 160.034 141.597C159.606 141.147 159.386 140.558 159.415 139.938L160.602 114.843C160.658 113.656 161.633 112.715 162.82 112.699L239.526 111.712C240.658 111.701 241.64 112.541 241.786 113.675L245.129 139.758C245.211 140.399 245.013 141.045 244.586 141.53C244.159 142.015 243.544 142.293 242.898 142.293H242.898Z" fill="white"/>
<path d="M150.32 141.06H145.049C144.423 141.06 143.821 140.796 143.397 140.337C142.972 139.878 142.757 139.257 142.806 138.633L144.323 119.379C144.407 118.322 145.198 117.479 146.248 117.329L151.694 116.551C152.376 116.454 153.055 116.669 153.557 117.142C154.058 117.615 154.312 118.281 154.254 118.967L152.561 138.999C152.462 140.174 151.498 141.06 150.32 141.06V141.06Z" fill="white"/>
<path d="M138.198 140.57C138.144 140.57 138.089 140.568 138.034 140.565L137.415 140.52C136.804 140.476 136.25 140.194 135.855 139.726C135.46 139.257 135.276 138.663 135.337 138.053L137.04 121.026C137.141 120.018 137.909 119.198 138.908 119.031C139.589 118.917 140.274 119.118 140.786 119.581C141.298 120.043 141.567 120.704 141.523 121.393L140.439 138.463C140.401 139.066 140.129 139.617 139.674 140.015C139.26 140.376 138.742 140.57 138.198 140.57L138.198 140.57Z" fill="white"/>
<path d="M129.628 175.308L128.731 155.745C128.731 155.745 126.658 152.981 125.276 153.672C123.894 154.363 121.841 158.206 121.841 158.206C121.841 158.206 125.847 157.944 125.734 162.2C125.621 166.457 126.421 173.344 126.421 173.344L129.628 175.308Z" fill="#CCCCCC"/>
<path d="M137.972 180.419L138.406 165.824L142.802 160.633C142.802 160.633 148.676 159.364 148.552 166.02C148.427 172.677 150.328 188.054 150.328 188.054L146.032 185.356C146.032 185.356 144.972 168.876 141.862 167.148C138.752 165.42 139.788 166.803 139.788 166.803L137.972 180.419H137.972Z" fill="#CCCCCC"/>
<path d="M133.395 143.006L129.989 141.059H130.361C130.892 141.059 131.323 140.629 131.323 140.098V131.655C131.323 131.124 130.892 130.693 130.361 130.693H126.756C126.225 130.693 125.794 131.124 125.794 131.655V140.098C125.794 140.629 126.225 141.059 126.756 141.059H128.596L133.052 143.605L133.395 143.005V143.006Z" fill="#3F3D56"/>
<path d="M137.996 155.656L135.339 154.892C134.697 154.707 134.027 155.078 133.843 155.72C133.658 156.362 134.029 157.032 134.671 157.216L137.327 157.98C137.969 158.165 138.639 157.794 138.824 157.152C139.008 156.51 138.638 155.84 137.996 155.656Z" fill="#3F3D56"/>
<path d="M246.227 131.125L234.867 130.635C234.2 130.606 233.635 131.123 233.607 131.791C233.578 132.458 234.095 133.022 234.763 133.051L246.122 133.542C246.79 133.57 247.354 133.053 247.383 132.385C247.411 131.718 246.894 131.154 246.227 131.125Z" fill="#3F3D56"/>
<path d="M256.938 153.931L245.579 153.441C244.912 153.412 244.347 153.929 244.318 154.597C244.29 155.264 244.807 155.828 245.475 155.857L256.834 156.347C257.501 156.376 258.066 155.859 258.095 155.191C258.123 154.524 257.606 153.96 256.938 153.931Z" fill="#3F3D56"/>
<path d="M210.625 180.279C225.129 180.279 236.887 168.521 236.887 154.017C236.887 139.514 225.129 127.756 210.625 127.756C196.121 127.756 184.364 139.514 184.364 154.017C184.364 168.521 196.121 180.279 210.625 180.279Z" fill="#3F3D56"/>
<path d="M210.625 169.567C219.213 169.567 226.175 162.605 226.175 154.018C226.175 145.43 219.213 138.468 210.625 138.468C202.037 138.468 195.076 145.43 195.076 154.018C195.076 162.605 202.037 169.567 210.625 169.567Z" fill="#E6E6E6"/>
<path d="M245.418 101.863C245.551 103.396 246.449 104.571 247.424 104.486C248.4 104.402 249.083 103.091 248.951 101.558C248.906 100.944 248.716 100.351 248.395 99.8262L247.753 93.3381L244.714 93.7043L245.67 100.062C245.443 100.633 245.357 101.251 245.418 101.863L245.418 101.863Z" fill="#FFB6B6"/>
<path d="M236.625 64.305C236.625 64.305 239.977 63.3607 241.266 64.9595C242.555 66.5583 247.361 82.2587 247.361 82.2587L248.854 99.1563L244.095 97.7162L242.242 84.3901L239.133 77.4792L236.625 64.305Z" fill="#FB8C00"/>
<path d="M235.531 54.1404H225.313V63.829H235.531V54.1404Z" fill="#2F2E41"/>
<path d="M230.314 59.0765C233.065 59.0765 235.296 56.8462 235.296 54.0949C235.296 51.3436 233.065 49.1133 230.314 49.1133C227.563 49.1133 225.333 51.3436 225.333 54.0949C225.333 56.8462 227.563 59.0765 230.314 59.0765Z" fill="#FFB6B6"/>
<path d="M227.956 46.0371C224.772 46.5299 224.924 47.713 223.904 48.3271C222.108 49.4092 221.4 52.5337 222.348 54.5955C222.602 55.1464 223.136 55.8979 222.877 56.7094C222.678 57.3323 222.104 57.6998 221.996 57.7663C221.114 58.311 221.69 57.663 221.291 58.1186C220.851 58.6215 221.533 59.3319 221.115 60.2325C220.745 61.0309 219.981 60.9635 219.882 61.4656C219.711 62.3301 221.671 64.0685 223.757 63.9318C225.615 63.8101 226.995 62.2398 227.457 60.761C227.766 59.7704 227.9 58.0664 227.104 57.2379C226.993 57.1217 226.688 56.8402 226.4 56.3571C226.172 55.9747 225.872 55.4714 226.047 55.124C226.235 54.7538 226.766 54.9487 227.104 54.5955C227.563 54.1166 227.018 53.3074 227.104 52.4816C227.251 51.0833 229.232 49.4015 231.332 49.6631C233.715 49.9599 234.589 52.5508 234.679 52.834C234.866 53.4208 234.863 53.9885 234.855 55.124C234.845 56.7535 234.838 57.7748 234.327 58.8233C233.592 60.3313 232.655 60.1684 232.389 61.2894C231.974 63.0374 233.927 64.7928 234.151 64.9887C235.807 66.4408 238.309 66.8774 238.731 66.2218C239.111 65.631 237.442 64.712 237.498 62.8748C237.546 61.2828 238.834 60.7974 238.555 59.704C238.247 58.5005 236.606 58.775 235.912 57.414C235.265 56.1436 236.458 55.4388 236.264 52.834C236.224 52.2829 236.051 50.7015 235.031 49.1347C234.582 48.4444 234.126 47.7424 233.27 47.3731C232.312 46.9597 229.64 45.7765 227.956 46.0371V46.0371Z" fill="#2F2E41"/>
<path d="M225.842 50.4411C225.971 51.5319 227.609 52.0665 228.308 52.2026C228.604 52.2603 229.605 52.4552 230.598 52.0265C230.965 51.868 231.099 51.7247 231.479 51.6742C231.993 51.6058 232.252 51.8013 233.064 52.0265C233.968 52.2769 234.419 52.4022 234.65 52.2026C235.026 51.8765 234.737 50.8095 234.297 50.0888C233.485 48.7562 231.997 48.3435 231.303 48.1511C230.51 47.9312 228.901 47.4849 227.427 48.3272C227.23 48.4398 225.711 49.3328 225.842 50.4411V50.4411Z" fill="#2F2E41"/>
<path d="M250.091 148.453L252.633 148.513L254.051 137.09L250.298 137.002L250.091 148.453Z" fill="#FFB6B6"/>
<path d="M258.814 153.758C258.814 154.187 258.509 154.536 258.133 154.536H253.087C253.087 154.536 252.59 152.539 250.565 151.68L250.425 154.536H247.822L248.137 149.944C248.137 149.944 247.441 147.488 248.887 146.232C250.333 144.976 249.162 145.151 249.162 145.151L249.731 142.309L253.665 142.772L253.694 147.233L255.603 151.661L258.404 153.044C258.653 153.167 258.814 153.448 258.814 153.758L258.814 153.758H258.814Z" fill="#2F2E41"/>
<path d="M238.531 126.08L241.017 125.545L239.729 114.107L236.06 114.897L238.531 126.08Z" fill="#FFB6B6"/>
<path d="M248.252 129.202C248.352 129.619 248.137 130.029 247.771 130.117L242.864 131.295C242.864 131.295 241.915 129.47 239.745 129.107L240.276 131.916L237.744 132.524L236.979 127.986C236.979 127.986 235.729 125.76 236.842 124.201C237.955 122.642 236.857 123.086 236.857 123.086L236.747 120.19L240.68 119.721L241.75 124.052L244.64 127.912L247.686 128.604C247.957 128.665 248.179 128.9 248.252 129.202H248.252V129.202Z" fill="#2F2E41"/>
<path d="M233.777 59.6838L227.557 60.0294L225.829 63.4848L219.264 66.9403L220.3 83.9794L217.932 92.5497L218.227 94.9294L241.379 94.2383L239.996 68.668L240.342 64.5215L235.85 63.1393L233.777 59.6838Z" fill="#FB8C00"/>
<path d="M218.4 91.6467C218.4 91.6467 213.217 100.805 218.4 102.1C220.706 102.676 223.149 103.064 225.15 103.318C227.546 103.621 229.752 101.977 230.149 99.5942L235.678 118.599L241.206 117.217L242.243 107.324L248.961 114.042L248.117 141.06L254.337 140.714L260.902 111.343C260.902 111.343 261.248 109.269 256.065 106.505C250.882 103.741 241.552 94.7566 241.552 94.7566L225.657 89.9189L218.4 91.6467Z" fill="#2F2E41"/>
<path d="M229.284 97.6936L220.3 91.8194L231.358 80.0708C231.358 80.0708 237.578 77.652 239.305 86.9817C241.033 96.3114 242.07 104.605 242.07 104.605L229.284 97.6936Z" fill="#2F2E41"/>
<path d="M210.748 80.1566L211.142 77.4793C211.429 75.5281 210.135 73.8252 208.379 73.4061V72.2961C208.379 71.3419 207.606 70.5684 206.652 70.5684C205.698 70.5684 204.924 71.3419 204.924 72.2961V73.7767L198.359 75.1693V73.3327C198.359 72.3785 197.585 71.605 196.631 71.605C195.677 71.605 194.903 72.3785 194.903 73.3327V75.0783L194.251 74.908C192.301 74.3995 190.762 76.6359 191.974 78.2446C191.99 78.2654 192.005 78.2862 192.022 78.3071C193.64 80.3878 194.102 82.2373 194.102 82.2373L192.946 88.4795L194.263 101.457C194.433 103.13 195.872 104.383 197.552 104.321L210.335 103.848C212.014 103.785 213.358 102.432 213.404 100.753C213.566 94.7709 213.585 81.7524 210.748 80.1566V80.1566Z" fill="#3F3D56"/>
<path d="M199.304 102.581C199.125 102.581 198.973 102.443 198.96 102.261L198.266 93.0135C198.252 92.8232 198.395 92.6573 198.585 92.6431C198.773 92.6283 198.941 92.7715 198.955 92.9619L199.649 102.21C199.663 102.4 199.52 102.566 199.33 102.58C199.321 102.581 199.313 102.581 199.304 102.581Z" fill="#FFB6B6"/>
<path d="M194.102 82.5828C193.933 82.5828 193.786 82.4592 193.761 82.2874C193.733 82.0986 193.863 81.9231 194.052 81.8955L210.752 79.448C210.941 79.4206 211.116 79.5509 211.144 79.7397C211.172 79.9285 211.041 80.104 210.852 80.1316L194.152 82.5791C194.135 82.5817 194.119 82.5828 194.102 82.5828Z" fill="#FFB6B6"/>
<path d="M289.234 143.336L289.392 130.988L284.652 129.685L284.796 143.338L283.705 153.427L283.734 153.438C283.276 153.898 282.906 154.631 282.748 155.499C282.459 157.081 282.988 158.503 283.927 158.674C284.867 158.845 285.863 157.701 286.151 156.118C286.269 155.469 286.248 154.848 286.119 154.328L286.161 154.343L289.234 143.336Z" fill="#A0616A"/>
<path d="M280.614 114.311C280.614 114.311 282.765 112.666 284.283 115.07C285.801 117.474 289.977 129.621 289.977 129.621C289.977 129.621 291.184 135.189 290.897 136.011C290.61 136.833 290.23 144.072 290.23 144.072L284.297 142.996L284.441 136.011L278.788 126.987L280.614 114.311V114.311Z" fill="#CCCCCC"/>
<path d="M240.881 109.826L249.195 118.957L253.549 116.674L244.123 106.795L238.032 98.6783L238.004 98.6899C238.024 98.0419 237.794 97.2525 237.317 96.5109C236.447 95.1576 235.091 94.4794 234.287 94.9959C233.484 95.5124 233.538 97.0282 234.408 98.3815C234.765 98.937 235.204 99.3763 235.653 99.6683L235.612 99.6856L240.881 109.826H240.881Z" fill="#A0616A"/>
<path d="M267.471 125.15C267.471 125.15 267.022 127.821 264.271 127.1C261.52 126.38 250.177 120.355 250.177 120.355C250.177 120.355 245.493 117.111 245.142 116.314C244.79 115.517 240.126 109.968 240.126 109.968L245.196 106.704L249.859 111.906L260.151 114.641L267.471 125.15V125.15Z" fill="#CCCCCC"/>
<path d="M269.046 107.33C272.693 107.33 275.649 104.374 275.649 100.728C275.649 97.0813 272.693 94.1252 269.046 94.1252C265.4 94.1252 262.444 97.0813 262.444 100.728C262.444 104.374 265.4 107.33 269.046 107.33Z" fill="#A0616A"/>
<path d="M280.629 216.394L276.531 216.393L274.582 200.587L280.63 200.587L280.629 216.394Z" fill="#A0616A"/>
<path d="M266.589 216.301C266.461 216.516 266.394 217.209 266.394 217.459C266.394 218.227 267.017 218.85 267.785 218.85H280.475C280.999 218.85 281.424 218.425 281.424 217.901V217.373C281.424 217.373 282.052 215.785 280.76 213.827C280.76 213.827 279.153 215.36 276.753 212.96L276.045 211.677L270.921 215.425L268.081 215.774C267.46 215.851 266.909 215.762 266.589 216.301H266.589Z" fill="#2F2E41"/>
<path d="M268.88 216.394L264.782 216.393L262.833 200.587L268.881 200.587L268.88 216.394Z" fill="#A0616A"/>
<path d="M254.84 216.301C254.713 216.516 254.646 217.209 254.646 217.459C254.646 218.227 255.268 218.85 256.036 218.85H268.727C269.251 218.85 269.676 218.425 269.676 217.901V217.373C269.676 217.373 270.304 215.785 269.011 213.827C269.011 213.827 267.405 215.36 265.004 212.96L264.296 211.677L259.172 215.425L256.332 215.774C255.711 215.851 255.16 215.762 254.84 216.301H254.84Z" fill="#2F2E41"/>
<path d="M283.535 147.798L256.928 149.18L262.802 209.305L268.677 208.959L270.75 172.677L271.614 159.719L275.137 207.965L281.116 207.922L283.535 147.798Z" fill="#2F2E41"/>
<path d="M275.653 109.097L265.576 108.751L258.829 115.461V137.441L256.194 151.253C256.194 151.253 273.916 149.525 277.39 152.981C280.865 156.436 287.12 154.017 287.12 154.017L283.993 135.743L282.603 114.625L275.653 109.097Z" fill="#CCCCCC"/>
<path d="M271.953 107.196L266.336 105.869L265.469 102.464C265.469 102.464 265.448 100.858 264.69 100.679C263.933 100.5 262.596 99.3844 262.596 99.3844L263.891 97.2898C263.891 97.2898 260.77 96.9526 261.707 96.3737C262.644 95.7949 262.779 96.0557 262.912 94.6581C263.187 91.7664 272.036 92.1885 272.723 93.7751C272.723 93.7751 273.86 94.0436 274.438 94.9806C275.017 95.9175 275.307 96.3859 275.686 96.4754C276.065 96.565 276.265 97.4124 276.265 97.4124C276.265 97.4124 277.601 98.5283 277.133 98.8177C276.664 99.1072 276.306 100.623 276.306 100.623C276.306 100.623 277.553 102.118 274.764 105.46L273.277 107.851L271.953 107.196V107.196Z" fill="#2F2E41"/>
<path d="M279.166 116.907L279.559 114.229C279.846 112.278 278.552 110.575 276.797 110.156V109.046C276.797 108.092 276.023 107.318 275.069 107.318C274.115 107.318 273.342 108.092 273.342 109.046V110.527L266.776 111.919V110.083C266.776 109.129 266.003 108.355 265.048 108.355C264.094 108.355 263.321 109.129 263.321 110.083V111.828L262.668 111.658C260.719 111.15 259.179 113.386 260.391 114.995C260.407 115.015 260.423 115.036 260.439 115.057C262.057 117.138 262.52 118.987 262.52 118.987L261.364 125.229L262.68 138.207C262.85 139.88 264.29 141.133 265.97 141.071L278.753 140.598C280.431 140.535 281.775 139.182 281.821 137.503C281.984 131.521 282.003 118.502 279.166 116.907V116.907Z" fill="#3F3D56"/>
<path d="M267.721 139.331C267.542 139.331 267.391 139.193 267.377 139.011L266.684 129.763C266.669 129.573 266.812 129.407 267.002 129.393C267.191 129.378 267.358 129.522 267.373 129.712L268.066 138.96C268.081 139.15 267.938 139.316 267.748 139.33C267.739 139.331 267.73 139.331 267.721 139.331Z" fill="#FFB6B6"/>
<path d="M262.519 119.333C262.351 119.333 262.203 119.209 262.178 119.037C262.15 118.849 262.281 118.673 262.47 118.645L279.17 116.198C279.358 116.171 279.534 116.301 279.562 116.49C279.589 116.678 279.459 116.854 279.27 116.882L262.57 119.329C262.553 119.332 262.536 119.333 262.519 119.333Z" fill="#FFB6B6"/>
<path d="M263.281 139.884L256.755 124.128L258.483 124.819L265.433 138.779L263.281 139.884Z" fill="#3F3D56"/>
<path d="M304 218.829C304 218.989 303.87 219.119 303.71 219.119H102.534V218.539H303.71C303.87 218.539 304 218.669 304 218.829V218.829Z" fill="#E6E6E6"/>
<path d="M232.692 95.6445C233.812 96.6988 235.265 96.9752 235.936 96.2618C236.606 95.5485 236.242 94.1159 235.12 93.0614C234.678 92.634 234.14 92.3187 233.551 92.1419L228.747 87.7349L226.727 90.0337L231.678 94.1342C231.89 94.7114 232.238 95.2293 232.692 95.6445Z" fill="#FFB6B6"/>
<path d="M228.58 72.8116C228.58 72.8116 222.722 65.5141 220.473 66.0763C217.709 66.7674 218.4 69.5317 215.54 76.9251C214.824 78.7767 214.072 80.5712 215.518 81.9323L219.502 85.6852L227.997 92.8477L231.415 89.2702L224.625 80.5152L228.58 72.8116L228.58 72.8116Z" fill="#FB8C00"/>
</svg>
