<svg width="388" height="266" viewBox="0 0 388 266" fill="none" xmlns="http://www.w3.org/2000/svg">
<rect x="-1" width="389" height="266" fill="white"/>
<path d="M305 83C305 85.6704 304.738 88.2802 304.238 90.8037C304.083 91.5951 303.902 92.3778 303.7 93.1519C303.3 94.6852 302.81 96.1815 302.237 97.637C302.159 97.837 302.079 98.0358 301.996 98.2346C301.793 98.7296 301.579 99.2198 301.356 99.7037C301.237 99.963 301.115 100.221 300.989 100.478C300.519 101.447 300.009 102.395 299.462 103.319C298.841 104.37 298.173 105.393 297.459 106.379C296.183 108.149 294.764 109.811 293.221 111.346C285.988 118.549 276.014 123 265 123C253.936 123 243.92 118.507 236.679 111.247C235.186 109.751 233.811 108.137 232.57 106.42C231.14 104.443 229.885 102.33 228.831 100.102C228.657 99.737 228.489 99.3679 228.327 98.9963C228.306 98.9506 228.288 98.9062 228.268 98.8605C228.02 98.2889 227.786 97.7099 227.565 97.1247C227.368 96.6012 227.18 96.0716 227.005 95.537C226.746 94.7519 226.51 93.9568 226.3 93.1506C226.13 92.5012 225.975 91.8444 225.838 91.1827C225.34 88.7864 225.056 86.3123 225.009 83.7802C225.002 83.521 225 83.2605 225 83C225 81.8309 225.051 80.6741 225.148 79.5309C225.183 79.1333 225.222 78.737 225.268 78.3432C225.773 73.9877 226.978 69.8457 228.767 66.0321C229.227 65.0506 229.726 64.0914 230.262 63.1556C232.244 59.6926 234.73 56.5543 237.619 53.842C238.022 53.4617 238.433 53.0914 238.853 52.7296C245.864 46.6667 255.004 43 265 43C287.091 43 305 60.9086 305 83Z" fill="#F2F2F2"/>
<path d="M285.432 71.7712H283.937V82.3866H285.432V71.7712Z" fill="#3F3D56"/>
<path d="M285.436 71.6371L285.382 71.7717L284.873 73.0223L283.937 72.6421L282.591 72.0964C274.24 69.4156 263.684 68.0438 259.663 62.7902L259.401 62.6841C257.719 64.0801 256.55 64.1618 256.459 61.489L256.198 61.3828C249.335 62.7938 243.401 58.7648 237.619 53.8421C238.022 53.4618 238.433 53.0915 238.853 52.7297C246.982 52.9576 253.914 54.3681 256.63 59.9446L256.893 60.052L260.052 61.3334L260.316 61.4408C267.334 59.961 275.218 65.2952 283.11 70.6927L285.436 71.6371Z" fill="#3F3D56"/>
<path d="M297.459 106.379C296.183 108.149 294.764 109.811 293.221 111.346C275.437 111.693 254.006 111.649 236.679 111.247C235.186 109.751 233.811 108.137 232.57 106.42C236.169 106.32 239.991 106.241 243.955 106.179C245.525 106.153 247.117 106.132 248.727 106.112C250.326 106.095 251.942 106.079 253.57 106.065H253.572C268.368 105.946 284.195 106.056 297.459 106.379Z" fill="#D0CDE1"/>
<path d="M303.7 93.1519C303.3 94.6852 302.81 96.1815 302.237 97.637C302.159 97.837 302.079 98.0358 301.996 98.2346H300.084V93.1519H303.7Z" fill="#3F3D56"/>
<path d="M302.237 97.637C302.159 97.837 302.079 98.0357 301.996 98.2345C301.792 98.7296 301.579 99.2197 301.355 99.7036C301.237 99.9629 301.115 100.221 300.989 100.478C300.518 101.447 300.008 102.395 299.462 103.318C280.353 105.545 262.669 106.078 247.755 103.318V97.637H302.237Z" fill="#3F3D56"/>
<path d="M301.356 90.8815V99.7038C301.237 99.963 301.115 100.221 300.989 100.478C295.562 97.8281 290.6 98.1442 285.956 100.478V81.1161C289.716 78.8682 293.54 78.4982 297.468 81.1161L301.077 90.1791L301.356 90.8815Z" fill="#D0CDE1"/>
<path d="M288.348 82.3118H294.926V88.8903C292.757 90.0489 290.564 90.0242 288.348 88.8903C287.205 86.6974 287.205 84.5046 288.348 82.3118Z" fill="white"/>
<path d="M299.86 88.9652C298.996 89.9386 297.41 89.5902 295.674 88.9652V82.3867H297.468L299.86 88.9652Z" fill="white"/>
<path d="M290.142 92.6282H288.646V95.4689H290.142V92.6282Z" fill="#3F3D56"/>
<path d="M296.944 86.573H297.019C297.804 86.573 298.439 87.2089 298.439 87.9934V87.9934C298.439 88.7778 297.804 89.4137 297.019 89.4137H296.944V86.573Z" fill="#3F3D56"/>
<path d="M241.326 97.637H241.401C242.185 97.637 242.821 98.2729 242.821 99.0573V99.0573C242.821 99.8418 242.185 100.478 241.401 100.478H241.326V97.637Z" fill="#3F3D56"/>
<path d="M304.238 90.8037C304.083 91.5951 303.902 92.3778 303.7 93.1519C303.3 94.6852 302.81 96.1815 302.237 97.6371C302.159 97.8371 302.079 98.0358 301.996 98.2346C301.793 98.7297 301.579 99.2198 301.356 99.7037C301.237 99.963 301.115 100.221 300.989 100.478H300.309L300.228 98.2346L300.207 97.6371L300.084 94.1568L299.935 89.9543L301.077 90.179L304.238 90.8037Z" fill="#D0CDE1"/>
<path d="M248.727 108.775C251.865 108.775 254.408 106.232 254.408 103.094C254.408 99.9563 251.865 97.4126 248.727 97.4126C245.589 97.4126 243.045 99.9563 243.045 103.094C243.045 106.232 245.589 108.775 248.727 108.775Z" fill="#3F3D56"/>
<path d="M248.727 106.084C250.379 106.084 251.717 104.745 251.717 103.094C251.717 101.443 250.379 100.104 248.727 100.104C247.076 100.104 245.737 101.443 245.737 103.094C245.737 104.745 247.076 106.084 248.727 106.084Z" fill="#D0CDE1"/>
<path d="M286.404 96.964H286.404V78.4246H283.264C282.641 79.5987 282.325 81.3841 282.212 83.5755C281.828 91.0649 275.696 96.964 268.196 96.964H241.251V98.3096H282.997C283.086 99.2306 283.176 100.155 283.264 101.076L286.404 101.076V98.3096H286.404V96.964Z" fill="#3F3D56"/>
<path d="M262.125 90.7577L262.969 90.1379L268.149 97.1869L267.305 97.8067C263.415 97.3266 261.706 94.9612 262.125 90.7577Z" fill="#3F3D56"/>
<path d="M270.757 66.9236L271.713 67.3489L261.368 97.8108L260.412 97.3855C261.694 89.0381 265.633 73.7657 270.757 66.9236Z" fill="#3F3D56"/>
<path d="M297.842 89.2642H296.347V89.8622H297.842V89.2642Z" fill="#3F3D56"/>
<path d="M284.413 80.4845C284.414 80.4734 284.414 80.4634 284.412 80.4531C284.403 80.3699 284.33 80.3116 284.248 80.3208L283.284 80.4291L249.433 81.6529L249.134 81.6858C249.069 81.6929 249.016 81.7424 249.004 81.8081C248.99 81.8895 249.044 81.9669 249.125 81.9814L283.69 86.2899C283.772 86.2984 283.844 86.2373 283.853 86.1548L284.413 80.4845ZM250.19 81.8686L283.229 80.7354L284.097 80.6386L283.571 85.9651L250.19 81.8686Z" fill="#3F3D56"/>
<path d="M260.052 61.3332L259.401 62.6838L250.584 80.9629L256.459 61.4888L256.893 60.0517L256.63 59.9443L256.198 61.3826L250.136 81.6098L250.072 81.9036C250.057 81.9678 250.086 82.0332 250.146 82.0653C250.217 82.1061 250.309 82.0801 250.348 82.0073L259.663 62.79L260.316 61.4406L260.052 61.3332Z" fill="#3F3D56"/>
<path d="M231.269 82.0284L230.836 77.9382L230.717 76.8111L230.105 71.0234L229.734 67.5061C229.726 67.4308 229.662 67.3728 229.585 67.3728C229.509 67.3728 229.445 67.4296 229.436 67.5049L229.032 71.0234L228.292 77.4926L228.154 78.6888L227.758 82.1456L227.206 86.9642C227.205 86.9691 227.205 86.974 227.205 86.9802C227.204 87.0617 227.271 87.1296 227.353 87.1308L229.151 87.1481L231.646 87.1716H231.647C231.652 87.1716 231.657 87.1703 231.662 87.1703C231.745 87.1617 231.804 87.0876 231.795 87.0061L231.269 82.0284H231.269ZM229.79 86.8543L229.075 86.8481L227.522 86.8333L227.972 82.9098V82.9086L228.466 78.6024L228.603 77.4049L229.335 71.0234L229.579 68.8876L229.805 71.0234L230.426 76.8926L230.545 78.0197L230.977 82.1098L231.48 86.8703L229.79 86.8543H229.79Z" fill="#3F3D56"/>
<path d="M253.4 87.9346L252.595 88.3741L250.295 89.0173L248.367 89.558L244.179 90.7296L242.251 91.2691C236.257 90.2859 233.23 92.3555 230.369 94.5951L228.441 95.1346L227.005 95.537C226.746 94.7518 226.51 93.9568 226.3 93.1506C226.13 92.5012 225.975 91.8444 225.838 91.1827C225.34 88.7864 225.056 86.3123 225.009 83.7802C225.002 83.521 225 83.2605 225 83C225 81.8309 225.051 80.6741 225.148 79.5309C225.183 79.1333 225.222 78.737 225.268 78.3432L228.291 77.4926L228.602 77.4049L230.426 76.8926L230.717 76.8111L235.346 75.5086C238.904 75.2573 241.615 76.8027 243.923 79.2C243.923 79.2 247.21 78.2185 249.628 79.9506C250.394 80.5 251.072 81.321 251.531 82.5321L251.927 83.6741L253.4 87.9346H253.4Z" fill="#FB8C00"/>
<path d="M246.171 93.9725C248.487 93.9725 250.364 92.0951 250.364 89.7791C250.364 87.4631 248.487 85.5857 246.171 85.5857C243.855 85.5857 241.978 87.4631 241.978 89.7791C241.978 92.0951 243.855 93.9725 246.171 93.9725Z" fill="#3F3D56"/>
<path d="M246.171 91.9861C247.39 91.9861 248.378 90.998 248.378 89.7791C248.378 88.5602 247.39 87.572 246.171 87.572C244.952 87.572 243.964 88.5602 243.964 89.7791C243.964 90.998 244.952 91.9861 246.171 91.9861Z" fill="#D0CDE1"/>
<path d="M230.438 95.3569C230.438 96.7446 229.764 97.9742 228.725 98.7372C228.598 98.831 228.464 98.9174 228.327 98.9964C228.306 98.9507 228.288 98.9063 228.268 98.8606C228.02 98.289 227.787 97.71 227.566 97.1248C227.368 96.6014 227.18 96.0717 227.005 95.5372C226.746 94.752 226.51 93.9569 226.3 93.1507C226.13 92.5014 225.975 91.8446 225.838 91.1828C225.972 91.1693 226.108 91.1631 226.245 91.1631C228.3 91.1631 230.011 92.6421 230.369 94.5952C230.415 94.8421 230.438 95.0964 230.438 95.3569Z" fill="#3F3D56"/>
<path d="M228.452 95.3568C228.452 96.0803 228.104 96.7222 227.565 97.1247C227.368 96.6013 227.18 96.0716 227.005 95.5371C226.745 94.7519 226.51 93.9568 226.3 93.1506C227.42 93.1778 228.331 94.0371 228.441 95.1346C228.448 95.2074 228.452 95.2815 228.452 95.3568H228.452Z" fill="#D0CDE1"/>
<path d="M240.958 79.3166L227.983 82.9484L226.89 79.0426C228.523 77.7667 231.738 77.1989 235.165 76.7263L240.958 79.3166V79.3166Z" fill="white"/>
<path d="M226.394 83.3927L225.009 83.7804C225.002 83.5211 225 83.2606 225 83.0001C225 81.831 225.051 80.6742 225.148 79.531L225.301 79.4878C226.654 80.3757 226.997 81.6866 226.394 83.3927Z" fill="white"/>
<path d="M229.46 85.6758L228.798 85.8611L229.15 87.1189L229.812 86.9336L229.46 85.6758Z" fill="#3F3D56"/>
<path d="M251.926 83.6743C250.788 84.13 249.495 83.5764 249.039 82.4377C248.691 81.5677 248.927 80.5727 249.628 79.9509C250.393 80.4998 251.072 81.3206 251.531 82.5321L251.926 83.6743H251.926Z" fill="#3F3D56"/>
<path d="M228.767 66.0321C229.227 65.0506 229.726 64.0913 230.262 63.1555V71.0234H228.767V66.0321Z" fill="#3F3D56"/>
<path d="M284.684 74.1634C285.84 74.1634 286.778 73.2262 286.778 72.0702C286.778 70.9142 285.84 69.9771 284.684 69.9771C283.528 69.9771 282.591 70.9142 282.591 72.0702C282.591 73.2262 283.528 74.1634 284.684 74.1634Z" fill="#3F3D56"/>
<path d="M146.223 102.414C152.688 107.823 159.895 103.294 166.802 102.948C170.005 102.788 173.202 103.56 176.359 104.136C179.355 104.683 182.341 105.478 185.08 106.835C188.066 108.261 190.606 110.476 192.426 113.24C192.787 113.805 193.332 113.388 193.328 112.713C193.285 105.541 190.184 106.122 186.947 106.651C183.87 107.154 181.253 104.1 178.216 103.442C175.038 102.803 171.827 102.345 168.597 102.071C165.095 101.724 161.584 101.488 158.065 101.364C154.119 101.225 150.172 101.226 146.223 101.368C145.553 101.392 145.55 102.438 146.223 102.414L146.223 102.414Z" fill="#3F3D56"/>
<path d="M124.418 160.104C124.511 160.203 124.561 160.334 124.558 160.47C124.556 160.605 124.501 160.734 124.405 160.83C124.31 160.926 124.18 160.981 124.045 160.983C123.91 160.985 123.779 160.935 123.68 160.843C119.408 157.181 115.137 153.521 110.865 149.864C110.86 149.859 110.854 149.854 110.848 149.85C110.551 149.628 110.27 149.384 110.008 149.122C106.032 148.659 101.663 147.126 97.5243 146.46C93.8694 147.004 90.225 147.652 86.5597 148.133C83.3663 148.577 80.1468 148.807 76.9226 148.823C74.2991 148.809 75.0581 142.083 72.6785 140.842C70.2047 139.553 65.2438 143.725 64.6097 141.119C64.2964 139.785 64.0925 138.427 64 137.06V128.562C64.338 124.862 70.2291 126.004 73.0269 123.422C77.2252 119.548 78.6507 110.459 84.0233 110.351C90.4257 110.216 96.8302 110.496 103.196 111.19C108.388 111.762 113.847 112.316 118.648 114.528C120.708 115.479 122.648 120.981 124.066 122.768C125.685 124.856 126.601 127.403 126.683 130.043C126.937 135.649 124.387 140.778 122.99 146.07C121.777 150.652 121.094 156.205 124.418 160.104Z" fill="#F2F2F2"/>
<path d="M111.35 150.401C115.681 154.113 120.012 157.824 124.344 161.535C124.443 161.627 124.574 161.677 124.71 161.675C124.845 161.673 124.975 161.618 125.07 161.522C125.166 161.426 125.221 161.297 125.223 161.161C125.226 161.026 125.175 160.895 125.083 160.796C121.759 156.9 122.442 151.346 123.654 146.762C125.053 141.469 127.603 136.342 127.348 130.737C127.267 128.096 126.35 125.549 124.73 123.461C123.266 121.705 121.411 120.315 119.314 119.403C114.513 117.191 109.055 116.634 103.861 116.064C97.4955 115.369 91.0918 115.089 84.69 115.224C79.3159 115.334 73.0294 115.432 68.8313 119.308C65.0081 122.837 64.4859 128.387 64.5227 133.288C64.5441 136.127 64.5986 139.043 65.2735 141.814C65.9079 144.418 67.2838 146.955 69.7583 148.244C72.1384 149.483 74.9661 149.503 77.5871 149.515C80.8113 149.502 84.0308 149.271 87.2238 148.824C93.6144 147.988 99.944 146.638 106.386 146.23C107.963 146.13 109.544 146.085 111.124 146.118C111.796 146.132 111.796 145.087 111.124 145.073C104.86 144.942 98.6599 146.018 92.4968 146.998C86.5356 147.945 80.4417 148.838 74.3908 148.359C73.0644 148.297 71.7601 147.995 70.5412 147.468C69.3639 146.909 68.3678 146.03 67.6667 144.931C66.0914 142.478 65.7929 139.404 65.6569 136.543C65.5016 134.066 65.5246 131.581 65.7257 129.107C65.9578 126.709 66.5169 124.276 67.794 122.205C70.7072 117.482 76.5972 115.517 81.6241 116.366C87.2849 117.321 91.6149 121.846 100.253 116.761C102.964 115.165 106.518 117.386 109.629 117.855C111.954 118.176 114.248 118.695 116.484 119.407C118.636 120.064 120.641 121.129 122.39 122.546C124.219 124.093 125.493 126.197 126.017 128.535C127.217 133.921 124.839 139.296 123.267 144.336C121.867 148.828 120.672 154.105 122.558 158.638C122.997 159.691 123.6 160.669 124.344 161.535L125.083 160.796C120.752 157.084 116.421 153.372 112.089 149.662C111.581 149.226 110.839 149.962 111.35 150.401H111.35Z" fill="#E6E6E6"/>
<path d="M92.8972 126.082H77.1418C76.9972 126.082 76.8586 126.025 76.7563 125.922C76.6541 125.82 76.5967 125.682 76.5967 125.537C76.5967 125.392 76.6541 125.254 76.7563 125.152C76.8586 125.049 76.9972 124.992 77.1418 124.992H92.8972C93.0418 124.992 93.1804 125.049 93.2827 125.152C93.3849 125.254 93.4423 125.392 93.4423 125.537C93.4423 125.682 93.3849 125.82 93.2827 125.922C93.1804 126.025 93.0418 126.082 92.8972 126.082Z" fill="white"/>
<path d="M92.8972 137.706H77.1418C77.0702 137.706 76.9993 137.692 76.9332 137.665C76.867 137.638 76.8069 137.597 76.7563 137.547C76.7057 137.496 76.6656 137.436 76.6382 137.37C76.6108 137.304 76.5967 137.233 76.5967 137.161C76.5967 137.09 76.6108 137.019 76.6382 136.953C76.6656 136.887 76.7057 136.826 76.7563 136.776C76.8069 136.725 76.867 136.685 76.9332 136.658C76.9993 136.63 77.0702 136.616 77.1418 136.616H92.8972C93.0418 136.616 93.1804 136.674 93.2827 136.776C93.3849 136.878 93.4423 137.017 93.4423 137.161C93.4423 137.306 93.3849 137.445 93.2827 137.547C93.1804 137.649 93.0418 137.706 92.8972 137.706Z" fill="white"/>
<path d="M105.693 131.898H77.1418C76.9972 131.898 76.8586 131.841 76.7563 131.738C76.6541 131.636 76.5967 131.498 76.5967 131.353C76.5967 131.208 76.6541 131.07 76.7563 130.968C76.8586 130.865 76.9972 130.808 77.1418 130.808H105.693C105.838 130.808 105.976 130.865 106.079 130.968C106.181 131.07 106.238 131.208 106.238 131.353C106.238 131.498 106.181 131.636 106.079 131.738C105.976 131.841 105.838 131.898 105.693 131.898Z" fill="white"/>
<path d="M141.839 186.583C141.931 186.682 141.981 186.813 141.979 186.949C141.977 187.084 141.922 187.213 141.826 187.309C141.73 187.405 141.601 187.46 141.466 187.462C141.33 187.464 141.199 187.414 141.1 187.322C136.829 183.66 132.557 180.001 128.286 176.343C128.281 176.338 128.275 176.333 128.268 176.33C127.971 176.107 127.691 175.863 127.428 175.601C123.453 175.138 119.084 173.605 114.945 172.939C111.29 173.483 106.949 177.615 103.283 178.096C100.09 178.54 96.8705 178.77 93.6464 178.786C91.0229 178.772 91.7819 170.304 89.4022 169.064C86.9285 167.775 82.6644 170.204 82.0303 167.598C81.7063 166.271 80.1065 164.909 80.002 163.539V155.042C80.3399 151.341 82.7899 147.676 85.5876 145.094C89.786 141.22 96.0713 141.119 101.444 141.011C107.846 140.876 114.251 141.156 120.617 141.851C125.808 142.422 131.268 142.976 136.069 145.188C138.166 146.101 140.021 147.491 141.487 149.247C143.105 151.335 144.021 153.882 144.103 156.522C144.358 162.128 141.807 167.257 140.41 172.549C139.198 177.131 138.515 182.685 141.839 186.583Z" fill="#F2F2F2"/>
<path d="M128.771 176.88C133.101 180.592 137.433 184.304 141.764 188.014C141.864 188.107 141.995 188.157 142.13 188.154C142.266 188.152 142.395 188.097 142.491 188.001C142.587 187.906 142.641 187.776 142.644 187.641C142.646 187.505 142.596 187.374 142.503 187.275C139.18 183.379 139.863 177.825 141.074 173.241C142.473 167.948 145.023 162.821 144.768 157.217C144.687 154.576 143.771 152.028 142.151 149.941C140.686 148.184 138.832 146.795 136.735 145.883C131.934 143.67 126.475 143.114 121.281 142.544C114.916 141.849 108.512 141.568 102.11 141.703C96.7363 141.814 90.4498 141.912 86.2517 145.787C82.4285 149.317 81.9063 154.867 81.9431 159.767C81.9645 162.606 82.019 165.522 82.6939 168.293C83.3283 170.898 84.7042 173.435 87.1787 174.723C89.5588 175.963 92.3865 175.982 95.0076 175.995C98.2317 175.981 101.451 175.75 104.644 175.303C111.035 174.467 117.364 173.117 123.807 172.709C125.383 172.609 126.964 172.565 128.544 172.598C129.217 172.612 129.217 171.567 128.544 171.553C122.28 171.422 116.08 172.497 109.917 173.477C103.956 174.425 97.8621 175.318 91.8112 174.838C90.4848 174.776 89.1805 174.475 87.9616 173.948C86.7843 173.388 85.7882 172.509 85.0871 171.41C83.5118 168.957 83.2133 165.884 83.0773 163.022C82.922 160.545 82.945 158.06 83.1461 155.587C83.3782 153.188 83.9373 150.756 85.2144 148.685C88.1276 143.962 94.7691 140.068 99.0445 142.845C103.929 146.018 110.177 146.155 117.673 143.24C120.606 142.1 123.938 143.865 127.049 144.335C129.375 144.655 131.668 145.175 133.905 145.886C136.057 146.543 138.062 147.609 139.81 149.025C141.64 150.573 142.914 152.676 143.438 155.015C144.637 160.4 142.259 165.776 140.688 170.815C139.287 175.308 138.092 180.584 139.978 185.117C140.418 186.17 141.021 187.148 141.764 188.014L142.503 187.275C138.173 183.563 133.842 179.852 129.51 176.141C129.002 175.706 128.259 176.442 128.771 176.88H128.771Z" fill="#E6E6E6"/>
<path d="M110.318 152.561H94.5627C94.4181 152.561 94.2795 152.504 94.1772 152.402C94.075 152.3 94.0176 152.161 94.0176 152.016C94.0176 151.872 94.075 151.733 94.1772 151.631C94.2795 151.529 94.4181 151.471 94.5627 151.471H110.318C110.463 151.471 110.601 151.529 110.704 151.631C110.806 151.733 110.863 151.872 110.863 152.016C110.863 152.161 110.806 152.3 110.704 152.402C110.601 152.504 110.463 152.561 110.318 152.561Z" fill="white"/>
<path d="M110.318 164.186H94.5627C94.4181 164.186 94.2795 164.128 94.1772 164.026C94.075 163.924 94.0176 163.785 94.0176 163.641C94.0176 163.496 94.075 163.357 94.1772 163.255C94.2795 163.153 94.4181 163.095 94.5627 163.095H110.318C110.463 163.095 110.601 163.153 110.704 163.255C110.806 163.357 110.863 163.496 110.863 163.641C110.863 163.785 110.806 163.924 110.704 164.026C110.601 164.128 110.463 164.186 110.318 164.186Z" fill="white"/>
<path d="M123.114 158.377H94.5627C94.4181 158.377 94.2795 158.32 94.1772 158.218C94.075 158.115 94.0176 157.977 94.0176 157.832C94.0176 157.688 94.075 157.549 94.1772 157.447C94.2795 157.345 94.4181 157.287 94.5627 157.287H123.114C123.259 157.287 123.397 157.345 123.499 157.447C123.602 157.549 123.659 157.688 123.659 157.832C123.659 157.977 123.602 158.115 123.499 158.218C123.397 158.32 123.259 158.377 123.114 158.377Z" fill="white"/>
<path d="M227.72 205.912H183.689C183.285 205.912 182.898 205.752 182.612 205.466C182.326 205.18 182.166 204.793 182.166 204.389C182.166 203.985 182.326 203.597 182.612 203.312C182.898 203.026 183.285 202.865 183.689 202.865H227.72C228.124 202.865 228.511 203.026 228.797 203.312C229.082 203.597 229.243 203.985 229.243 204.389C229.243 204.793 229.082 205.18 228.797 205.466C228.511 205.752 228.124 205.912 227.72 205.912Z" fill="#F2F2F2"/>
<path d="M263.479 222.166H183.689C183.489 222.166 183.291 222.127 183.106 222.05C182.92 221.974 182.752 221.862 182.611 221.72C182.469 221.579 182.356 221.411 182.28 221.226C182.203 221.041 182.164 220.843 182.164 220.642C182.164 220.442 182.203 220.244 182.28 220.059C182.356 219.874 182.469 219.706 182.611 219.564C182.752 219.423 182.92 219.311 183.106 219.234C183.291 219.158 183.489 219.119 183.689 219.119H263.479C263.882 219.12 264.269 219.28 264.555 219.566C264.84 219.852 265 220.239 265 220.642C265 221.046 264.84 221.433 264.555 221.719C264.269 222.004 263.882 222.165 263.479 222.166Z" fill="#F2F2F2"/>
<path d="M158.837 220.455L161.339 222.809L171.812 214.067L168.12 210.592L158.837 220.455Z" fill="#FFB6B6"/>
<path d="M163.392 230.635L162.002 224.154L163.687 222.364L162.78 221.605L159.964 219.258L159.275 218.682L152.798 224.507L154.675 226.272L156.677 224.816L155.865 227.394L160.838 232.075C161.076 232.299 161.38 232.442 161.705 232.481C162.03 232.521 162.359 232.455 162.644 232.294C162.93 232.134 163.156 231.886 163.29 231.587C163.425 231.289 163.461 230.955 163.392 230.635V230.635Z" fill="#2F2E41"/>
<path d="M146.644 229.559L150.04 230.075L153.691 216.93L148.679 216.168L146.644 229.559Z" fill="#FFB6B6"/>
<path d="M156.176 235.348L151.349 230.804L151.719 228.374L150.541 228.265L146.891 227.934L145.996 227.851L143.976 236.325L146.524 236.711L147.344 234.375L148.14 236.958L154.892 237.985C155.216 238.034 155.546 237.978 155.836 237.826C156.126 237.674 156.36 237.433 156.503 237.139C156.647 236.844 156.692 236.512 156.633 236.19C156.574 235.868 156.414 235.573 156.176 235.348L156.176 235.348Z" fill="#2F2E41"/>
<path d="M179.314 136.178L189.054 153.621C189.054 153.621 188.647 189.495 189.941 190.826C191.236 192.156 192.408 193.35 191.236 193.339C190.064 193.328 190.442 201.815 190.442 201.815L168.84 218.538L163.614 214.358L176.725 198.174L169.485 165.048C169.485 165.048 164.283 196.375 163.345 197.313C162.408 198.25 161.842 198.243 162.828 199.184C163.814 200.125 162.828 202.253 162.828 202.253L152.551 223.583L146.976 222.88C146.976 222.88 147.943 205.467 151.308 197.991V162.664C151.054 165.693 162.911 135.036 155.661 137.337C157.955 136.609 179.314 136.178 179.314 136.178Z" fill="#2F2E41"/>
<path d="M174.847 94.6094H166.796L165.656 99.169L159.465 100.881C159.465 100.881 156.403 121.186 158.975 122.824C161.547 124.462 159.753 129.585 159.753 129.585C159.753 129.585 153.349 136.502 154.118 137.526C154.886 138.551 156.445 136.992 154.641 138.796C152.837 140.6 151.812 140.344 152.325 140.857C152.641 141.182 152.887 141.569 153.045 141.994L150.836 147.748C150.836 147.748 162.571 150.079 168.463 146.748C174.355 143.418 187.419 149.822 187.419 149.822C187.419 149.822 186.747 146.46 186.187 145.964C185.626 145.468 184.319 146.722 185.229 145.07C186.139 143.418 186.907 144.187 186.139 143.418C185.37 142.65 182.04 132.403 182.04 132.403C182.04 132.403 179.478 126.767 182.296 124.462C185.114 122.156 186.187 114.595 186.187 114.595L182.809 100.881L177.173 99.6138L174.847 94.6094Z" fill="#E6E6E6"/>
<path d="M142.976 146.964L144.909 139.213L140.636 137.491L138.883 145.758C138.483 146.054 138.174 146.456 137.989 146.918C137.805 147.38 137.754 147.884 137.84 148.374C137.927 148.864 138.149 149.32 138.48 149.691C138.812 150.061 139.241 150.332 139.718 150.473C140.195 150.614 140.702 150.618 141.182 150.487C141.661 150.355 142.095 150.092 142.433 149.727C142.772 149.363 143.002 148.911 143.098 148.423C143.193 147.935 143.151 147.429 142.976 146.964V146.964Z" fill="#FFB6B6"/>
<path d="M161.759 100.363L161.632 100.341C160.445 100.137 159.227 100.225 158.082 100.598C156.938 100.971 155.901 101.618 155.063 102.482C152.874 104.734 143.102 121.482 143.454 124.281C143.782 126.892 143.908 126.311 142.714 127.644C141.521 128.977 141.066 126.947 141.048 129.722C141.03 132.497 142.09 132.473 140.963 133.151C139.836 133.83 139.091 133.357 139.297 135.229C139.503 137.101 139.187 137.598 139.121 138.253C139.054 138.907 137.436 143.105 137.436 143.105C137.436 143.105 142.198 144.384 144.119 146.299C144.119 146.299 144.337 141.561 145.307 141.131C146.276 140.701 147.179 140.925 146.906 139.707C146.634 138.489 145.234 137.95 146.949 137.993C148.663 138.035 151.312 128.917 151.312 128.917L162.763 108.023L161.759 100.363Z" fill="#E6E6E6"/>
<path d="M187.603 150.803L187.947 142.822L192.534 142.383L191.87 150.808C192.169 151.205 192.352 151.678 192.398 152.173C192.443 152.669 192.35 153.167 192.128 153.612C191.905 154.057 191.564 154.432 191.14 154.693C190.717 154.955 190.229 155.093 189.732 155.092C189.234 155.092 188.747 154.953 188.324 154.69C187.902 154.428 187.561 154.053 187.339 153.607C187.118 153.161 187.026 152.663 187.072 152.168C187.119 151.672 187.303 151.2 187.603 150.803Z" fill="#FFB6B6"/>
<path d="M182.809 100.788L182.937 100.803C184.133 100.945 185.276 101.375 186.268 102.057C187.259 102.74 188.07 103.653 188.629 104.719C190.089 107.5 194.709 126.332 193.578 128.917C192.523 131.327 192.567 130.734 193.333 132.351C194.1 133.968 195.111 132.15 194.342 134.816C193.572 137.482 192.563 137.158 193.451 138.129C194.339 139.099 195.188 138.857 194.459 140.594C193.731 142.331 193.892 142.897 193.77 143.543C193.649 144.189 194.01 148.675 194.01 148.675C194.01 148.675 189.08 148.55 186.696 149.841C186.696 149.841 187.83 145.236 187.022 144.549C186.215 143.861 185.285 143.82 185.892 142.73C186.499 141.639 187.994 141.519 186.338 141.074C184.681 140.628 184.728 131.133 184.728 131.133L179.673 107.849L182.809 100.788Z" fill="#E6E6E6"/>
<path d="M152.527 89.2297C152.463 91.9779 153.49 94.639 154.966 96.9763C155.459 95.6191 156.149 94.342 157.014 93.1861C156.6 95.7471 157.041 98.3732 158.27 100.658C158.313 100.689 158.358 100.718 158.404 100.744C159.607 101.468 161.132 101.761 162.433 101.238C159.745 98.3407 159.403 93.5398 161.656 90.2898C162.294 89.3675 163.119 88.5519 163.515 87.5024C164.139 85.8278 163.539 83.9841 163.16 82.2382C162.807 80.6133 162.745 78.6797 163.835 77.4888C163.718 77.3224 163.56 77.1899 163.375 77.105C163.191 77.0201 162.987 76.9857 162.785 77.0054C162.113 77.1004 161.623 77.6846 161.312 78.2863C161 78.888 160.795 79.5548 160.361 80.0745C159.556 81.0473 158.187 81.2773 157.033 81.7899C154.238 83.0348 152.594 86.1717 152.527 89.2297Z" fill="#2F2E41"/>
<path d="M176.054 87.6584C175.894 87.0994 176.995 90.5166 176.464 90.5783C174.045 90.8558 170.723 92.3008 169.038 92.9749C168.962 92.9661 168.886 92.9573 168.813 92.9463C168.632 92.9265 168.456 92.8978 168.281 92.8648C164.358 92.1224 162.849 86.0948 162.849 86.0398C162.849 85.7688 163.499 78.3265 164.523 78.2163C164.793 78.1871 165.063 78.1724 165.334 78.1723H167.876C168.402 78.0589 168.935 77.9816 169.472 77.941H169.476C174.594 77.551 178.63 80.6705 178.253 84.4663C178.25 84.4707 178.246 84.4751 178.244 84.4795C178.134 84.6425 178.038 84.7967 177.953 84.9443C177.871 85.0831 177.802 85.2153 177.741 85.3409C177.275 86.3102 178.474 87.5299 177.679 87.7576C176.621 88.0604 180.46 98.0126 176.274 98.0126C178.31 98.5914 176.495 89.2005 176.054 87.6584Z" fill="#2F2E41"/>
<path d="M171.485 93.4979C174.81 93.4979 177.505 90.8031 177.505 87.4788C177.505 84.1546 174.81 81.4597 171.485 81.4597C168.161 81.4597 165.466 84.1546 165.466 87.4788C165.466 90.8031 168.161 93.4979 171.485 93.4979Z" fill="#FFB6B6"/>
<path d="M178.252 84.7944C178.152 84.8472 178.054 84.8957 177.953 84.9442C177.848 84.9948 177.743 85.0455 177.639 85.0918C175.623 86.006 173.983 86.1074 172.987 84.7944C172.96 84.1035 172.805 83.4237 172.529 82.7896C172.578 83.4982 172.391 84.2029 171.998 84.7944H169.994C167.929 86.1646 166.869 86.3078 168.302 90.8064C168.702 92.0599 170.29 99.3541 169.665 100.436C169.484 100.416 167.561 92.4265 167.387 92.3935C163.463 91.6511 160.97 85.1865 161.289 84.8208C161.288 83.7809 161.527 82.7547 161.988 81.8225C162.571 80.6415 163.48 79.6523 164.608 78.9718C165.28 78.6459 165.981 78.3826 166.702 78.1854C166.72 78.1809 166.735 78.1765 166.753 78.1721C166.974 78.1126 167.199 78.0576 167.425 78.0113C167.891 77.913 168.362 77.8416 168.836 77.7976C168.869 77.7954 168.902 77.7932 168.934 77.7932C169.123 77.7937 169.309 77.8446 169.472 77.9408C169.474 77.9408 169.474 77.943 169.476 77.943C169.593 78.0111 169.694 78.1017 169.775 78.2096C169.918 78.3911 169.995 78.6154 169.994 78.8463H172.226C172.309 78.8463 172.391 78.8485 172.474 78.8529C173.963 78.9038 175.38 79.5087 176.448 80.5494C177.515 81.59 178.155 82.9914 178.243 84.4794C178.25 84.5851 178.252 84.6886 178.252 84.7944Z" fill="#2F2E41"/>
<path d="M202.771 198.38C202.933 198.387 203.093 198.345 203.23 198.258C203.367 198.171 203.474 198.045 203.537 197.895C203.599 197.746 203.614 197.58 203.58 197.422C203.545 197.264 203.463 197.12 203.344 197.01L203.29 196.794C203.297 196.777 203.304 196.76 203.311 196.742C203.474 196.357 203.748 196.028 204.097 195.798C204.446 195.568 204.856 195.445 205.274 195.447C205.693 195.449 206.102 195.574 206.449 195.807C206.797 196.04 207.068 196.37 207.228 196.757C207.868 198.3 208.684 199.845 208.885 201.477C208.973 202.198 208.936 202.929 208.775 203.637C210.279 200.355 211.06 196.788 211.065 193.177C211.066 192.271 211.015 191.366 210.915 190.466C210.831 189.727 210.716 188.995 210.568 188.267C209.762 184.319 208.03 180.619 205.516 177.47C204.299 176.806 203.315 175.785 202.696 174.544C202.472 174.098 202.314 173.622 202.226 173.131C202.363 173.149 202.744 171.059 202.64 170.93C202.831 170.64 203.174 170.496 203.383 170.212C204.422 168.804 205.853 169.05 206.601 170.964C208.197 171.77 208.213 173.106 207.233 174.391C206.61 175.209 206.524 176.315 205.977 177.191C206.034 177.263 206.092 177.333 206.148 177.405C207.177 178.727 208.073 180.147 208.825 181.644C208.642 179.967 208.86 178.27 209.461 176.693C210.07 175.224 211.212 173.987 212.217 172.716C212.483 172.375 212.844 172.12 213.255 171.984C213.665 171.848 214.107 171.837 214.524 171.952C214.941 172.067 215.315 172.303 215.598 172.63C215.881 172.958 216.06 173.361 216.114 173.791C216.116 173.809 216.118 173.828 216.12 173.847C215.97 173.931 215.824 174.02 215.681 174.115C215.502 174.235 215.362 174.407 215.282 174.607C215.201 174.808 215.183 175.028 215.23 175.239C215.277 175.45 215.386 175.642 215.544 175.789C215.701 175.937 215.9 176.034 216.114 176.067L216.135 176.07C216.082 176.608 215.988 177.142 215.854 177.666C217.144 182.653 214.359 184.47 210.384 184.552C210.296 184.597 210.21 184.642 210.123 184.684C210.877 186.824 211.351 189.052 211.531 191.314C211.633 192.648 211.627 193.989 211.513 195.322L211.52 195.275C211.808 193.792 212.599 192.454 213.759 191.487C215.482 190.072 217.917 189.551 219.776 188.413C219.973 188.286 220.203 188.218 220.438 188.218C220.672 188.217 220.902 188.284 221.101 188.41C221.299 188.535 221.457 188.715 221.556 188.928C221.655 189.141 221.692 189.378 221.661 189.61L221.653 189.66C221.376 189.773 221.106 189.903 220.845 190.049C220.696 190.134 220.55 190.223 220.407 190.318C220.227 190.438 220.088 190.609 220.008 190.81C219.927 191.01 219.909 191.23 219.956 191.441C220.002 191.652 220.112 191.844 220.269 191.992C220.427 192.14 220.626 192.236 220.839 192.269L220.861 192.273C220.877 192.275 220.89 192.277 220.906 192.279C220.433 193.41 219.768 194.45 218.942 195.356C218.135 199.71 214.672 200.123 210.966 198.855H210.964C210.558 200.621 209.969 202.341 209.207 203.986H202.928C202.906 203.916 202.885 203.844 202.865 203.774C203.446 203.811 204.03 203.776 204.602 203.671C204.137 203.099 203.671 202.523 203.205 201.951C203.195 201.941 203.185 201.929 203.176 201.918C202.939 201.625 202.701 201.335 202.465 201.042L202.464 201.042C202.452 200.145 202.555 199.251 202.771 198.38L202.771 198.38Z" fill="#F2F2F2"/>
<path d="M188.854 148.956C189.338 149.467 188.604 150.132 188.038 149.694C183.323 146.038 178.607 142.384 173.891 138.733C173.886 138.727 173.879 138.722 173.872 138.719C173.547 138.498 173.237 138.255 172.945 137.992C168.556 137.529 163.733 135.998 159.163 135.334C155.128 135.877 151.105 136.524 147.058 137.004C143.529 137.447 139.976 137.677 136.419 137.692C133.523 137.679 130.403 137.661 127.776 136.423C125.045 135.136 123.526 132.603 122.826 130.001C122.481 128.673 122.255 127.317 122.153 125.949V117.465C122.526 113.77 123.664 110.111 126.753 107.533C131.388 103.665 138.327 103.564 144.258 103.456C151.324 103.321 158.392 103.601 165.425 104.295C171.156 104.865 177.184 105.418 182.484 107.627C184.757 108.577 186.9 109.895 188.465 111.68C190.227 113.701 191.246 116.264 191.354 118.943C191.635 124.54 188.819 129.66 187.277 134.944C185.938 139.519 185.184 145.064 188.854 148.956Z" fill="#FB8C00"/>
<path d="M153.87 112.842H138.114C138.043 112.842 137.972 112.828 137.906 112.801C137.84 112.774 137.78 112.733 137.729 112.683C137.678 112.632 137.638 112.572 137.611 112.506C137.583 112.44 137.569 112.369 137.569 112.297C137.569 112.226 137.583 112.155 137.611 112.089C137.638 112.023 137.678 111.962 137.729 111.912C137.78 111.861 137.84 111.821 137.906 111.794C137.972 111.766 138.043 111.752 138.114 111.752H153.87C154.014 111.752 154.153 111.81 154.255 111.912C154.358 112.014 154.415 112.153 154.415 112.297C154.415 112.442 154.358 112.581 154.255 112.683C154.153 112.785 154.014 112.842 153.87 112.842Z" fill="white"/>
<path d="M153.87 124.467H138.114C137.97 124.467 137.831 124.409 137.729 124.307C137.627 124.205 137.569 124.066 137.569 123.922C137.569 123.777 137.627 123.638 137.729 123.536C137.831 123.434 137.97 123.376 138.114 123.376H153.87C154.014 123.376 154.153 123.434 154.255 123.536C154.358 123.638 154.415 123.777 154.415 123.922C154.415 124.066 154.358 124.205 154.255 124.307C154.153 124.409 154.014 124.467 153.87 124.467Z" fill="white"/>
<path d="M166.666 118.658H138.114C137.97 118.658 137.831 118.601 137.729 118.499C137.627 118.396 137.569 118.258 137.569 118.113C137.569 117.969 137.627 117.83 137.729 117.728C137.831 117.626 137.97 117.568 138.114 117.568H166.666C166.81 117.568 166.949 117.626 167.051 117.728C167.153 117.83 167.211 117.969 167.211 118.113C167.211 118.258 167.153 118.396 167.051 118.499C166.949 118.601 166.81 118.658 166.666 118.658Z" fill="white"/>
<path d="M192.426 113.24C193.886 115.57 194.712 118.252 194.459 121.017C194.241 123.402 193.262 125.645 192.193 127.759C191.084 129.95 189.843 132.077 188.936 134.365C187.941 136.858 187.573 139.557 187.865 142.226C188.045 143.959 188.394 145.668 188.724 147.376L189.729 152.592L190.603 152.084L176.151 139.59C175.645 139.152 174.902 139.889 175.412 140.329L189.863 152.823C189.946 152.901 190.052 152.95 190.165 152.962C190.278 152.975 190.392 152.951 190.49 152.894C190.588 152.837 190.665 152.75 190.709 152.645C190.754 152.541 190.764 152.425 190.737 152.314C190.146 149.25 189.448 146.184 189.016 143.092C188.767 141.533 188.732 139.948 188.912 138.379C189.089 137.184 189.403 136.013 189.848 134.889C191.582 130.36 194.828 126.398 195.454 121.474C195.846 118.389 194.964 115.323 193.328 112.713C192.972 112.144 192.067 112.668 192.426 113.24V113.24Z" fill="#3F3D56"/>
<path d="M177.065 135.018L155.692 137.546L145.006 138.81C141.751 139.196 138.358 139.736 135.105 139.055C129.628 137.908 126.228 132.945 125.158 127.715C124.496 124.478 124.73 121.091 125.288 117.857C125.585 116.132 125.977 114.426 126.4 112.729C126.778 111.217 127.059 109.588 127.711 108.164C128.232 107.007 129.006 105.981 129.977 105.164C130.948 104.347 132.091 103.758 133.32 103.443C134.088 103.286 134.866 103.183 135.649 103.135C136.528 103.046 137.407 102.965 138.288 102.891C140.048 102.743 141.811 102.622 143.576 102.531C144.458 102.485 145.34 102.446 146.223 102.414C146.894 102.389 146.897 101.344 146.223 101.369C142.549 101.503 138.883 101.758 135.224 102.133C133.733 102.286 132.354 102.508 131.009 103.206C129.846 103.815 128.824 104.662 128.011 105.692C127.179 106.755 126.568 107.974 126.215 109.278C125.734 111.01 125.297 112.759 124.899 114.512C124.096 118.045 123.519 121.686 123.787 125.318C124.184 130.69 126.756 136.422 131.747 138.98C134.695 140.49 138.058 140.558 141.288 140.269C144.89 139.948 148.482 139.445 152.073 139.02L174.307 136.389L177.065 136.063C177.725 135.985 177.733 134.939 177.065 135.018H177.065Z" fill="#3F3D56"/>
</svg>
