<svg width="26" height="26" viewBox="0 0 26 26" fill="none" xmlns="http://www.w3.org/2000/svg">
<path d="M24.5917 1.013H14.4033C13.3298 2.50186 12.1132 3.90269 10.8289 5.24143C11.6048 6.10478 12.4057 7.02178 13.2404 8.00503L14.1683 9.09802L15.1079 10.2047L13.6861 9.91129L12.2819 9.62148L12.2819 9.62147C10.6036 9.27503 9.02826 8.88499 7.54072 8.45318C6.83109 9.11374 6.11139 9.77054 5.40016 10.4196C4.86612 10.907 4.33686 11.39 3.82021 11.8669C3.9991 12.7604 4.52163 13.8079 5.28847 14.6917L5.2885 14.6917C6.12356 15.6543 7.19615 16.3711 8.28729 16.5924L8.60083 16.6559L8.91832 16.7203L8.98932 17.0364L9.05945 17.3486L9.05945 17.3486C9.47791 19.212 11.0111 20.8985 13.1142 21.945C14.9049 22.8359 17.0396 23.2237 19.0504 22.9044C18.9303 22.6075 18.7634 22.3243 18.5567 22.0835C16.9483 20.341 15.6335 18.3488 14.6739 16.2157C13.5196 16.1924 12.7101 16.6718 11.5308 17.4778L11.118 17.7599L10.8359 17.3471L10.2786 16.5317L9.99649 16.1189L10.4093 15.8368C11.442 15.1308 12.5364 14.457 13.9137 14.2771C13.8977 14.2296 13.8819 14.182 13.8662 14.1344C12.7399 13.7961 11.8289 14.0496 10.4656 14.5286L9.99392 14.6943L9.82817 14.2226L9.50078 13.2909L9.33502 12.8192L9.80674 12.6534C10.7931 12.3068 11.8214 11.9912 12.9359 12.0056C12.9359 12.0056 12.936 12.0056 12.9361 12.0056L12.9296 12.5055C13.3382 12.5106 13.7446 12.5655 14.1398 12.6688L24.5917 1.013ZM24.5917 1.013V4.00903C22.9495 4.63691 21.2369 5.54034 19.6176 6.64483C18.1014 6.1929 16.4348 5.7767 14.5614 5.39076L13.293 5.12943L12.0087 4.86481L12.7908 5.91734L13.5632 6.95686C14.3528 8.01966 15.1075 8.95307 15.8521 9.78957C15.5727 10.0769 15.3024 10.3706 15.043 10.6704C13.8565 9.89629 12.5666 9.70547 11.4571 9.67897L10.9572 9.66702L10.9453 10.1669L10.9217 11.1542L10.9098 11.6541L11.4097 11.666C12.1255 11.6831 12.7883 11.7673 13.4015 12.031L24.5917 1.013ZM7.5952 4.67544C8.27952 5.40193 8.98006 6.16718 9.70335 6.97989C6.17668 6.06993 3.17473 4.94158 0.5 3.61765V1.00005H0.75721C2.4349 2.97267 4.14291 4.51326 6.99829 5.56803L7.83001 5.87526L7.66255 5.00457C7.64108 4.89296 7.61865 4.78327 7.5952 4.67544ZM24.54 14.1267C23.523 13.555 22.6048 12.9944 21.7426 12.3961L20.6508 11.6385L20.9724 12.9279L21.0552 13.2598L17.5882 8.74347L17.4982 8.81257L17.5736 8.7186C17.3555 8.47829 17.136 8.22872 16.9143 7.96875C17.8887 8.21399 18.7965 8.46988 19.6506 8.73751L18.7543 8.75409L19.4379 9.55831C20.3297 10.6075 21.1318 11.3329 22.0028 11.888C22.7794 12.3829 23.5933 12.7311 24.54 13.0569V14.1267ZM3.78713 15.9943C4.25656 16.5354 4.79749 17.0312 5.39718 17.4444L4.73356 17.7948C3.21968 16.8364 2.21695 15.2007 1.74993 13.8235C1.89868 13.6782 2.0488 13.5329 2.20018 13.3875C2.5533 14.3089 3.10277 15.2055 3.78713 15.9943L3.78713 15.9943ZM10.7199 22.8273C9.08982 21.6879 7.82762 20.1548 7.20156 18.3499C7.22899 18.3589 7.2565 18.3677 7.28408 18.3763C7.85547 20.1763 9.11733 21.6994 10.7199 22.8273ZM18.4224 24.977C18.5349 24.9689 18.6474 24.9591 18.7598 24.9476C18.7553 24.9491 18.7507 24.9505 18.7462 24.9519C18.6384 24.9618 18.5305 24.9702 18.4224 24.977Z" stroke="#001B33"/>
</svg>
