<svg width="21" height="21" viewBox="0 0 21 21" fill="none" xmlns="http://www.w3.org/2000/svg">
<mask id="path-1-inside-1_923_69885" fill="white">
<path d="M6.61418 20.5C6.12621 20.4971 5.6524 20.3357 5.26419 20.04L3.19419 18.5C2.7165 18.1276 2.39954 17.5863 2.30841 16.9875C2.21729 16.3887 2.35891 15.7777 2.70419 15.28C2.88687 15.0102 3.00298 14.701 3.04296 14.3777C3.08294 14.0543 3.04566 13.7261 2.93419 13.42L2.87419 13.26C2.79656 12.9829 2.65469 12.728 2.46009 12.5161C2.26549 12.3041 2.02364 12.141 1.75419 12.04H1.59419C1.01006 11.8436 0.526995 11.4247 0.249894 10.8742C-0.0272063 10.3237 -0.0759726 9.6862 0.114185 9.1L0.934185 6.5C1.00967 6.19876 1.14864 5.91713 1.3418 5.67396C1.53496 5.43078 1.77784 5.23169 2.05419 5.09C2.31154 4.9574 2.59312 4.8784 2.88188 4.85777C3.17065 4.83715 3.4606 4.87533 3.73419 4.97C4.03207 5.07025 4.34993 5.09624 4.66014 5.0457C4.97035 4.99516 5.26353 4.86962 5.51419 4.68L5.64419 4.58C5.87108 4.39895 6.05446 4.1693 6.1808 3.90796C6.30714 3.64663 6.37322 3.36027 6.37419 3.07V2.83C6.3715 2.21813 6.61064 1.62997 7.03953 1.19358C7.46843 0.757192 8.05236 0.507906 8.66419 0.5H11.2142C11.5119 0.500802 11.8064 0.560404 12.081 0.675383C12.3556 0.790362 12.6048 0.958452 12.8142 1.17C13.2545 1.61779 13.4991 2.22202 13.4942 2.85V3.13C13.4891 3.40575 13.5489 3.67884 13.6688 3.92723C13.7886 4.17562 13.9652 4.39237 14.1842 4.56L14.2942 4.64C14.5186 4.8083 14.7804 4.91984 15.0573 4.96511C15.3341 5.01039 15.6178 4.98805 15.8842 4.9L16.2242 4.79C16.5122 4.69451 16.8166 4.65802 17.1191 4.6827C17.4215 4.70737 17.7159 4.79272 17.9847 4.93364C18.2535 5.07456 18.4911 5.26817 18.6835 5.50292C18.8758 5.73767 19.0189 6.00876 19.1042 6.3L19.8942 8.82C20.077 9.40239 20.027 10.033 19.7548 10.5793C19.4825 11.1256 19.0092 11.5452 18.4342 11.75L18.2342 11.82C17.94 11.9163 17.674 12.0834 17.4596 12.3066C17.2451 12.5298 17.0887 12.8022 17.0042 13.1C16.9246 13.3768 16.9057 13.6675 16.9489 13.9523C16.992 14.2371 17.0962 14.5092 17.2542 14.75L17.5142 15.13C17.859 15.6304 17.9993 16.2438 17.9063 16.8444C17.8133 17.445 17.4942 17.9872 17.0142 18.36L15.0042 19.91C14.7614 20.0957 14.4831 20.2297 14.1865 20.3039C13.8899 20.378 13.5813 20.3906 13.2796 20.3409C12.978 20.2913 12.6897 20.1804 12.4325 20.0152C12.1753 19.8499 11.9547 19.6337 11.7842 19.38L11.6642 19.21C11.5004 18.9639 11.2769 18.7632 11.0146 18.6268C10.7523 18.4904 10.4597 18.4227 10.1642 18.43C9.88216 18.4373 9.6058 18.5108 9.3574 18.6445C9.10901 18.7783 8.89553 18.9686 8.73419 19.2L8.50419 19.53C8.33363 19.7855 8.11255 20.0034 7.85457 20.1702C7.5966 20.3371 7.30719 20.4493 7.00419 20.5C6.8745 20.5127 6.74387 20.5127 6.61418 20.5ZM2.40419 10.12C2.96888 10.3214 3.47841 10.6525 3.89178 11.0867C4.30516 11.5209 4.61082 12.0461 4.78419 12.62V12.74C5.00012 13.3366 5.07102 13.9761 4.99104 14.6055C4.91105 15.235 4.68248 15.8363 4.32419 16.36C4.26094 16.4299 4.22592 16.5208 4.22592 16.615C4.22592 16.7092 4.26094 16.8001 4.32419 16.87L6.47419 18.5C6.50224 18.522 6.53468 18.5378 6.56933 18.5463C6.60398 18.5547 6.64004 18.5557 6.67508 18.549C6.71013 18.5424 6.74335 18.5284 6.77252 18.5078C6.80169 18.4873 6.82612 18.4608 6.84419 18.43L7.07418 18.1C7.42107 17.5988 7.88433 17.1891 8.42424 16.9062C8.96416 16.6232 9.56463 16.4754 10.1742 16.4754C10.7837 16.4754 11.3842 16.6232 11.9241 16.9062C12.464 17.1891 12.9273 17.5988 13.2742 18.1L13.3942 18.28C13.4372 18.341 13.5013 18.3838 13.5742 18.4C13.6076 18.4049 13.6416 18.403 13.6743 18.3944C13.707 18.3859 13.7375 18.3707 13.7642 18.35L15.8242 16.79C15.8963 16.7328 15.9437 16.6501 15.9568 16.5589C15.9698 16.4678 15.9474 16.3751 15.8942 16.3L15.6342 15.92C15.2954 15.426 15.0719 14.8622 14.9802 14.2703C14.8884 13.6783 14.9308 13.0734 15.1042 12.5C15.2799 11.8974 15.5978 11.3458 16.0311 10.8916C16.4644 10.4374 17.0005 10.0939 17.5942 9.89L17.7942 9.82C17.8775 9.78661 17.9443 9.7216 17.9799 9.63917C18.0155 9.55674 18.017 9.46357 17.9842 9.38L17.2042 6.89C17.1855 6.84643 17.1581 6.80713 17.1237 6.77446C17.0893 6.7418 17.0487 6.71647 17.0042 6.7C16.9747 6.68507 16.9422 6.67728 16.9092 6.67728C16.8762 6.67728 16.8436 6.68507 16.8142 6.7L16.4742 6.81C15.899 6.99982 15.2864 7.04712 14.6889 6.94783C14.0914 6.84855 13.527 6.60564 13.0442 6.24L13.0042 6.15C12.5409 5.79912 12.1652 5.34561 11.9067 4.82509C11.6481 4.30456 11.5138 3.73119 11.5142 3.15V2.84C11.516 2.74362 11.4801 2.65033 11.4142 2.58C11.3567 2.52801 11.2817 2.49946 11.2042 2.5H8.66419C8.62345 2.50254 8.58361 2.51311 8.54696 2.53109C8.51032 2.54906 8.47758 2.5741 8.45064 2.60476C8.42369 2.63542 8.40307 2.6711 8.38995 2.70976C8.37683 2.74841 8.37147 2.78927 8.37419 2.83V3.08C8.37425 3.67704 8.23723 4.26612 7.9737 4.80185C7.71017 5.33758 7.32716 5.80565 6.85419 6.17L6.72419 6.27C6.21391 6.65851 5.61591 6.91553 4.98288 7.01842C4.34985 7.12131 3.70123 7.0669 3.09419 6.86C3.04876 6.84476 2.99961 6.84476 2.95419 6.86C2.89775 6.89429 2.85525 6.94741 2.83419 7.01L2.00419 9.62C1.97525 9.70889 1.98203 9.80555 2.02309 9.88953C2.06415 9.97352 2.13627 10.0382 2.22418 10.07L2.40419 10.12Z"/>
</mask>
<path d="M6.61418 20.5C6.12621 20.4971 5.6524 20.3357 5.26419 20.04L3.19419 18.5C2.7165 18.1276 2.39954 17.5863 2.30841 16.9875C2.21729 16.3887 2.35891 15.7777 2.70419 15.28C2.88687 15.0102 3.00298 14.701 3.04296 14.3777C3.08294 14.0543 3.04566 13.7261 2.93419 13.42L2.87419 13.26C2.79656 12.9829 2.65469 12.728 2.46009 12.5161C2.26549 12.3041 2.02364 12.141 1.75419 12.04H1.59419C1.01006 11.8436 0.526995 11.4247 0.249894 10.8742C-0.0272063 10.3237 -0.0759726 9.6862 0.114185 9.1L0.934185 6.5C1.00967 6.19876 1.14864 5.91713 1.3418 5.67396C1.53496 5.43078 1.77784 5.23169 2.05419 5.09C2.31154 4.9574 2.59312 4.8784 2.88188 4.85777C3.17065 4.83715 3.4606 4.87533 3.73419 4.97C4.03207 5.07025 4.34993 5.09624 4.66014 5.0457C4.97035 4.99516 5.26353 4.86962 5.51419 4.68L5.64419 4.58C5.87108 4.39895 6.05446 4.1693 6.1808 3.90796C6.30714 3.64663 6.37322 3.36027 6.37419 3.07V2.83C6.3715 2.21813 6.61064 1.62997 7.03953 1.19358C7.46843 0.757192 8.05236 0.507906 8.66419 0.5H11.2142C11.5119 0.500802 11.8064 0.560404 12.081 0.675383C12.3556 0.790362 12.6048 0.958452 12.8142 1.17C13.2545 1.61779 13.4991 2.22202 13.4942 2.85V3.13C13.4891 3.40575 13.5489 3.67884 13.6688 3.92723C13.7886 4.17562 13.9652 4.39237 14.1842 4.56L14.2942 4.64C14.5186 4.8083 14.7804 4.91984 15.0573 4.96511C15.3341 5.01039 15.6178 4.98805 15.8842 4.9L16.2242 4.79C16.5122 4.69451 16.8166 4.65802 17.1191 4.6827C17.4215 4.70737 17.7159 4.79272 17.9847 4.93364C18.2535 5.07456 18.4911 5.26817 18.6835 5.50292C18.8758 5.73767 19.0189 6.00876 19.1042 6.3L19.8942 8.82C20.077 9.40239 20.027 10.033 19.7548 10.5793C19.4825 11.1256 19.0092 11.5452 18.4342 11.75L18.2342 11.82C17.94 11.9163 17.674 12.0834 17.4596 12.3066C17.2451 12.5298 17.0887 12.8022 17.0042 13.1C16.9246 13.3768 16.9057 13.6675 16.9489 13.9523C16.992 14.2371 17.0962 14.5092 17.2542 14.75L17.5142 15.13C17.859 15.6304 17.9993 16.2438 17.9063 16.8444C17.8133 17.445 17.4942 17.9872 17.0142 18.36L15.0042 19.91C14.7614 20.0957 14.4831 20.2297 14.1865 20.3039C13.8899 20.378 13.5813 20.3906 13.2796 20.3409C12.978 20.2913 12.6897 20.1804 12.4325 20.0152C12.1753 19.8499 11.9547 19.6337 11.7842 19.38L11.6642 19.21C11.5004 18.9639 11.2769 18.7632 11.0146 18.6268C10.7523 18.4904 10.4597 18.4227 10.1642 18.43C9.88216 18.4373 9.6058 18.5108 9.3574 18.6445C9.10901 18.7783 8.89553 18.9686 8.73419 19.2L8.50419 19.53C8.33363 19.7855 8.11255 20.0034 7.85457 20.1702C7.5966 20.3371 7.30719 20.4493 7.00419 20.5C6.8745 20.5127 6.74387 20.5127 6.61418 20.5ZM2.40419 10.12C2.96888 10.3214 3.47841 10.6525 3.89178 11.0867C4.30516 11.5209 4.61082 12.0461 4.78419 12.62V12.74C5.00012 13.3366 5.07102 13.9761 4.99104 14.6055C4.91105 15.235 4.68248 15.8363 4.32419 16.36C4.26094 16.4299 4.22592 16.5208 4.22592 16.615C4.22592 16.7092 4.26094 16.8001 4.32419 16.87L6.47419 18.5C6.50224 18.522 6.53468 18.5378 6.56933 18.5463C6.60398 18.5547 6.64004 18.5557 6.67508 18.549C6.71013 18.5424 6.74335 18.5284 6.77252 18.5078C6.80169 18.4873 6.82612 18.4608 6.84419 18.43L7.07418 18.1C7.42107 17.5988 7.88433 17.1891 8.42424 16.9062C8.96416 16.6232 9.56463 16.4754 10.1742 16.4754C10.7837 16.4754 11.3842 16.6232 11.9241 16.9062C12.464 17.1891 12.9273 17.5988 13.2742 18.1L13.3942 18.28C13.4372 18.341 13.5013 18.3838 13.5742 18.4C13.6076 18.4049 13.6416 18.403 13.6743 18.3944C13.707 18.3859 13.7375 18.3707 13.7642 18.35L15.8242 16.79C15.8963 16.7328 15.9437 16.6501 15.9568 16.5589C15.9698 16.4678 15.9474 16.3751 15.8942 16.3L15.6342 15.92C15.2954 15.426 15.0719 14.8622 14.9802 14.2703C14.8884 13.6783 14.9308 13.0734 15.1042 12.5C15.2799 11.8974 15.5978 11.3458 16.0311 10.8916C16.4644 10.4374 17.0005 10.0939 17.5942 9.89L17.7942 9.82C17.8775 9.78661 17.9443 9.7216 17.9799 9.63917C18.0155 9.55674 18.017 9.46357 17.9842 9.38L17.2042 6.89C17.1855 6.84643 17.1581 6.80713 17.1237 6.77446C17.0893 6.7418 17.0487 6.71647 17.0042 6.7C16.9747 6.68507 16.9422 6.67728 16.9092 6.67728C16.8762 6.67728 16.8436 6.68507 16.8142 6.7L16.4742 6.81C15.899 6.99982 15.2864 7.04712 14.6889 6.94783C14.0914 6.84855 13.527 6.60564 13.0442 6.24L13.0042 6.15C12.5409 5.79912 12.1652 5.34561 11.9067 4.82509C11.6481 4.30456 11.5138 3.73119 11.5142 3.15V2.84C11.516 2.74362 11.4801 2.65033 11.4142 2.58C11.3567 2.52801 11.2817 2.49946 11.2042 2.5H8.66419C8.62345 2.50254 8.58361 2.51311 8.54696 2.53109C8.51032 2.54906 8.47758 2.5741 8.45064 2.60476C8.42369 2.63542 8.40307 2.6711 8.38995 2.70976C8.37683 2.74841 8.37147 2.78927 8.37419 2.83V3.08C8.37425 3.67704 8.23723 4.26612 7.9737 4.80185C7.71017 5.33758 7.32716 5.80565 6.85419 6.17L6.72419 6.27C6.21391 6.65851 5.61591 6.91553 4.98288 7.01842C4.34985 7.12131 3.70123 7.0669 3.09419 6.86C3.04876 6.84476 2.99961 6.84476 2.95419 6.86C2.89775 6.89429 2.85525 6.94741 2.83419 7.01L2.00419 9.62C1.97525 9.70889 1.98203 9.80555 2.02309 9.88953C2.06415 9.97352 2.13627 10.0382 2.22418 10.07L2.40419 10.12Z" fill="#001B33" stroke="#F2F2F2" stroke-width="0.4" mask="url(#path-1-inside-1_923_69885)"/>
<path d="M10.0039 13.9C9.33145 13.9 8.6741 13.7006 8.11497 13.327C7.55584 12.9534 7.12006 12.4224 6.86272 11.8011C6.60538 11.1799 6.53805 10.4962 6.66924 9.83669C6.80043 9.17716 7.12425 8.57134 7.59975 8.09584C8.07524 7.62034 8.68107 7.29652 9.3406 7.16533C10.0001 7.03414 10.6838 7.10147 11.305 7.35881C11.9263 7.61615 12.4573 8.05194 12.8309 8.61106C13.2045 9.17019 13.4039 9.82755 13.4039 10.5C13.4039 11.4017 13.0457 12.2665 12.4081 12.9042C11.7704 13.5418 10.9056 13.9 10.0039 13.9ZM10.0039 8.9C9.68746 8.9 9.37811 8.99384 9.115 9.16965C8.85188 9.34546 8.6468 9.59535 8.5257 9.88771C8.4046 10.1801 8.37292 10.5018 8.43465 10.8121C8.49639 11.1225 8.64877 11.4076 8.87254 11.6314C9.0963 11.8551 9.38139 12.0075 9.69176 12.0693C10.0021 12.131 10.3238 12.0993 10.6162 11.9782C10.9086 11.8571 11.1584 11.652 11.3343 11.3889C11.5101 11.1258 11.6039 10.8165 11.6039 10.5C11.6039 10.0757 11.4353 9.66869 11.1353 9.36863C10.8352 9.06857 10.4283 8.9 10.0039 8.9Z" fill="#001B33" stroke="#F2F2F2" stroke-width="0.2"/>
</svg>
